<svg width="154" height="231" viewBox="0 0 154 231" fill="none" xmlns="http://www.w3.org/2000/svg">
<path opacity="0.3" fill-rule="evenodd" clip-rule="evenodd" d="M130.813 159.865L143.352 29.0333C112.136 26.2722 91.9388 18.2589 76.1183 11.9821C52.4263 2.5822 38.55 -2.92326 12.1804 18.938L12.2989 20.3136L130.813 159.865Z" fill="url(#paint0_linear)"/>
<path fill-rule="evenodd" clip-rule="evenodd" d="M9.79761 15.7602C55.3728 -22.0236 64.9375 19.0758 145.735 26.2216L127.855 212.784H26.7701L9.79761 15.7602ZM12.1806 18.9376C56.1585 -17.5216 65.3876 22.137 143.353 29.0328L126.099 209.055H28.5584L12.1806 18.9376Z" fill="#FEFEFE" fill-opacity="0.25"/>
<path d="M12.1806 18.9376C56.1585 -17.5216 65.3876 22.137 143.353 29.0328L126.099 209.055H28.5584L12.1806 18.9376Z" fill="#FEFEFE" fill-opacity="0.25"/>
<path fill-rule="evenodd" clip-rule="evenodd" d="M9.79736 15.7598C55.3725 -22.0241 64.9372 19.0754 145.734 26.2212L127.854 212.783H26.7698L9.79736 15.7589V15.7598ZM12.1803 18.9372C56.1583 -17.522 65.3873 22.1366 143.352 29.0324L126.099 209.055H28.5582L12.1803 18.9372Z" fill="url(#paint1_linear)"/>
<path fill-rule="evenodd" clip-rule="evenodd" d="M18.6914 212.783H135.301V220.986H18.6914V212.783Z" fill="url(#paint2_linear)"/>
<path fill-rule="evenodd" clip-rule="evenodd" d="M0 220.983H154V230.997H0V220.983Z" fill="url(#paint3_linear)"/>
<path fill-rule="evenodd" clip-rule="evenodd" d="M58.1202 200.714C58.1504 200.768 58.358 200.961 58.4184 201.022C58.4724 201.076 58.5163 201.12 58.5702 201.174C58.6123 201.216 58.6672 201.294 58.7257 201.309L59.4447 200.583C59.5188 200.512 59.6597 200.446 59.8033 200.446C60.1043 200.446 60.2534 200.663 60.408 200.818C60.4839 200.894 60.8617 201.259 60.8928 201.311L61.4874 201.904C61.5716 201.957 61.6356 202.062 61.6786 202.158C61.7875 202.396 61.6685 202.631 61.5039 202.795L60.376 203.923C60.2324 204.067 60.0942 204.262 59.8152 204.262C59.5188 204.263 59.3981 204.079 59.2481 203.929C59.0953 203.776 58.9517 203.633 58.798 203.479L58.3452 203.032L57.7524 203.618C57.7854 203.668 58.2052 204.078 58.2848 204.157C58.4696 204.342 58.6452 204.518 58.83 204.703C59.0121 204.885 59.2426 205.027 59.5399 205.083C59.9899 205.167 60.4556 205.024 60.7565 204.735C61.1892 204.318 61.685 203.805 62.1177 203.372C62.3079 203.181 62.4415 202.988 62.5193 202.683C62.6409 202.205 62.4991 201.794 62.221 201.45C62.0866 201.284 61.0675 200.286 60.8645 200.083C60.6605 199.879 60.5132 199.76 60.2077 199.662C59.8985 199.564 59.5664 199.592 59.2883 199.703C58.9307 199.846 58.6828 200.156 58.3946 200.444C58.3159 200.523 58.2025 200.652 58.122 200.713L58.1202 200.714Z" fill="#FEFEFE"/>
<path fill-rule="evenodd" clip-rule="evenodd" d="M61.4874 201.907L60.8928 201.314L60.1738 202.038C59.9936 202.214 59.6533 202.225 59.4576 202.051C59.3734 201.976 59.292 201.885 59.2106 201.804L58.7258 201.312C58.6672 201.296 58.6123 201.219 58.5703 201.177C58.5163 201.123 58.4724 201.079 58.4184 201.025C58.358 200.964 58.1504 200.771 58.1202 200.717C58.0379 200.614 57.9912 200.606 57.9327 200.459C57.8888 200.349 57.8888 200.186 57.9327 200.076C57.9976 199.913 58.2208 199.721 58.3489 199.593C58.6498 199.292 58.9407 199 59.2417 198.7C59.3899 198.551 59.5143 198.374 59.7896 198.36C60.0586 198.346 60.2296 198.554 60.3623 198.687C60.4318 198.756 61.2212 199.534 61.2587 199.59L61.857 198.998L60.634 197.794C60.5782 197.753 60.5343 197.721 60.473 197.689C60.354 197.627 60.2306 197.574 60.0732 197.544C60.0211 197.534 59.968 197.528 59.915 197.524H59.7137C59.3899 197.546 59.0715 197.676 58.8474 197.901C58.7541 197.996 58.6691 198.08 58.5748 198.174C58.3901 198.359 58.2144 198.535 58.0306 198.719C57.8476 198.902 57.6747 199.075 57.4918 199.258C57.2146 199.535 57.0636 199.869 57.0518 200.217V200.308C57.0582 200.488 57.1002 200.673 57.1817 200.855C57.3024 201.126 57.4652 201.254 57.6692 201.458C57.8696 201.658 58.8584 202.676 59.0331 202.792C59.1356 202.86 59.2737 202.93 59.4045 202.965C59.8528 203.089 60.311 203.015 60.6641 202.725C60.7501 202.654 61.4508 201.965 61.4838 201.911L61.4874 201.907Z" fill="#FEFEFE"/>
<path fill-rule="evenodd" clip-rule="evenodd" d="M57.052 202.353C57.052 202.571 57.1115 202.803 57.1874 202.954C57.2313 203.042 57.267 203.11 57.3237 203.186C57.352 203.224 57.4673 203.362 57.4957 203.38L58.0939 202.788L57.1435 201.831C57.1032 201.995 57.052 202.156 57.052 202.353Z" fill="#FEFEFE"/>
<path fill-rule="evenodd" clip-rule="evenodd" d="M61.5239 199.839L62.4744 200.797C62.4954 200.637 62.5402 200.602 62.5539 200.35L62.553 200.122C62.5357 199.878 62.3975 199.567 62.2457 199.39C62.2073 199.345 62.1524 199.291 62.1231 199.247L61.5248 199.839H61.5239Z" fill="#FEFEFE"/>
<path d="M64.8173 204.753C64.5502 204.753 64.3133 204.72 64.1047 204.653C63.8962 204.586 63.716 204.498 63.5632 204.39C63.4104 204.282 63.2814 204.157 63.1753 204.015C63.0701 203.873 62.9887 203.73 62.9338 203.586L63.909 203.168C64.0032 203.38 64.1303 203.537 64.2886 203.64C64.4469 203.742 64.6234 203.794 64.8182 203.794C65.0186 203.794 65.1768 203.759 65.293 203.686C65.4101 203.614 65.4677 203.528 65.4677 203.427C65.4677 203.317 65.4192 203.226 65.3223 203.156C65.2253 203.087 65.057 203.025 64.8182 202.969L64.2429 202.843C64.1148 202.816 63.9831 202.771 63.8468 202.71C63.7105 202.648 63.587 202.57 63.4754 202.476C63.3647 202.382 63.2723 202.267 63.2 202.134C63.1278 202 63.0921 201.845 63.0921 201.667C63.0921 201.466 63.1351 201.289 63.2211 201.133C63.3071 200.978 63.4251 200.846 63.5751 200.737C63.7251 200.629 63.9017 200.545 64.1047 200.487C64.3078 200.428 64.5255 200.399 64.7588 200.399C65.1476 200.399 65.4952 200.476 65.8007 200.629C66.1062 200.782 66.3313 201.025 66.4758 201.358L65.5336 201.742C65.4558 201.581 65.3415 201.464 65.1915 201.391C65.0414 201.319 64.8914 201.283 64.7414 201.283C64.5859 201.283 64.4496 201.315 64.3325 201.38C64.2154 201.444 64.1578 201.526 64.1578 201.626C64.1578 201.72 64.2063 201.795 64.3041 201.851C64.4011 201.907 64.5338 201.956 64.7002 202.001L65.3259 202.151C65.7431 202.251 66.0523 202.411 66.2553 202.631C66.4584 202.851 66.5599 203.111 66.5599 203.411C66.5599 203.588 66.5179 203.759 66.4346 203.92C66.3514 204.081 66.2334 204.225 66.0806 204.349C65.9278 204.475 65.744 204.573 65.5299 204.646C65.3159 204.718 65.078 204.754 64.8173 204.754V204.753ZM66.9313 200.532H67.9568V201.066H68.0236C68.1516 200.865 68.3254 200.704 68.545 200.581C68.7645 200.459 69.0078 200.398 69.274 200.398C69.5851 200.398 69.8467 200.471 70.058 200.615C70.2693 200.76 70.4193 200.937 70.508 201.149C70.6361 200.943 70.8163 200.766 71.0496 200.619C71.2828 200.471 71.5664 200.397 71.9003 200.397C72.15 200.397 72.3668 200.438 72.5507 200.518C72.7337 200.599 72.8855 200.711 73.0053 200.856C73.1252 201.001 73.2148 201.174 73.2761 201.378C73.3374 201.581 73.3676 201.802 73.3676 202.041V204.619H72.2754V202.242C72.2754 201.685 72.0476 201.408 71.592 201.408C71.4475 201.408 71.3194 201.44 71.2088 201.504C71.0972 201.568 71.0048 201.654 70.9298 201.763C70.8547 201.871 70.7962 202.001 70.755 202.151C70.713 202.301 70.6928 202.462 70.6928 202.635V204.621H69.6006V202.244C69.6006 201.687 69.3619 201.41 68.8834 201.41C68.7444 201.41 68.6218 201.442 68.5166 201.506C68.4114 201.57 68.3218 201.656 68.2495 201.765C68.1772 201.873 68.1214 202.003 68.083 202.153C68.0437 202.303 68.0245 202.464 68.0245 202.637V204.623H66.9322V200.535L66.9313 200.532ZM76.4906 204.186H76.4238C76.2957 204.342 76.1421 204.475 75.9609 204.586C75.7807 204.697 75.5484 204.753 75.2648 204.753C75.0535 204.753 74.855 204.718 74.6684 204.648C74.4818 204.579 74.3198 204.483 74.1808 204.361C74.0418 204.238 73.9338 204.091 73.8561 203.919C73.7783 203.747 73.739 203.557 73.739 203.351C73.739 203.14 73.7811 202.949 73.8643 202.78C73.9475 202.611 74.0646 202.464 74.2147 202.343C74.3647 202.22 74.5412 202.127 74.7443 202.063C74.9474 201.999 75.1678 201.967 75.4075 201.967C75.6746 201.967 75.8942 201.988 76.0661 202.029C76.2381 202.072 76.3799 202.115 76.4915 202.159V202.033C76.4915 201.816 76.4055 201.637 76.2326 201.495C76.0606 201.353 75.8466 201.282 75.5905 201.282C75.2127 201.282 74.8925 201.441 74.6318 201.758L73.8396 201.216C74.2732 200.671 74.8651 200.398 75.6152 200.398C76.2491 200.398 76.7321 200.547 77.066 200.845C77.3998 201.142 77.5663 201.584 77.5663 202.167V204.619H76.4906V204.185V204.186ZM76.4906 202.96C76.3625 202.898 76.2308 202.85 76.0945 202.813C75.9582 202.777 75.81 202.759 75.6481 202.759C75.3865 202.759 75.1852 202.816 75.0434 202.93C74.9016 203.045 74.8312 203.185 74.8312 203.351C74.8312 203.518 74.8989 203.652 75.0352 203.751C75.1715 203.851 75.3279 203.901 75.5063 203.901C75.6508 203.901 75.7844 203.875 75.906 203.822C76.0286 203.769 76.1329 203.699 76.2189 203.613C76.3049 203.527 76.3717 203.426 76.4192 203.313C76.4668 203.198 76.4897 203.08 76.4897 202.959L76.4906 202.96ZM79.2056 201.166H79.2724C79.383 200.96 79.5459 200.795 79.7599 200.67C79.974 200.545 80.2118 200.482 80.4725 200.482C80.5667 200.482 80.6418 200.485 80.6976 200.491C80.7534 200.496 80.8055 200.507 80.8558 200.524V201.608C80.7945 201.581 80.7268 201.558 80.6518 201.542C80.5768 201.525 80.4862 201.517 80.3811 201.517C80.0362 201.517 79.7654 201.621 79.5678 201.83C79.3702 202.039 79.2714 202.323 79.2714 202.685V204.687H78.1792V200.599H79.2047V201.166H79.2056ZM82.0651 201.466H81.348V200.532H82.0651V199.28H83.1573V200.532H84.1581V201.466H83.1573V203.1C83.1573 203.198 83.1674 203.288 83.1866 203.371C83.2058 203.454 83.2433 203.524 83.2991 203.581C83.3769 203.673 83.4885 203.718 83.633 203.718C83.7272 203.718 83.8023 203.708 83.8581 203.689C83.9139 203.67 83.966 203.643 84.0163 203.609L84.3246 204.569C84.1965 204.63 84.0593 204.676 83.912 204.706C83.7647 204.736 83.6019 204.752 83.4245 204.752C83.2186 204.752 83.0339 204.72 82.8701 204.655C82.7064 204.59 82.5682 204.499 82.4576 204.387C82.1959 204.131 82.066 203.768 82.066 203.296V201.466L82.0651 201.466Z" fill="#FEFEFE"/>
<path d="M84.7471 204.62V198.647H85.8393V204.62H84.7471ZM87.1282 199.982C87.034 199.982 86.9434 199.964 86.8574 199.928C86.7714 199.892 86.6964 199.842 86.6324 199.778C86.5684 199.714 86.518 199.64 86.4824 199.556C86.4467 199.473 86.4284 199.381 86.4284 199.281C86.4284 199.181 86.4467 199.088 86.4824 199.005C86.518 198.922 86.5684 198.848 86.6324 198.784C86.6964 198.719 86.7714 198.669 86.8574 198.633C86.9434 198.598 87.034 198.579 87.1282 198.579C87.323 198.579 87.4895 198.647 87.6286 198.784C87.7676 198.92 87.8371 199.086 87.8371 199.28C87.8371 199.475 87.7676 199.639 87.6286 199.776C87.4895 199.912 87.323 199.98 87.1282 199.98V199.982ZM86.5867 204.62V200.532H87.6789V204.62H86.5867ZM89.4517 201.067H89.5185C89.6465 200.861 89.8185 200.698 90.0353 200.579C90.2521 200.459 90.4991 200.399 90.7772 200.399C91.0324 200.399 91.2583 200.441 91.4523 200.525C91.6471 200.608 91.8063 200.726 91.9316 200.879C92.0569 201.032 92.1511 201.216 92.2152 201.43C92.2792 201.644 92.3112 201.882 92.3112 202.143V204.621H91.219V202.277C91.219 201.982 91.154 201.764 91.0232 201.622C90.8924 201.48 90.7022 201.41 90.4524 201.41C90.3024 201.41 90.1707 201.442 90.0563 201.506C89.942 201.57 89.845 201.656 89.7645 201.765C89.684 201.873 89.6227 202.001 89.5816 202.149C89.5395 202.296 89.5194 202.453 89.5194 202.62V204.622H88.4271V200.534H89.4526V201.068L89.4517 201.067ZM92.9579 198.647H94.0502V201.901H94.1005L95.4681 200.532H96.8182V200.599L95.3006 202.075L96.9426 204.553V204.62H95.6501L94.5332 202.827L94.0493 203.302V204.62H92.957V198.647H92.9579Z" fill="#FEFEFE"/>
<path d="M48.9937 78.4135H50.2921L46.8381 69.7295H45.454L42 78.4135H43.2861L44.2047 75.9883H48.0506L48.9937 78.4135ZM46.1154 70.9788L47.6219 74.8737H44.6334L46.1154 70.9788Z" fill="white"/>
<path d="M53.5072 73.404C54.5116 73.404 54.9403 74.0776 55.0873 74.6533L56.1284 74.2123C55.8834 73.3182 55.075 72.3384 53.5072 72.3384C51.8292 72.3384 50.5432 73.6244 50.5432 75.4617C50.5432 77.2499 51.8047 78.5972 53.5195 78.5972C55.0505 78.5972 55.8956 77.6051 56.1773 76.76L55.1607 76.319C55.026 76.7845 54.6218 77.5316 53.5195 77.5316C52.5641 77.5316 51.719 76.809 51.719 75.4617C51.719 74.0899 52.5764 73.404 53.5072 73.404Z" fill="white"/>
<path d="M58.4344 74.9472C58.4589 74.0776 58.9243 73.3917 59.8062 73.3917C60.835 73.3917 61.178 74.0531 61.178 74.8737V78.4135H62.3293V74.6778C62.3293 73.3672 61.6312 72.3506 60.2226 72.3506C59.549 72.3506 58.8631 72.5833 58.4344 73.208V69.5458H57.283V78.4135H58.4344V74.9472Z" fill="white"/>
<path d="M65.0548 78.4135V72.5221H63.9157V78.4135H65.0548ZM63.6585 70.2929C63.6585 70.7461 64.026 71.1135 64.4792 71.1135C64.9446 71.1135 65.312 70.7461 65.312 70.2929C65.312 69.8275 64.9446 69.46 64.4792 69.46C64.026 69.46 63.6585 69.8275 63.6585 70.2929Z" fill="white"/>
<path d="M67.5159 74.8615C67.5649 74.1021 68.1528 73.355 69.1204 73.355C70.1615 73.355 70.7127 74.0164 70.7372 74.8615H67.5159ZM70.9086 76.3925C70.6882 77.0539 70.2105 77.5806 69.2551 77.5806C68.263 77.5806 67.5036 76.8457 67.4791 75.7924H71.913C71.9252 75.7189 71.9375 75.5719 71.9375 75.4249C71.9375 73.5877 70.9209 72.3384 69.1081 72.3384C67.6261 72.3384 66.291 73.5999 66.291 75.4494C66.291 77.4459 67.6751 78.5972 69.2551 78.5972C70.6269 78.5972 71.57 77.7766 71.9007 76.7355L70.9086 76.3925Z" fill="white"/>
<path d="M78.0889 72.5221H76.8518L75.1616 77.0662L73.4835 72.5221H72.1852L74.5736 78.4135H75.7372L78.0889 72.5221Z" fill="white"/>
<path d="M79.5134 74.8615C79.5624 74.1021 80.1503 73.355 81.1179 73.355C82.159 73.355 82.7102 74.0164 82.7347 74.8615H79.5134ZM82.9062 76.3925C82.6857 77.0539 82.208 77.5806 81.2527 77.5806C80.2606 77.5806 79.5012 76.8457 79.4767 75.7924H83.9105C83.9228 75.7189 83.935 75.5719 83.935 75.4249C83.935 73.5877 82.9184 72.3384 81.1057 72.3384C79.6236 72.3384 78.2886 73.5999 78.2886 75.4494C78.2886 77.4459 79.6726 78.5972 81.2527 78.5972C82.6245 78.5972 83.5676 77.7766 83.8983 76.7355L82.9062 76.3925Z" fill="white"/>
<path d="M86.2988 78.4135V74.8615C86.2988 73.9796 86.85 73.3672 87.6707 73.3672C88.5525 73.3672 88.92 73.9551 88.92 74.7145V78.4135H90.0713V74.8492C90.0713 74.0041 90.6225 73.3672 91.4309 73.3672C92.3005 73.3672 92.6802 73.9429 92.6802 74.7145V78.4135H93.8193V74.592C93.8193 73.0488 92.8149 72.3506 91.7861 72.3506C91.0389 72.3506 90.2795 72.6201 89.8141 73.4652C89.4956 72.7058 88.7852 72.3506 88.0503 72.3506C87.3644 72.3506 86.6296 72.6568 86.2621 73.306V72.5221H85.1598V78.4135H86.2988Z" fill="white"/>
<path d="M96.1638 74.8615C96.2128 74.1021 96.8008 73.355 97.7684 73.355C98.8095 73.355 99.3606 74.0164 99.3851 74.8615H96.1638ZM99.5566 76.3925C99.3361 77.0539 98.8585 77.5806 97.9031 77.5806C96.911 77.5806 96.1516 76.8457 96.1271 75.7924H100.561C100.573 75.7189 100.585 75.5719 100.585 75.4249C100.585 73.5877 99.5689 72.3384 97.7561 72.3384C96.2741 72.3384 94.939 73.5999 94.939 75.4494C94.939 77.4459 96.3231 78.5972 97.9031 78.5972C99.2749 78.5972 100.218 77.7766 100.549 76.7355L99.5566 76.3925Z" fill="white"/>
<path d="M102.962 75.0085C102.962 74.1144 103.427 73.3917 104.333 73.3917C105.362 73.3917 105.705 74.0531 105.705 74.8737V78.4135H106.856V74.6778C106.856 73.3672 106.158 72.3506 104.75 72.3506C104.064 72.3506 103.366 72.6323 102.937 73.3672V72.5221H101.81V78.4135H102.962V75.0085Z" fill="white"/>
<path d="M109.986 70.6603H108.933V71.6157C108.933 72.1301 108.663 72.5221 108.026 72.5221H107.708V73.5632H108.835V76.7967C108.835 77.8623 109.472 78.4747 110.476 78.4747C110.868 78.4747 111.162 78.4012 111.26 78.3645V77.3846C111.162 77.4091 110.954 77.4336 110.807 77.4336C110.207 77.4336 109.986 77.1642 109.986 76.6252V73.5632H111.26V72.5221H109.986V70.6603Z" fill="white"/>
<path d="M51.7061 50.9217L48.252 50.8164C48.1642 50.4292 48.1203 50.0337 48.1203 49.6291C48.1203 48.0464 48.6828 46.6961 49.808 45.5793C50.9331 44.4625 52.4535 43.9041 54.3699 43.9041C56.2333 43.9041 57.7271 44.436 58.8522 45.5006C59.9774 46.5652 60.5399 47.8706 60.5399 49.4186C60.5399 51.6 59.4322 53.3677 57.2175 54.7225L53.9217 56.7282C53.1487 57.2207 52.6556 57.7397 52.4452 58.2853H60.6451V61.4252H47.9885C48.0059 59.8241 48.3178 58.4263 48.9243 57.2298C49.5308 56.0334 50.5636 54.9962 52.0226 54.1165L54.8437 52.4276C56.1976 51.6183 56.8736 50.6333 56.8736 49.4726C56.8736 48.8217 56.6495 48.2679 56.2012 47.8102C55.753 47.3525 55.1154 47.1246 54.2894 47.1246C53.4103 47.1246 52.738 47.3882 52.2723 47.9164C51.8067 48.4437 51.5735 49.1302 51.5735 49.9742C51.5735 50.291 51.6174 50.6077 51.7052 50.9244L51.7061 50.9217ZM67.1043 48.5206C66.4886 49.4882 66.1813 50.9391 66.1813 52.8743C66.1813 54.8095 66.4886 56.2604 67.1043 57.228C67.6842 58.1599 68.5459 58.6268 69.6884 58.6268C70.8136 58.6268 71.6662 58.1608 72.2461 57.228C72.8791 56.2778 73.1956 54.8269 73.1956 52.8743C73.1956 50.9217 72.8791 49.4708 72.2461 48.5206C71.6662 47.5887 70.8136 47.1218 69.6884 47.1218C68.5459 47.1218 67.6842 47.5878 67.1043 48.5206ZM64.0453 58.9691C63.0436 57.4386 62.5423 55.4072 62.5423 52.8743C62.5423 50.3413 63.0436 48.3091 64.0453 46.7794C65.3287 44.8616 67.2095 43.9032 69.6875 43.9032C72.1656 43.9032 74.0381 44.8616 75.3042 46.7794C76.3241 48.3274 76.8336 50.3587 76.8336 52.8743C76.8336 55.3898 76.3241 57.4212 75.3042 58.9691C74.0381 60.8869 72.1665 61.8454 69.6875 61.8454C67.2095 61.8454 65.3278 60.8869 64.0453 58.9691ZM82.3972 50.9217L78.9431 50.8164C78.8553 50.4292 78.8114 50.0337 78.8114 49.6291C78.8114 48.0464 79.3739 46.6961 80.4991 45.5793C81.6242 44.4625 83.1446 43.9041 85.061 43.9041C86.9244 43.9041 88.4182 44.436 89.5433 45.5006C90.6685 46.5652 91.231 47.8706 91.231 49.4186C91.231 51.6 90.1233 53.3677 87.9086 54.7225L84.6128 56.7282C83.8398 57.2207 83.3467 57.7397 83.1363 58.2853H91.3362V61.4252H78.6796C78.697 59.8241 79.0089 58.4263 79.6154 57.2298C80.2219 56.0334 81.2547 54.9962 82.7137 54.1165L85.5348 52.4276C86.8887 51.6183 87.5647 50.6333 87.5647 49.4726C87.5647 48.8217 87.3406 48.2679 86.8923 47.8102C86.4441 47.3525 85.8065 47.1246 84.9805 47.1246C84.1014 47.1246 83.4291 47.3882 82.9634 47.9164C82.4978 48.4437 82.2646 49.1302 82.2646 49.9742C82.2646 50.291 82.3085 50.6077 82.3963 50.9244L82.3972 50.9217ZM97.7954 48.5206C97.1797 49.4882 96.8724 50.9391 96.8724 52.8743C96.8724 54.8095 97.1797 56.2604 97.7954 57.228C98.3753 58.1599 99.237 58.6268 100.38 58.6268C101.505 58.6268 102.357 58.1608 102.937 57.228C103.57 56.2778 103.887 54.8269 103.887 52.8743C103.887 50.9217 103.57 49.4708 102.937 48.5206C102.357 47.5887 101.505 47.1218 100.38 47.1218C99.237 47.1218 98.3753 47.5878 97.7954 48.5206ZM94.7364 58.9691C93.7347 57.4386 93.2335 55.4072 93.2335 52.8743C93.2335 50.3413 93.7347 48.3091 94.7364 46.7794C96.0198 44.8616 97.9006 43.9032 100.379 43.9032C102.857 43.9032 104.729 44.8616 105.995 46.7794C107.015 48.3274 107.525 50.3587 107.525 52.8743C107.525 55.3898 107.015 57.4212 105.995 58.9691C104.729 60.8869 102.858 61.8454 100.379 61.8454C97.9006 61.8454 96.0189 60.8869 94.7364 58.9691Z" fill="#FEFEFE"/>
<path d="M109.865 171.203H46.1643C45.9092 171.203 45.7024 171.256 45.7024 171.322V171.323C45.7024 171.388 45.9092 171.442 46.1643 171.442H109.865C110.121 171.442 110.327 171.388 110.327 171.323V171.322C110.327 171.256 110.121 171.203 109.865 171.203Z" fill="#FEFEFE"/>
<path fill-rule="evenodd" clip-rule="evenodd" d="M73.4544 25.1728H73.0647C72.4143 25.1728 71.8865 24.6447 71.8865 23.9938V23.3594C71.8865 23.223 71.9972 23.1132 72.1325 23.1132H72.2762C72.9266 23.1132 73.4544 23.6414 73.4544 24.2922V25.1728Z" fill="#FEFEFE"/>
<path fill-rule="evenodd" clip-rule="evenodd" d="M72.2988 26.2669L72.48 26.612C72.7818 27.1887 73.4944 27.4112 74.0707 27.1091L74.6324 26.8143C74.7531 26.7511 74.7998 26.6019 74.7367 26.482L74.6699 26.3548C74.368 25.7781 73.6554 25.5556 73.0791 25.8577L72.2997 26.2669H72.2988Z" fill="#FEFEFE"/>
<path fill-rule="evenodd" clip-rule="evenodd" d="M71.3702 27.4192H70.9805C70.3301 27.4192 69.8022 26.891 69.8022 26.2401V25.6057C69.8022 25.4693 69.9129 25.3595 70.0483 25.3595H70.1919C70.8423 25.3595 71.3702 25.8877 71.3702 26.5386V27.4192Z" fill="#FEFEFE"/>
<path fill-rule="evenodd" clip-rule="evenodd" d="M70.1973 30.7964H69.8076C69.1572 30.7964 68.6294 30.2682 68.6294 29.6174V28.983C68.6294 28.8466 68.7401 28.7368 68.8755 28.7368H69.0191C69.6695 28.7368 70.1973 29.265 70.1973 29.9158V30.7964Z" fill="#FEFEFE"/>
<path fill-rule="evenodd" clip-rule="evenodd" d="M70.2412 31.5807L70.6107 31.7034C71.2282 31.9085 71.895 31.5743 72.0999 30.9555L72.2994 30.3532C72.3424 30.2241 72.2719 30.084 72.1429 30.0419L72.0066 29.9971C71.3892 29.792 70.7223 30.1261 70.5174 30.745L70.2402 31.5807H70.2412Z" fill="#FEFEFE"/>
<path fill-rule="evenodd" clip-rule="evenodd" d="M71.176 35.3801L71.5629 35.3316C72.2087 35.251 72.667 34.6624 72.5865 34.0161L72.5088 33.3863C72.4923 33.2508 72.3688 33.1556 72.2343 33.1721L72.0916 33.1895C71.4458 33.27 70.9875 33.8586 71.068 34.5049L71.1769 35.3792L71.176 35.3801Z" fill="#FEFEFE"/>
<path fill-rule="evenodd" clip-rule="evenodd" d="M70.6259 34.2164L70.2609 34.3537C69.6517 34.5835 68.972 34.2759 68.7424 33.6672L68.5183 33.074C68.4698 32.9467 68.5347 32.8049 68.6619 32.7563L68.7964 32.706C69.4056 32.4762 70.0853 32.7838 70.3149 33.3926L70.6259 34.2164Z" fill="#FEFEFE"/>
<path fill-rule="evenodd" clip-rule="evenodd" d="M72.129 36.7653L71.8537 37.0409C71.3936 37.5013 70.6471 37.5013 70.187 37.0409L69.7388 36.5923C69.6427 36.4962 69.6427 36.3396 69.7388 36.2435L69.8403 36.1419C70.3004 35.6815 71.0469 35.6815 71.507 36.1419L72.129 36.7644V36.7653Z" fill="#FEFEFE"/>
<path fill-rule="evenodd" clip-rule="evenodd" d="M74.579 38.6651L74.3887 39.0057C74.0713 39.5741 73.3532 39.7774 72.7851 39.4588L72.2317 39.1494C72.1128 39.0826 72.0707 38.9324 72.1366 38.8143L72.207 38.6889C72.5244 38.1205 73.2425 37.9172 73.8106 38.2358L74.579 38.666V38.6651Z" fill="#FEFEFE"/>
<path fill-rule="evenodd" clip-rule="evenodd" d="M75.7261 39.1174L75.9209 38.7796C76.2466 38.2157 76.0536 37.4943 75.4901 37.1684L74.9412 36.8508C74.8232 36.7831 74.6732 36.8233 74.6046 36.9414L74.5332 37.0659C74.2076 37.6298 74.4006 38.3512 74.965 38.677L75.727 39.1174H75.7261Z" fill="#FEFEFE"/>
<path fill-rule="evenodd" clip-rule="evenodd" d="M82.6538 25.1728H83.0435C83.6939 25.1728 84.2217 24.6447 84.2217 23.9938V23.3594C84.2217 23.223 84.111 23.1132 83.9756 23.1132H83.832C83.1816 23.1132 82.6538 23.6414 82.6538 24.2922V25.1728Z" fill="#FEFEFE"/>
<path fill-rule="evenodd" clip-rule="evenodd" d="M83.8197 26.2669L83.6386 26.612C83.3367 27.1887 82.6241 27.4112 82.0478 27.1091L81.4862 26.8143C81.3654 26.7511 81.3188 26.6019 81.3819 26.482L81.4487 26.3548C81.7505 25.7781 82.4631 25.5556 83.0394 25.8577L83.8188 26.2669H83.8197Z" fill="#FEFEFE"/>
<path fill-rule="evenodd" clip-rule="evenodd" d="M84.7456 27.4192H85.1353C85.7857 27.4192 86.3135 26.891 86.3135 26.2401V25.6057C86.3135 25.4693 86.2028 25.3595 86.0674 25.3595H85.9238C85.2734 25.3595 84.7456 25.8877 84.7456 26.5386V27.4192Z" fill="#FEFEFE"/>
<path fill-rule="evenodd" clip-rule="evenodd" d="M85.9111 30.7964H86.3008C86.9512 30.7964 87.479 30.2682 87.479 29.6174V28.983C87.479 28.8466 87.3683 28.7368 87.233 28.7368H87.0893C86.4389 28.7368 85.9111 29.265 85.9111 29.9158V30.7964Z" fill="#FEFEFE"/>
<path fill-rule="evenodd" clip-rule="evenodd" d="M85.8723 31.5807L85.5028 31.7034C84.8853 31.9085 84.2185 31.5743 84.0136 30.9555L83.8141 30.3532C83.7711 30.2241 83.8416 30.084 83.9706 30.0419L84.1069 29.9971C84.7243 29.792 85.3912 30.1261 85.5961 30.745L85.8733 31.5807H85.8723Z" fill="#FEFEFE"/>
<path fill-rule="evenodd" clip-rule="evenodd" d="M84.9419 35.3801L84.555 35.3316C83.9092 35.251 83.4509 34.6624 83.5314 34.0161L83.6091 33.3863C83.6256 33.2508 83.7491 33.1556 83.8836 33.1721L84.0263 33.1895C84.6721 33.27 85.1304 33.8586 85.0499 34.5049L84.941 35.3792L84.9419 35.3801Z" fill="#FEFEFE"/>
<path fill-rule="evenodd" clip-rule="evenodd" d="M85.4888 34.2164L85.8538 34.3537C86.463 34.5835 87.1427 34.2759 87.3723 33.6672L87.5964 33.074C87.6449 32.9467 87.5799 32.8049 87.4528 32.7563L87.3183 32.706C86.7091 32.4762 86.0294 32.7838 85.7998 33.3926L85.4888 34.2164Z" fill="#FEFEFE"/>
<path fill-rule="evenodd" clip-rule="evenodd" d="M83.9866 36.7653L84.2619 37.0409C84.722 37.5013 85.4685 37.5013 85.9286 37.0409L86.3768 36.5923C86.4729 36.4962 86.4729 36.3396 86.3768 36.2435L86.2753 36.1419C85.8152 35.6815 85.0687 35.6815 84.6086 36.1419L83.9866 36.7644V36.7653Z" fill="#FEFEFE"/>
<path fill-rule="evenodd" clip-rule="evenodd" d="M81.5388 38.6651L81.7291 39.0057C82.0465 39.5741 82.7646 39.7774 83.3327 39.4588L83.8861 39.1494C84.005 39.0826 84.0471 38.9324 83.9812 38.8143L83.9108 38.6889C83.5934 38.1205 82.8753 37.9172 82.3072 38.2358L81.5388 38.666V38.6651Z" fill="#FEFEFE"/>
<path fill-rule="evenodd" clip-rule="evenodd" d="M80.3905 39.1174L80.1956 38.7796C79.87 38.2157 80.063 37.4943 80.6265 37.1684L81.1753 36.8508C81.2933 36.7831 81.4434 36.8233 81.512 36.9414L81.5833 37.0659C81.909 37.6298 81.716 38.3512 81.1515 38.677L80.3896 39.1174H80.3905Z" fill="#FEFEFE"/>
<path fill-rule="evenodd" clip-rule="evenodd" d="M78.5411 26.4621L79.5053 28.4174C79.5839 28.5758 79.7349 28.6865 79.9096 28.7113L82.0657 29.0252C82.5066 29.0893 82.6822 29.6313 82.3639 29.9425L80.8033 31.4648C80.6771 31.5884 80.6185 31.766 80.6487 31.9408L81.0174 34.0902C81.0924 34.5296 80.6323 34.8647 80.238 34.6569L78.3088 33.6417C78.1523 33.5593 77.9648 33.5593 77.8084 33.6417L75.8792 34.6569C75.4849 34.8647 75.0239 34.5296 75.0998 34.0902L75.4684 31.9408C75.4986 31.766 75.441 31.5884 75.3138 31.4648L73.7533 29.9425C73.434 29.6313 73.6106 29.0893 74.0515 29.0252L76.2076 28.7113C76.3823 28.6856 76.5341 28.5758 76.6119 28.4174L77.576 26.4621C77.7736 26.062 78.3426 26.062 78.5402 26.4621H78.5411Z" fill="#FEFEFE"/>
<path fill-rule="evenodd" clip-rule="evenodd" d="M77.3625 32.5185C77.3927 32.3436 77.3351 32.166 77.2079 32.0425L75.6473 30.5201C75.3281 30.2089 75.5046 29.667 75.9455 29.6029L78.1016 29.2889C78.2763 29.2633 78.4282 29.1534 78.506 28.995L79.1472 27.6942L78.5398 26.4621C78.3422 26.062 77.7732 26.062 77.5756 26.4621L76.6115 28.4174C76.5328 28.5758 76.3819 28.6865 76.2072 28.7113L74.0511 29.0252C73.6102 29.0893 73.4345 29.6313 73.7529 29.9425L75.3134 31.4648C75.4397 31.5884 75.4982 31.766 75.468 31.9408L75.0994 34.0902C75.0244 34.5296 75.4845 34.8647 75.8788 34.6569L77.1055 34.0115L77.3616 32.5185H77.3625Z" fill="#FEFEFE"/>
<path fill-rule="evenodd" clip-rule="evenodd" d="M78.0557 39.7532C73.5652 39.7532 69.9116 36.097 69.9116 31.6032C69.9116 29.918 70.4211 28.3013 71.3853 26.9273C72.3275 25.5844 73.6319 24.5664 75.1587 23.9851C75.3078 23.9284 75.4734 24.0035 75.5301 24.1518C75.5868 24.3 75.5118 24.4667 75.3636 24.5234C73.9448 25.0644 72.7318 26.01 71.8564 27.2587C70.9609 28.5357 70.4879 30.0379 70.4879 31.6042C70.4879 35.7803 73.8835 39.1783 78.0566 39.1783C82.2298 39.1783 85.6253 35.7803 85.6253 31.6042C85.6253 30.0388 85.1524 28.5357 84.2569 27.2587C83.3814 26.01 82.1685 25.0644 80.7497 24.5234C80.6015 24.4667 80.5265 24.3 80.5832 24.1518C80.6399 24.0035 80.8064 23.9284 80.9546 23.9851C82.4813 24.5674 83.7858 25.5844 84.728 26.9273C85.6921 28.3013 86.2016 29.9189 86.2016 31.6032C86.2016 36.097 82.5481 39.7532 78.0575 39.7532H78.0557Z" fill="#FEFEFE"/>
<defs>
<linearGradient id="paint0_linear" x1="77.7664" y1="3.73077" x2="77.7664" y2="159.865" gradientUnits="userSpaceOnUse">
<stop stop-color="#FEFEFE"/>
<stop offset="1" stop-color="#FEFEFE" stop-opacity="0"/>
</linearGradient>
<linearGradient id="paint1_linear" x1="77.7658" y1="0" x2="77.7658" y2="212.783" gradientUnits="userSpaceOnUse">
<stop stop-color="#FEFEFE"/>
<stop offset="1" stop-color="#FEFEFE" stop-opacity="0"/>
</linearGradient>
<linearGradient id="paint2_linear" x1="19" y1="217" x2="135" y2="217" gradientUnits="userSpaceOnUse">
<stop stop-color="#332C2B"/>
<stop offset="0.551868" stop-color="#383838"/>
<stop offset="0.5625" stop-color="#332C2B"/>
<stop offset="1" stop-color="#332C2B"/>
</linearGradient>
<linearGradient id="paint3_linear" x1="0.407542" y1="226.131" x2="153.602" y2="226.131" gradientUnits="userSpaceOnUse">
<stop stop-color="#332C2B"/>
<stop offset="0.46155" stop-color="#404040"/>
<stop offset="0.467931" stop-color="#332C2B"/>
<stop offset="1" stop-color="#332C2B"/>
</linearGradient>
</defs>
</svg>
