<svg width="90" height="20" viewBox="0 0 90 20" fill="none" xmlns="http://www.w3.org/2000/svg">
<g clip-path="url(#clip0)">
<path d="M0.691403 11.4219L3.13967 13.8691L1.60758 15.4012C0.631528 14.7228 0.146805 12.6586 0.691403 11.4219ZM5.13976 13.4341C3.87769 12.2271 2.64225 10.9889 1.43346 9.71967C0.78873 9.03426 0.43606 8.12483 0.450111 7.18395C0.464163 6.24306 0.843834 5.34458 1.50874 4.67872C2.71607 3.46376 3.92582 2.25628 5.138 1.05629C5.82327 0.376281 6.75042 -0.00393128 7.71582 -0.000835737C8.68121 0.00225981 9.60591 0.38841 10.2868 1.0728L12.9922 3.77422C13.0283 3.80878 13.0604 3.84664 13.0994 3.87988L11.5492 5.43134L11.4099 5.30169L8.7415 2.63065C8.60873 2.49086 8.44908 2.37935 8.27214 2.3028C8.0952 2.22625 7.90461 2.18626 7.71182 2.18521C7.51903 2.18416 7.32802 2.22208 7.15026 2.2967C6.97249 2.37132 6.81164 2.48109 6.67736 2.61942C5.48044 3.81721 4.28309 5.01508 3.0853 6.21302C2.94989 6.34638 2.84224 6.50525 2.76856 6.68045C2.69488 6.85564 2.65664 7.0437 2.65605 7.23376C2.65952 7.47164 2.71865 7.70541 2.82871 7.91634C2.93876 8.12727 3.09667 8.30949 3.2898 8.44843L3.29134 8.44645L4.84457 9.9704C5.50033 10.642 6.1354 11.3299 6.80547 11.965C7.07326 12.1942 7.41776 12.3138 7.76998 12.2999C8.12221 12.2859 8.45616 12.1394 8.70496 11.8897C9.03912 11.5626 9.36667 11.2293 9.69796 10.8991L10.6192 9.9781H10.6229L12.1572 11.5641L12.1509 11.5586C12.1092 11.5974 12.0646 11.6365 12.023 11.6768L10.3515 13.3483C10.0064 13.7066 9.59355 13.9929 9.13692 14.1905C8.6803 14.3881 8.18899 14.4931 7.69149 14.4993C6.73452 14.4907 5.81881 14.1085 5.13976 13.4341V13.4341Z" fill="#093F78"/>
<path d="M7.70643 19.9999C6.77 20.0015 5.86951 19.6395 5.19477 18.9902C4.52227 18.3432 3.85617 17.6694 3.21185 17.0191C2.95254 16.7569 2.65867 16.46 2.3681 16.1683C2.35687 16.1569 2.34642 16.1447 2.33684 16.1318V16.1307C2.33222 16.1247 2.32825 16.1195 2.32495 16.1157L3.87223 14.5726L3.9812 14.6741L6.65004 17.3436C6.78785 17.4876 6.95281 17.6029 7.1354 17.6829C7.318 17.7629 7.51461 17.806 7.71392 17.8096C8.10069 17.8038 8.46937 17.6449 8.73906 17.3676C9.94514 16.1758 11.1495 14.9706 12.3179 13.7865C12.456 13.6546 12.5665 13.4964 12.6428 13.3213C12.7191 13.1462 12.7597 12.9577 12.7623 12.7667C12.7539 12.5343 12.6954 12.3065 12.5907 12.0988C12.486 11.8912 12.3377 11.7086 12.1559 11.5637V11.5637L10.6229 9.97721H10.6192L10.6212 9.97523C10.5632 9.9356 10.5074 9.89283 10.4541 9.84711L8.78264 8.1759C8.64469 8.02817 8.47854 7.90957 8.294 7.82711C8.10947 7.74465 7.91028 7.7 7.7082 7.6958C7.50591 7.70012 7.30653 7.74482 7.12175 7.82726C6.93698 7.90971 6.77054 8.02824 6.63221 8.1759C6.07066 8.73656 5.50669 9.30053 4.90794 9.90016C4.87866 9.93098 4.85115 9.96268 4.84564 9.9695L3.29264 8.44621C3.3547 8.36465 3.42082 8.28626 3.49075 8.21134C3.6039 8.0979 3.71697 7.98409 3.82997 7.86992L3.83151 7.86816C4.27903 7.41711 4.74196 6.95088 5.20665 6.50534C5.80654 5.92071 6.59852 5.57412 7.43502 5.53017C7.53517 5.52181 7.63665 5.5174 7.73681 5.5174C8.22234 5.51732 8.70285 5.61567 9.1493 5.80651C9.59575 5.99735 9.99888 6.27672 10.3343 6.62773L13.8672 10.1542C14.523 10.8004 14.9099 11.671 14.95 12.5908C14.99 13.5107 14.6803 14.4116 14.0831 15.1124C14.0275 15.1817 13.9671 15.2469 13.9022 15.3076L10.2976 18.9118C9.96004 19.2568 9.55688 19.5308 9.11185 19.7177C8.66681 19.9046 8.18889 20.0005 7.70621 19.9999H7.70643ZM14.7323 8.56949L12.2935 6.12914L13.8256 4.59705C14.2871 5.03656 14.6245 5.59001 14.8038 6.20156C15.0145 6.98052 14.9896 7.80445 14.7323 8.56927V8.56949Z" fill="#093F78"/>
<path d="M19.7141 13.6333C20.1117 15.0721 21.4179 16.2269 23.3867 16.2269C25.2798 16.2269 26.5482 15.0532 26.5482 13.2168C26.5482 11.9863 25.772 11.0776 24.2197 10.5286C22.6863 9.94177 22.213 9.58208 22.213 9.03308C22.213 8.48408 22.6674 8.12439 23.2731 8.12439C23.6006 8.11912 23.9237 8.20036 24.2097 8.35991C24.4957 8.51946 24.7346 8.75167 24.9021 9.03308L26.1326 7.91614C25.5458 6.9128 24.5424 6.38273 23.2551 6.38273C21.5892 6.38273 20.3397 7.51859 20.3397 8.99521C20.3397 10.415 21.1542 11.2101 22.6493 11.7591C23.9555 12.2703 24.656 12.6678 24.656 13.3304C24.656 14.0687 24.1259 14.4852 23.3876 14.4852C22.4221 14.4852 21.7217 13.9173 21.3241 12.7814L19.7141 13.6333ZM27.6273 16.0754H29.634V12.3649C29.634 9.65736 30.5805 8.12439 31.9246 8.12439C32.8333 8.12439 33.2687 8.61659 33.2687 9.69566V16.0754H35.2565V12.2135C35.2565 9.58208 36.2599 8.12439 37.5472 8.12439C38.4559 8.12439 38.8913 8.61659 38.8913 9.69566V16.0754H40.879V9.37383C40.879 7.4618 39.8946 6.38273 38.0772 6.38273C36.8846 6.38273 35.7866 7.1589 35.1055 8.38942C34.7269 7.04532 33.7614 6.38273 32.4551 6.38273C31.3004 6.38273 30.3538 6.98852 29.6344 8.20011V6.53418H27.6273V16.0754ZM41.8634 13.3304C41.8634 15.2046 43.094 16.2269 44.7788 16.2269C46.0472 16.2269 47.0316 15.7536 47.7321 14.7881L47.9971 16.0754H49.6062V10.1879C49.6062 7.7079 48.1675 6.38273 45.8011 6.38273C43.9648 6.38273 42.526 7.44287 42.2231 9.01415L43.9648 9.4117C44.2488 8.5598 44.8735 8.12439 45.8011 8.12439C46.8797 8.12439 47.6185 8.65445 47.6185 9.79032V10.2068H45.9526C43.4347 10.2068 41.8634 11.3805 41.8634 13.3304ZM47.6185 12.081C47.6276 12.396 47.573 12.7096 47.4578 13.0029C47.3425 13.2963 47.1692 13.5633 46.9481 13.7879C46.7271 14.0125 46.4629 14.19 46.1714 14.3099C45.8799 14.4297 45.5672 14.4894 45.2521 14.4852C44.4759 14.4852 43.9459 14.0119 43.9459 13.3115C43.9459 12.3271 44.6652 11.8349 46.0283 11.8349H47.6185V12.081ZM51.1397 16.0754H53.1463V12.5921C53.1463 9.62038 54.225 8.18118 55.7219 8.18118C56.1069 8.17378 56.4867 8.27199 56.8199 8.46514L57.1976 6.6099C56.802 6.46954 56.3867 6.39286 55.9671 6.38273C55.382 6.38479 54.809 6.54855 54.3112 6.85591C53.8134 7.16327 53.4103 7.60227 53.1463 8.12439V6.53418H51.1397V16.0754ZM58.8067 12.895C58.8067 15.1099 59.9994 16.2269 61.9872 16.2269C62.5303 16.2372 63.0684 16.1205 63.5584 15.8861L63.0852 14.2391C62.7794 14.411 62.4324 14.4961 62.0818 14.4852C61.2488 14.4852 60.8134 14.0498 60.8134 12.9329V8.27583H63.3506V6.53418H60.8134V2.67224L58.8067 3.94062V6.53418H57.2733V8.27583H58.8067V12.895ZM64.1453 16.0754H66.152V2.67224H64.1453V16.0754ZM67.9315 16.0754H69.9382V6.53418H67.9315V16.0754ZM71.6609 16.0754H73.6676V12.1571C73.6676 9.63931 74.7845 8.12483 76.1097 8.12483C77.0941 8.12483 77.6621 8.71169 77.6621 9.86648V16.0754H79.6498V9.33597C79.6498 7.44287 78.4761 6.38273 76.7155 6.38273C75.485 6.38273 74.3681 7.08318 73.6676 8.20011V6.53418H71.6609V16.0754ZM81.4293 16.0754H83.436V11.4184L87.0897 16.0754H89.5508L85.367 10.9262L89.2668 6.53418H86.8058L83.436 10.415V2.67224H81.4293V16.0754Z" fill="#093F78"/>
<path d="M67.5716 3.78922C67.5675 3.96686 67.5995 4.14347 67.6656 4.3084C67.7317 4.47332 67.8306 4.62313 67.9562 4.74877C68.0818 4.87441 68.2316 4.97326 68.3966 5.03936C68.5615 5.10546 68.7381 5.13742 68.9157 5.13333C69.0944 5.13781 69.272 5.10624 69.4382 5.04052C69.6043 4.9748 69.7555 4.87627 69.8828 4.75081C70.01 4.62536 70.1106 4.47555 70.1787 4.31033C70.2467 4.14512 70.2808 3.96789 70.2788 3.78922C70.2808 3.61056 70.2467 3.43333 70.1787 3.26812C70.1106 3.1029 70.01 2.95309 69.8828 2.82764C69.7555 2.70218 69.6043 2.60365 69.4382 2.53793C69.272 2.47221 69.0944 2.44064 68.9157 2.44512C68.7381 2.44102 68.5615 2.47299 68.3966 2.53909C68.2316 2.60519 68.0818 2.70404 67.9562 2.82968C67.8306 2.95532 67.7317 3.10513 67.6656 3.27005C67.5995 3.43498 67.5675 3.61159 67.5716 3.78922V3.78922Z" fill="#093F78"/>
</g>
<defs>
<clipPath id="clip0">
<rect width="89.1016" height="20" fill="white" transform="translate(0.449219)"/>
</clipPath>
</defs>
</svg>
