<svg width="309" height="211" viewBox="0 0 309 211" fill="none" xmlns="http://www.w3.org/2000/svg">
<g clip-path="url(#clip0)">
<path opacity="0.1" d="M171.24 34.7882C154.14 34.086 137.854 27.5623 122.302 20.4236C106.75 13.2848 91.336 5.37514 74.6535 1.59192C63.9184 -0.839593 51.643 -1.1828 42.9847 5.61803C34.6619 12.1654 31.9722 23.4649 30.527 33.9513C29.4384 41.8399 28.799 50.1429 31.7793 57.5272C33.8481 62.6542 37.5234 66.9654 40.0651 71.876C48.9084 88.9652 42.6571 110.036 33.0766 126.724C28.585 134.549 23.3667 142.017 19.8976 150.35C16.4285 158.682 14.8247 168.228 17.8605 176.727C20.8673 185.151 28.0354 191.479 35.8007 195.93C51.5717 204.97 70.1486 207.547 88.2764 209.023C128.389 212.265 168.719 210.871 208.941 209.456C223.824 208.928 238.776 208.4 253.419 205.686C261.551 204.175 269.945 201.778 275.848 195.989C283.343 188.641 285.201 176.188 280.178 166.985C271.755 151.53 248.472 147.691 242.578 131.103C239.339 121.974 242.665 111.804 247.376 103.338C257.477 85.174 274.413 69.2385 275.303 48.477C275.916 34.2206 267.776 19.9378 255.189 13.1924C241.997 6.11964 223.7 7.00935 213.971 18.7154C203.952 30.77 186.34 35.4086 171.24 34.7882Z" fill="#206CFF"/>
<path opacity="0.1" d="M208 44H79V173H208V44Z" fill="#206CFF"/>
<path d="M212 38H83V167H212V38Z" fill="white"/>
<path opacity="0.5" d="M198 53H96V57H198V53Z" fill="#206CFF"/>
<path opacity="0.1" d="M161 81H96V84H161V81Z" fill="black"/>
<path opacity="0.1" d="M159 107H96V110H159V107Z" fill="black"/>
<path opacity="0.1" d="M182 120H96V123H182V120Z" fill="black"/>
<path opacity="0.1" d="M95.5264 206.335C90.1655 206.921 87.3728 205.625 87.3728 205.625C86.9288 205.353 86.5489 204.988 86.2593 204.556C85.9697 204.123 85.7772 203.633 85.695 203.119C85.4123 201.361 82.72 199.584 82.72 199.584C82.72 199.584 79.4041 199.906 78.9972 198.935C78.8994 198.523 78.862 198.098 78.8862 197.676C80.1122 197.969 82.9366 198.642 83.8112 198.893C84.9473 199.215 88.2658 204.593 88.2658 204.593C91.4602 206.272 96.7471 204.117 98.6019 203.273C98.8582 204.563 98.3271 206.029 95.5264 206.335Z" fill="black"/>
<path opacity="0.1" d="M71.7841 196.973C71.7841 196.973 70.1512 199.476 77.9773 198.182L71.7841 196.973Z" fill="black"/>
<path opacity="0.1" d="M84.2022 193.771C84.2022 193.771 92.4562 195.563 90.7547 192.084L84.2022 193.771Z" fill="black"/>
<g opacity="0.1">
<path opacity="0.1" d="M44.57 51.2571C44.5247 51.3738 44.5101 51.5001 44.5277 51.6241C44.5623 51.7666 44.6515 51.8898 44.7761 51.9673L45.3335 51.6082C45.1856 51.6344 45.0332 51.6148 44.8968 51.5521C44.7603 51.4893 44.6463 51.3864 44.57 51.2571Z" fill="black"/>
<path opacity="0.1" d="M43.0587 49.7073C43.3889 49.7892 43.735 49.8156 44.0547 49.9212C44.3217 49.992 44.5502 50.1645 44.6915 50.4017C44.7369 50.2859 44.7515 50.1604 44.7338 50.0373C44.681 49.8877 44.591 49.7539 44.4722 49.6485C44.3534 49.5432 44.2098 49.4699 44.0547 49.4354C43.735 49.3298 43.3889 49.3034 43.0587 49.2216C42.7368 49.1411 42.4318 49.0043 42.1577 48.8176C41.9969 48.8237 41.837 48.8432 41.6795 48.8757C42.0423 49.2885 42.524 49.579 43.0587 49.7073Z" fill="black"/>
<path opacity="0.1" d="M44.2159 65.0725C43.7102 65.9824 43.2764 66.9304 42.9186 67.9079C42.4774 67.4459 42.6386 66.7489 42.3532 66.2051C42.201 65.9596 42.0239 65.7305 41.8248 65.5213C41.3746 64.9692 41.1143 64.287 41.0823 63.5756C41.0092 64.4511 41.2749 65.3214 41.8248 66.0071C42.0239 66.2163 42.201 66.4454 42.3532 66.6908C42.6386 67.2347 42.4774 67.929 42.9186 68.3937C43.2544 67.4796 43.6562 66.5911 44.1208 65.7351C44.1787 65.5188 44.2106 65.2963 44.2159 65.0725Z" fill="black"/>
<path opacity="0.1" d="M42.0308 56.5293C41.984 56.6335 41.9648 56.7481 41.9754 56.8619C41.9905 56.943 42.0245 57.0193 42.0745 57.0849C42.1245 57.1504 42.1892 57.2034 42.2634 57.2395C42.3737 57.0788 42.4965 56.9269 42.6306 56.7854C42.5165 56.82 42.3938 56.8133 42.2841 56.7664C42.1744 56.7196 42.0847 56.6356 42.0308 56.5293Z" fill="black"/>
<path opacity="0.1" d="M57.6697 46.13C57.6812 45.923 57.714 45.7178 57.7675 45.5175C57.8626 45.1796 58.0106 44.8364 57.9181 44.4932C57.8811 44.6727 57.8177 44.8549 57.7675 45.0212C57.6693 45.3821 57.6362 45.7575 57.6697 46.13Z" fill="black"/>
<path opacity="0.1" d="M48.771 45.8344C48.7413 46.1415 48.7655 46.4515 48.8428 46.7505C48.8735 46.4433 48.8492 46.1331 48.771 45.8344Z" fill="black"/>
<path opacity="0.1" d="M43.9173 57.4111C43.7984 58.0527 43.0851 58.5781 42.3321 58.5913C42.1654 58.6044 42 58.5534 41.8697 58.4487L41.8459 58.5015C41.8129 58.5613 41.7943 58.628 41.7916 58.6963C41.7888 58.7646 41.802 58.8325 41.83 58.8949C41.8936 58.9623 41.9722 59.0137 42.0595 59.0449C42.1467 59.0761 42.2401 59.0862 42.3321 59.0744C42.6439 59.0691 42.949 58.9826 43.2172 58.8236C43.3731 58.6309 43.5316 58.4408 43.6875 58.2533C43.7701 58.1584 43.846 58.0578 43.9147 57.9523C43.9203 57.9342 43.9248 57.9157 43.9279 57.8969V57.9101C43.9837 57.8383 44.0131 57.7496 44.0112 57.6587C44.0093 57.5679 43.9761 57.4805 43.9173 57.4111Z" fill="black"/>
<path opacity="0.1" d="M43.2938 53.4695C43.2325 53.5248 43.1881 53.5962 43.1657 53.6756C43.1433 53.755 43.1437 53.8391 43.167 53.9183L43.4153 53.9896L43.6954 53.5856L43.2938 53.4695Z" fill="black"/>
<path opacity="0.1" d="M67.1867 58.1028C67.1075 58.2031 66.9965 58.2849 66.9067 58.3668C66.5289 58.776 66.661 59.37 66.4813 59.8663C66.4531 59.9611 66.4034 60.048 66.336 60.1204C66.2686 60.1927 66.1854 60.2485 66.0929 60.2835C65.8075 60.3732 65.5063 60.2016 65.2659 60.0406L64.2672 59.3621C64.3068 59.5469 64.3438 59.7343 64.3781 59.9218L65.2659 60.5237C65.5063 60.6874 65.8075 60.859 66.0929 60.7692C66.1852 60.734 66.2682 60.678 66.3355 60.6057C66.4029 60.5334 66.4527 60.4467 66.4813 60.3521C66.661 59.8558 66.5289 59.2618 66.9067 58.8525C66.9965 58.7549 67.1075 58.6757 67.1867 58.5753C67.2561 58.4688 67.3021 58.3488 67.3216 58.2232C67.3412 58.0976 67.334 57.9693 67.3004 57.8467C67.2826 57.9396 67.2437 58.0272 67.1867 58.1028Z" fill="black"/>
<path opacity="0.1" d="M64.6001 62.2028C64.589 62.3234 64.5549 62.4408 64.4997 62.5486C64.2909 62.9341 63.7942 63.1321 63.3345 63.2984L62.4679 63.6152C62.3205 63.6785 62.163 63.7151 62.0028 63.7235C61.8784 63.718 61.7568 63.6843 61.6474 63.6248C61.538 63.5653 61.4436 63.4817 61.3714 63.3803C61.2454 63.1898 61.1558 62.9776 61.1072 62.7546L60.4466 60.228C60.3145 59.7264 60.1137 59.1482 59.5483 58.9608C59.3845 58.9238 59.223 58.877 59.0648 58.8208C58.7134 58.6519 58.6394 58.2611 58.5363 57.9338C58.2721 57.1682 57.5667 56.5609 56.8031 56.0857C56.2863 55.7258 55.6733 55.529 55.0434 55.5208C54.7055 55.5257 54.3789 55.6438 54.116 55.856C53.6748 56.2283 53.6352 56.7061 53.6695 57.2236C53.6796 57.0535 53.7245 56.8874 53.8013 56.7353C53.878 56.5832 53.9852 56.4484 54.116 56.3392C54.3801 56.1291 54.7059 56.0113 55.0434 56.0039C55.6729 56.0145 56.2852 56.2111 56.8031 56.5689C57.5667 57.0362 58.2616 57.6434 58.5363 58.4169C58.6526 58.7443 58.7266 59.135 59.0648 59.304C59.223 59.3602 59.3845 59.4069 59.5483 59.4439C60.1137 59.6313 60.3145 60.2095 60.4466 60.7111L61.1072 63.2351C61.1551 63.4584 61.2447 63.6706 61.3714 63.8608C61.443 63.9629 61.5372 64.0473 61.6467 64.1073C61.7562 64.1672 61.8781 64.2012 62.0028 64.2066C62.1628 64.197 62.3201 64.1604 62.4679 64.0984L63.3292 63.7868C63.7889 63.6205 64.2857 63.4225 64.4944 63.037C64.6039 62.7883 64.6405 62.5137 64.6001 62.245C64.6027 62.2397 64.6027 62.2239 64.6001 62.2028Z" fill="black"/>
<path opacity="0.1" d="M68.2278 55.6026C68.2394 55.8628 68.1722 56.1205 68.0349 56.3419C67.9482 56.4579 67.8256 56.5422 67.6862 56.5818C67.5468 56.6214 67.3982 56.6141 67.2634 56.561C67.2255 56.735 67.2255 56.915 67.2634 57.089V57.0521C67.3982 57.1052 67.5468 57.1125 67.6862 57.0729C67.8256 57.0333 67.9482 56.949 68.0349 56.8329C68.1719 56.6114 68.2391 56.3539 68.2278 56.0937C68.2515 55.6634 68.27 55.2225 68.2595 54.7869C68.2542 55.0535 68.241 55.3386 68.2278 55.6026Z" fill="black"/>
<path opacity="0.1" d="M48.8265 61.5375C48.5789 62.7296 48.1922 63.8886 47.6745 64.9907C47.4473 65.4289 47.1091 65.8989 46.5542 65.986C46.3868 65.9928 46.2208 66.0203 46.0601 66.0679C45.9507 66.1271 45.8553 66.209 45.7801 66.3081C45.4762 66.6513 44.9874 67.013 44.5277 66.8361C44.4187 66.7938 44.3223 66.7242 44.2478 66.6341C44.1734 66.544 44.1233 66.4363 44.1023 66.3213C44.1023 66.3847 44.0812 66.4454 44.0759 66.5061C44.0522 66.6727 44.0834 66.8424 44.165 66.9897C44.2465 67.1369 44.3738 67.2535 44.5277 67.3219C44.9927 67.4935 45.4762 67.1292 45.7801 66.7939C45.8561 66.6963 45.9514 66.6154 46.0601 66.5563C46.2202 66.5062 46.3865 66.4787 46.5542 66.4744C47.1091 66.3873 47.4473 65.9174 47.6745 65.4791C48.1693 64.4335 48.5408 63.3341 48.7816 62.2028C48.7819 61.9803 48.7969 61.758 48.8265 61.5375Z" fill="black"/>
<path opacity="0.1" d="M51.7038 58.9872C51.4893 60.5931 51.1581 62.1814 50.7129 63.7393C50.6587 64.0109 50.5318 64.2628 50.3457 64.468C50.2374 64.5759 50.0994 64.6492 49.9493 64.6783C49.7991 64.7075 49.6437 64.6913 49.5028 64.6317C49.3413 64.5277 49.2223 64.3694 49.1673 64.1855C48.9487 63.6373 48.8237 63.0563 48.7974 62.4668C48.763 63.2202 48.8919 63.9722 49.1752 64.6713C49.2301 64.856 49.3491 65.0151 49.5108 65.1201C49.6517 65.179 49.807 65.1948 49.957 65.1657C50.107 65.1366 50.245 65.0638 50.3536 64.9564C50.5393 64.7509 50.6661 64.4992 50.7209 64.2277C51.1439 62.746 51.4635 61.2366 51.6773 59.7106L51.7038 58.9872Z" fill="black"/>
<path opacity="0.1" d="M53.7488 59.6735C53.6193 60.1091 53.3366 60.5104 53.2864 60.9592C53.2692 61.1039 53.2692 61.2502 53.2864 61.3949C53.3498 60.9672 53.6167 60.5791 53.7408 60.1593C53.8247 59.8526 53.8525 59.5333 53.8228 59.2168C53.8137 59.3712 53.7889 59.5242 53.7488 59.6735Z" fill="black"/>
<path opacity="0.1" d="M52.6549 62.8786C52.6179 62.6621 52.3009 62.5908 52.0842 62.472C51.9336 62.3748 51.8102 62.241 51.7256 62.083C51.641 61.9251 51.5981 61.7482 51.6007 61.5691V61.6298C51.5769 62.1156 51.6007 62.6858 52.0869 62.9498C52.3035 63.0686 52.6153 63.1373 52.6576 63.3564C52.8488 63.3163 53.0208 63.2124 53.1451 63.0618C53.2695 62.9111 53.3389 62.7227 53.3419 62.5274C53.348 62.4023 53.3436 62.2769 53.3287 62.1525C53.3091 62.3297 53.233 62.4959 53.1117 62.6267C52.9904 62.7574 52.8303 62.8457 52.6549 62.8786Z" fill="black"/>
</g>
<g opacity="0.1">
<path opacity="0.1" d="M237.838 178.831C241.888 184.805 240.594 206.195 240.594 206.195C240.594 206.195 220.249 199.463 216.185 193.488C215.222 192.067 214.549 190.47 214.203 188.788C213.858 187.107 213.847 185.373 214.172 183.688C214.828 180.283 216.811 177.279 219.684 175.335C222.557 173.391 226.085 172.668 229.492 173.323C232.899 173.979 235.906 175.96 237.851 178.831H237.838Z" fill="#206CFF"/>
<path opacity="0.1" d="M237.838 178.831C241.888 184.805 240.594 206.195 240.594 206.195C240.594 206.195 220.249 199.463 216.185 193.488C215.222 192.067 214.549 190.47 214.203 188.788C213.858 187.107 213.847 185.373 214.172 183.688C214.828 180.283 216.811 177.279 219.684 175.335C222.557 173.391 226.085 172.668 229.492 173.323C232.899 173.979 235.906 175.96 237.851 178.831H237.838Z" fill="black"/>
<path opacity="0.1" d="M219.758 175.356C219.758 175.356 235.013 187.126 240.673 206.211" stroke="#535461" stroke-miterlimit="10"/>
<path opacity="0.1" d="M244.514 189.998C244.514 189.998 233.682 188.15 241.08 206.079C241.08 206.079 248.607 203.214 249.194 196.081C249.311 194.693 248.914 193.31 248.079 192.195C247.244 191.08 246.028 190.309 244.662 190.03L244.514 189.998Z" fill="#206CFF"/>
<path opacity="0.1" d="M244.676 189.982C244.676 189.982 246.739 199.898 241.093 206.087" stroke="#535461" stroke-miterlimit="10"/>
</g>
<g opacity="0.1">
<path opacity="0.1" d="M125.961 160.942C125.961 160.942 142.232 119.492 173.338 103.813C186.395 97.2339 197.133 86.8109 203.63 73.7161C206.702 67.5012 209.198 61.0183 211.086 54.3485" stroke="#535461" stroke-width="2" stroke-miterlimit="10"/>
<path opacity="0.1" d="M230.63 44.3506C227.417 48.4876 210.608 54.6653 210.608 54.6653C210.608 54.6653 212.431 36.8607 215.644 32.7263C216.397 31.7149 217.344 30.8638 218.431 30.2227C219.517 29.5817 220.721 29.1637 221.971 28.9932C223.221 28.8227 224.492 28.9031 225.711 29.2297C226.93 29.5563 228.071 30.1225 229.068 30.8952C230.064 31.6679 230.897 32.6316 231.517 33.7298C232.136 34.8281 232.53 36.0387 232.676 37.291C232.821 38.5433 232.715 39.812 232.364 41.0228C232.013 42.2336 231.423 43.3623 230.63 44.3426V44.3506Z" fill="#206CFF"/>
<path opacity="0.1" d="M225.219 76.8657C220.273 78.5923 202.8 74.648 202.8 74.648C202.8 74.648 214.016 60.6952 218.962 58.9686C220.138 58.5581 221.384 58.3831 222.628 58.4536C223.871 58.524 225.089 58.8386 226.211 59.3793C227.333 59.9199 228.338 60.6762 229.167 61.6048C229.997 62.5334 230.635 63.6161 231.046 64.7913C231.457 65.9664 231.632 67.2109 231.562 68.4537C231.491 69.6964 231.176 70.9132 230.635 72.0344C230.094 73.1556 229.337 74.1593 228.408 74.9883C227.479 75.8172 226.395 76.4552 225.219 76.8657Z" fill="#206CFF"/>
<path opacity="0.1" d="M194.266 115.588C189.122 114.584 176.035 102.366 176.035 102.366C176.035 102.366 192.768 95.9772 197.91 96.983C199.132 97.2219 200.296 97.6991 201.334 98.3872C202.372 99.0754 203.264 99.9611 203.959 100.994C204.655 102.027 205.14 103.186 205.387 104.406C205.634 105.626 205.638 106.883 205.399 108.104C205.16 109.326 204.682 110.489 203.994 111.526C203.305 112.563 202.418 113.454 201.385 114.149C200.351 114.844 199.191 115.329 197.97 115.576C196.749 115.822 195.491 115.827 194.269 115.588H194.266Z" fill="#206CFF"/>
<path opacity="0.1" d="M164.241 139.618C159.004 139.496 144.036 129.665 144.036 129.665C144.036 129.665 159.445 120.543 164.685 120.665C165.93 120.694 167.158 120.968 168.297 121.471C169.437 121.974 170.466 122.696 171.326 123.597C172.186 124.498 172.86 125.559 173.31 126.719C173.759 127.88 173.976 129.118 173.947 130.363C173.918 131.607 173.643 132.834 173.14 133.972C172.636 135.111 171.913 136.139 171.012 136.999C170.111 137.858 169.049 138.532 167.887 138.981C166.725 139.43 165.486 139.647 164.241 139.618Z" fill="#206CFF"/>
<path opacity="0.1" d="M186.453 63.2587C187.183 68.4412 198.692 82.1537 198.692 82.1537C198.692 82.1537 205.971 65.8011 205.242 60.616C204.856 58.1576 203.518 55.9493 201.517 54.4678C199.516 52.9864 197.012 52.3504 194.546 52.6973C192.08 53.0442 189.849 54.3461 188.335 56.322C186.821 58.2979 186.145 60.7894 186.453 63.2587Z" fill="#206CFF"/>
<path opacity="0.1" d="M151.691 91.79C153.939 96.5237 169.015 106.163 169.015 106.163C169.015 106.163 171.065 88.3817 168.814 83.6533C168.28 82.5291 167.529 81.5212 166.604 80.6871C165.68 79.8529 164.6 79.2089 163.426 78.7918C162.252 78.3746 161.008 78.1926 159.764 78.256C158.52 78.3193 157.301 78.627 156.176 79.1612C155.051 79.6955 154.042 80.4459 153.207 81.3697C152.372 82.2935 151.728 83.3726 151.31 84.5453C150.893 85.718 150.711 86.9613 150.774 88.2044C150.837 89.4474 151.145 90.6658 151.68 91.79H151.691Z" fill="#206CFF"/>
<path opacity="0.1" d="M121.721 124.168C123.137 129.208 136.379 141.262 136.379 141.262C136.379 141.262 141.399 124.083 139.988 119.044C139.281 116.655 137.661 114.64 135.478 113.436C133.296 112.231 130.727 111.933 128.326 112.607C125.926 113.28 123.887 114.871 122.651 117.034C121.415 119.197 121.081 121.76 121.721 124.168Z" fill="#206CFF"/>
</g>
<g opacity="0.1">
<path opacity="0.1" d="M123.269 86.2855C123.269 86.2855 129.148 71.3084 140.385 65.648C145.114 63.3024 148.954 59.4876 151.329 54.7762C152.439 52.5313 153.341 50.1895 154.024 47.78" stroke="#535461" stroke-width="2" stroke-miterlimit="10"/>
<path opacity="0.1" d="M161.089 44.1711C159.926 45.6653 153.854 47.8962 153.854 47.8962C153.854 47.8962 154.512 41.465 155.675 39.976C155.936 39.5827 156.276 39.2475 156.672 38.9913C157.069 38.7351 157.515 38.5634 157.981 38.4869C158.447 38.4105 158.924 38.431 159.382 38.5471C159.839 38.6632 160.268 38.8724 160.642 39.1616C161.015 39.4509 161.325 39.814 161.551 40.2282C161.778 40.6424 161.916 41.0988 161.958 41.569C162 42.0391 161.944 42.5129 161.795 42.9606C161.645 43.4083 161.405 43.8204 161.089 44.1711Z" fill="#206CFF"/>
<path opacity="0.1" d="M159.128 55.9168C157.342 56.5398 151.03 55.1248 151.03 55.1248C151.03 55.1248 155.08 50.0822 156.867 49.4592C157.299 49.2751 157.765 49.1817 158.235 49.1849C158.705 49.1881 159.17 49.2877 159.6 49.4775C160.03 49.6674 160.417 49.9435 160.736 50.2887C161.055 50.6339 161.299 51.0409 161.455 51.4845C161.61 51.928 161.672 52.3987 161.638 52.8673C161.603 53.3359 161.473 53.7925 161.255 54.2087C161.037 54.625 160.736 54.9921 160.37 55.2873C160.004 55.5824 159.581 55.7994 159.128 55.9247V55.9168Z" fill="#206CFF"/>
<path opacity="0.1" d="M147.944 69.9065C146.094 69.5422 141.36 65.128 141.36 65.128C141.36 65.128 147.402 62.8206 149.26 63.1849C149.725 63.2456 150.174 63.401 150.577 63.6416C150.98 63.8823 151.33 64.203 151.604 64.5839C151.878 64.9649 152.071 65.398 152.172 65.8565C152.272 66.3149 152.277 66.7891 152.186 67.2496C152.096 67.71 151.912 68.1471 151.645 68.5337C151.379 68.9203 151.036 69.2482 150.638 69.4972C150.24 69.7462 149.795 69.911 149.331 69.9814C148.867 70.0518 148.393 70.0263 147.939 69.9065H147.944Z" fill="#206CFF"/>
<path opacity="0.1" d="M137.098 78.5871C135.206 78.5422 129.8 74.9913 129.8 74.9913C129.8 74.9913 135.367 71.6939 137.259 71.7387C138.129 71.8148 138.937 72.2189 139.519 72.869C140.102 73.5191 140.414 74.3663 140.394 75.2385C140.373 76.1106 140.021 76.9422 139.409 77.5642C138.797 78.1863 137.97 78.552 137.098 78.5871Z" fill="#206CFF"/>
<path opacity="0.1" d="M145.12 50.9957C145.384 52.8675 149.542 57.8229 149.542 57.8229C149.542 57.8229 152.185 51.9144 151.92 50.0426C151.886 49.5739 151.756 49.1173 151.538 48.701C151.319 48.2846 151.018 47.9175 150.652 47.6224C150.286 47.3272 149.863 47.1103 149.41 46.9851C148.957 46.8598 148.483 46.829 148.017 46.8944C147.551 46.9597 147.104 47.12 146.703 47.3652C146.301 47.6104 145.955 47.9354 145.684 48.3199C145.414 48.7044 145.226 49.1403 145.131 49.6006C145.036 50.0609 145.036 50.5357 145.133 50.9957H145.12Z" fill="#206CFF"/>
<path opacity="0.1" d="M132.553 61.3078C133.367 63.0159 138.818 66.5008 138.818 66.5008C138.818 66.5008 139.558 60.0775 138.744 58.3694C138.318 57.6112 137.619 57.043 136.79 56.7796C135.96 56.5162 135.062 56.5773 134.276 56.9504C133.49 57.3236 132.874 57.981 132.555 58.7898C132.235 59.5987 132.235 60.4986 132.553 61.3078Z" fill="#206CFF"/>
<path opacity="0.1" d="M121.737 73.006C122.249 74.825 127.021 79.1811 127.021 79.1811C127.021 79.1811 128.854 72.9743 128.326 71.1527C128.225 70.6973 128.032 70.2674 127.759 69.8891C127.486 69.5108 127.138 69.1921 126.738 68.9525C126.337 68.7128 125.892 68.5573 125.429 68.4953C124.967 68.4333 124.496 68.4662 124.047 68.592C123.597 68.7177 123.178 68.9337 122.815 69.2267C122.452 69.5198 122.152 69.8837 121.935 70.2963C121.717 70.7089 121.586 71.1615 121.549 71.6265C121.512 72.0915 121.571 72.5591 121.721 73.0007L121.737 73.006Z" fill="#206CFF"/>
</g>
<g opacity="0.1">
<path opacity="0.1" d="M172.78 210.512C172.78 210.512 173.029 194.428 181.565 185.188C185.173 181.336 187.431 176.419 188.002 171.174C188.253 168.682 188.275 166.173 188.068 163.677" stroke="#535461" stroke-width="2" stroke-miterlimit="10"/>
<path opacity="0.1" d="M193.413 157.824C192.85 159.621 187.946 163.846 187.946 163.846C187.946 163.846 186.308 157.589 186.871 155.783C187.187 154.974 187.799 154.315 188.582 153.939C189.365 153.563 190.262 153.497 191.092 153.756C191.922 154.014 192.623 154.577 193.053 155.332C193.484 156.086 193.612 156.976 193.413 157.821V157.824Z" fill="#206CFF"/>
<path opacity="0.1" d="M195.701 169.509C194.245 170.718 187.835 171.597 187.835 171.597C187.835 171.597 189.859 165.456 191.315 164.244C192.02 163.731 192.894 163.505 193.76 163.613C194.626 163.72 195.418 164.153 195.977 164.823C196.535 165.493 196.817 166.35 196.766 167.22C196.714 168.09 196.334 168.909 195.701 169.509Z" fill="#206CFF"/>
<path opacity="0.1" d="M190.152 186.526C188.284 186.838 182.308 184.362 182.308 184.362C182.308 184.362 187.159 180.082 189.024 179.771C189.892 179.684 190.76 179.93 191.452 180.46C192.145 180.989 192.61 181.761 192.754 182.621C192.897 183.48 192.708 184.362 192.225 185.087C191.742 185.812 191.001 186.327 190.152 186.526Z" fill="#206CFF"/>
<path opacity="0.1" d="M183.019 198.457C181.23 199.077 174.92 197.646 174.92 197.646C174.92 197.646 178.989 192.622 180.775 191.989C181.209 191.802 181.677 191.706 182.149 191.708C182.621 191.71 183.088 191.809 183.521 191.999C183.953 192.19 184.341 192.467 184.662 192.814C184.982 193.161 185.227 193.57 185.381 194.016C185.536 194.462 185.597 194.935 185.561 195.406C185.524 195.877 185.391 196.335 185.169 196.751C184.947 197.168 184.642 197.535 184.272 197.828C183.902 198.122 183.475 198.336 183.019 198.457Z" fill="#206CFF"/>
<path opacity="0.1" d="M180.86 169.807C181.763 171.47 187.397 174.651 187.397 174.651C187.397 174.651 187.785 168.199 186.868 166.536C186.401 165.801 185.673 165.272 184.83 165.053C183.987 164.835 183.093 164.945 182.328 165.36C181.563 165.776 180.985 166.466 180.71 167.292C180.435 168.117 180.484 169.016 180.847 169.807H180.86Z" fill="#206CFF"/>
<path opacity="0.1" d="M172.714 183.865C174.075 185.185 180.403 186.532 180.403 186.532C180.403 186.532 178.841 180.259 177.481 178.942C176.813 178.393 175.964 178.115 175.101 178.164C174.238 178.214 173.426 178.586 172.825 179.207C172.225 179.829 171.882 180.653 171.863 181.517C171.844 182.38 172.152 183.219 172.725 183.865H172.714Z" fill="#206CFF"/>
<path opacity="0.1" d="M166.685 198.613C167.802 200.139 173.819 202.541 173.819 202.541C173.819 202.541 173.34 196.092 172.233 194.566C171.673 193.898 170.88 193.469 170.014 193.364C169.148 193.259 168.276 193.488 167.572 194.003C166.869 194.517 166.388 195.28 166.226 196.136C166.065 196.992 166.235 197.878 166.703 198.613H166.685Z" fill="#206CFF"/>
</g>
<g opacity="0.1">
<path opacity="0.1" d="M133.161 207.982C133.161 207.982 133.41 191.896 141.946 182.656C145.554 178.805 147.812 173.887 148.383 168.643C148.634 166.151 148.656 163.643 148.449 161.147" stroke="#535461" stroke-width="2" stroke-miterlimit="10"/>
<path opacity="0.1" d="M153.794 155.292C153.231 157.098 148.327 161.316 148.327 161.316C148.327 161.316 146.689 155.062 147.252 153.256C147.359 152.797 147.56 152.365 147.842 151.987C148.124 151.609 148.481 151.293 148.891 151.059C149.301 150.825 149.754 150.678 150.223 150.627C150.692 150.575 151.167 150.621 151.617 150.761C152.068 150.902 152.485 151.133 152.842 151.441C153.199 151.75 153.489 152.128 153.693 152.553C153.897 152.978 154.011 153.441 154.029 153.912C154.046 154.383 153.966 154.853 153.794 155.292Z" fill="#206CFF"/>
<path opacity="0.1" d="M156.087 166.977C154.631 168.188 148.221 169.065 148.221 169.065C148.221 169.065 150.245 162.924 151.701 161.715C152.406 161.206 153.279 160.984 154.142 161.093C155.005 161.201 155.794 161.633 156.351 162.301C156.907 162.969 157.19 163.823 157.141 164.691C157.092 165.559 156.715 166.376 156.087 166.977Z" fill="#206CFF"/>
<path opacity="0.1" d="M150.52 183.997C148.652 184.306 142.676 181.83 142.676 181.83C142.676 181.83 147.527 177.55 149.392 177.241C149.849 177.134 150.324 177.121 150.787 177.204C151.25 177.288 151.69 177.465 152.082 177.725C152.473 177.985 152.807 178.323 153.062 178.717C153.317 179.112 153.489 179.554 153.567 180.017C153.644 180.481 153.625 180.955 153.512 181.411C153.398 181.867 153.192 182.294 152.907 182.667C152.621 183.04 152.262 183.351 151.852 183.58C151.441 183.809 150.988 183.951 150.52 183.997Z" fill="#206CFF"/>
<path opacity="0.1" d="M143.41 195.925C141.621 196.548 135.312 195.115 135.312 195.115C135.312 195.115 139.37 190.08 141.156 189.454C141.589 189.271 142.055 189.178 142.526 189.181C142.996 189.185 143.46 189.285 143.89 189.476C144.32 189.666 144.707 189.942 145.025 190.288C145.344 190.634 145.588 191.041 145.743 191.485C145.897 191.929 145.959 192.399 145.924 192.868C145.889 193.337 145.758 193.793 145.54 194.209C145.321 194.625 145.019 194.992 144.653 195.287C144.287 195.581 143.864 195.798 143.41 195.922V195.925Z" fill="#206CFF"/>
<path opacity="0.1" d="M141.241 167.278C142.144 168.941 147.778 172.122 147.778 172.122C147.778 172.122 148.166 165.67 147.249 164.007C147.059 163.569 146.78 163.177 146.43 162.853C146.08 162.53 145.666 162.283 145.215 162.128C144.764 161.973 144.286 161.913 143.811 161.953C143.335 161.993 142.874 162.131 142.455 162.359C142.036 162.587 141.67 162.9 141.378 163.277C141.087 163.655 140.878 164.089 140.764 164.551C140.649 165.014 140.633 165.495 140.715 165.965C140.797 166.434 140.976 166.881 141.241 167.278Z" fill="#206CFF"/>
<path opacity="0.1" d="M133.1 181.333C134.461 182.654 140.789 184.003 140.789 184.003C140.789 184.003 139.228 177.727 137.867 176.412C137.554 176.056 137.17 175.768 136.739 175.568C136.309 175.367 135.842 175.257 135.367 175.246C134.893 175.235 134.421 175.322 133.981 175.502C133.542 175.683 133.145 175.952 132.815 176.293C132.486 176.635 132.23 177.04 132.065 177.485C131.9 177.93 131.83 178.404 131.857 178.878C131.885 179.352 132.011 179.814 132.227 180.237C132.442 180.66 132.744 181.033 133.111 181.333H133.1Z" fill="#206CFF"/>
<path opacity="0.1" d="M127.066 196.081C128.183 197.607 134.2 200.009 134.2 200.009C134.2 200.009 133.721 193.56 132.614 192.034C132.362 191.637 132.031 191.297 131.642 191.033C131.253 190.77 130.813 190.589 130.351 190.502C129.889 190.415 129.415 190.424 128.956 190.528C128.498 190.632 128.065 190.829 127.686 191.106C127.307 191.384 126.989 191.736 126.751 192.142C126.514 192.547 126.362 192.997 126.306 193.463C126.249 193.93 126.289 194.402 126.423 194.853C126.557 195.303 126.782 195.721 127.084 196.081H127.066Z" fill="#206CFF"/>
</g>
</g>
<path opacity="0.3" d="M144.5 109C148.642 109 152 105.642 152 101.5C152 97.3579 148.642 94 144.5 94C140.358 94 137 97.3579 137 101.5C137 105.642 140.358 109 144.5 109Z" fill="#206CFF"/>
<path d="M144.5 105C146.433 105 148 103.433 148 101.5C148 99.567 146.433 98 144.5 98C142.567 98 141 99.567 141 101.5C141 103.433 142.567 105 144.5 105Z" fill="#2F2E41"/>
<path opacity="0.3" d="M162.5 129C166.642 129 170 125.642 170 121.5C170 117.358 166.642 114 162.5 114C158.358 114 155 117.358 155 121.5C155 125.642 158.358 129 162.5 129Z" fill="#206CFF"/>
<path opacity="0.3" d="M113.5 126C117.642 126 121 122.642 121 118.5C121 114.358 117.642 111 113.5 111C109.358 111 106 114.358 106 118.5C106 122.642 109.358 126 113.5 126Z" fill="#206CFF"/>
<path d="M113.5 122C115.433 122 117 120.433 117 118.5C117 116.567 115.433 115 113.5 115C111.567 115 110 116.567 110 118.5C110 120.433 111.567 122 113.5 122Z" fill="#2F2E41"/>
<path d="M162.5 125C164.433 125 166 123.433 166 121.5C166 119.567 164.433 118 162.5 118C160.567 118 159 119.567 159 121.5C159 123.433 160.567 125 162.5 125Z" fill="#2F2E41"/>
<path d="M299.5 67C301.433 67 303 65.433 303 63.5C303 61.567 301.433 60 299.5 60C297.567 60 296 61.567 296 63.5C296 65.433 297.567 67 299.5 67Z" fill="#206CFF"/>
<path d="M144.741 101H144V63H291V63.738H144.741V101Z" fill="#2F2E41"/>
<path d="M299.5 73C297.621 73 295.784 72.4428 294.222 71.399C292.66 70.3551 291.442 68.8714 290.723 67.1355C290.004 65.3996 289.816 63.4895 290.183 61.6466C290.549 59.8038 291.454 58.1111 292.782 56.7825C294.111 55.4539 295.804 54.5491 297.647 54.1825C299.489 53.816 301.4 54.0041 303.136 54.7231C304.871 55.4422 306.355 56.6598 307.399 58.2221C308.443 59.7844 309 61.6211 309 63.5C308.997 66.0187 307.995 68.4334 306.214 70.2144C304.433 71.9954 302.019 72.9972 299.5 73ZM299.5 54.7308C297.766 54.7308 296.07 55.2451 294.628 56.2087C293.186 57.1722 292.062 58.5418 291.398 60.1442C290.735 61.7465 290.561 63.5097 290.899 65.2108C291.238 66.9119 292.073 68.4744 293.299 69.7008C294.526 70.9272 296.088 71.7624 297.789 72.1007C299.49 72.4391 301.253 72.2654 302.856 71.6017C304.458 70.938 305.828 69.814 306.791 68.3719C307.755 66.9298 308.269 65.2344 308.269 63.5C308.267 61.1751 307.342 58.9461 305.698 57.3022C304.054 55.6582 301.825 54.7334 299.5 54.7308V54.7308Z" fill="#2F2E41"/>
<path d="M277.5 163C279.433 163 281 161.433 281 159.5C281 157.567 279.433 156 277.5 156C275.567 156 274 157.567 274 159.5C274 161.433 275.567 163 277.5 163Z" fill="#206CFF"/>
<path d="M277.5 169C275.621 169 273.784 168.443 272.222 167.399C270.66 166.355 269.442 164.871 268.723 163.136C268.004 161.4 267.816 159.489 268.183 157.647C268.549 155.804 269.454 154.111 270.782 152.782C272.111 151.454 273.804 150.549 275.647 150.183C277.489 149.816 279.4 150.004 281.136 150.723C282.871 151.442 284.355 152.66 285.399 154.222C286.443 155.784 287 157.621 287 159.5C286.997 162.019 285.995 164.433 284.214 166.214C282.433 167.995 280.019 168.997 277.5 169ZM277.5 150.731C275.766 150.731 274.07 151.245 272.628 152.209C271.186 153.172 270.062 154.542 269.398 156.144C268.735 157.747 268.561 159.51 268.899 161.211C269.238 162.912 270.073 164.474 271.299 165.701C272.526 166.927 274.088 167.762 275.789 168.101C277.49 168.439 279.253 168.265 280.856 167.602C282.458 166.938 283.828 165.814 284.791 164.372C285.755 162.93 286.269 161.234 286.269 159.5C286.267 157.175 285.342 154.946 283.698 153.302C282.054 151.658 279.825 150.733 277.5 150.731Z" fill="#2F2E41"/>
<path d="M10 82C11.6569 82 13 80.6569 13 79C13 77.3431 11.6569 76 10 76C8.34315 76 7 77.3431 7 79C7 80.6569 8.34315 82 10 82Z" fill="#206CFF"/>
<path d="M10 89C8.02219 89 6.0888 88.4428 4.44431 87.399C2.79982 86.3551 1.51809 84.8714 0.76121 83.1355C0.00433403 81.3996 -0.193701 79.4895 0.192151 77.6466C0.578003 75.8038 1.53041 74.1111 2.92893 72.7825C4.32746 71.4539 6.10929 70.5491 8.0491 70.1825C9.98891 69.816 11.9996 70.0041 13.8268 70.7231C15.6541 71.4422 17.2159 72.6598 18.3147 74.2221C19.4135 75.7843 20 77.6211 20 79.5C19.997 82.0187 18.9425 84.4334 17.0677 86.2144C15.193 87.9953 12.6512 88.9972 10 89ZM10 70.7308C8.17433 70.7308 6.38966 71.2451 4.87167 72.2087C3.35368 73.1722 2.17054 74.5418 1.47188 76.1442C0.77323 77.7465 0.590441 79.5097 0.946612 81.2108C1.30278 82.9119 2.18192 84.4744 3.47287 85.7008C4.76381 86.9272 6.40858 87.7624 8.19917 88.1007C9.98977 88.4391 11.8458 88.2654 13.5325 87.6017C15.2192 86.938 16.6608 85.814 17.6751 84.3719C18.6894 82.9298 19.2308 81.2344 19.2308 79.5C19.228 77.1751 18.2545 74.9461 16.524 73.3022C14.7935 71.6582 12.4473 70.7335 10 70.7308V70.7308Z" fill="#2F2E41"/>
<path d="M114 118H113.255V81.1811L19 79.7287L19.0115 79L114 80.4636V118Z" fill="#2F2E41"/>
<path d="M268 160H162V122H162.739V159.262H268V160Z" fill="#2F2E41"/>
<path d="M271 174H255V176H271V174Z" fill="#2F2E41"/>
<path d="M283 179.414H255V181.828H283V179.414Z" fill="#2F2E41"/>
<path d="M277 185H255V187H277V185Z" fill="#2F2E41"/>
<path d="M18.4078 96H0V98.4141H18.4078V96Z" fill="#2F2E41"/>
<path d="M28 101.414H0V103.828H28V101.414Z" fill="#2F2E41"/>
<path d="M28 106.828H0V109.242H28V106.828Z" fill="#2F2E41"/>
<path d="M309 79H293V81H309V79Z" fill="#2F2E41"/>
<path d="M309 84.4141H281V86.8282H309V84.4141Z" fill="#2F2E41"/>
<path d="M309 90H287V92H309V90Z" fill="#2F2E41"/>
<defs>
<clipPath id="clip0">
<rect width="275" height="211" fill="white" transform="translate(8)"/>
</clipPath>
</defs>
</svg>
