<svg width="280" height="150" viewBox="0 0 280 150" fill="none" xmlns="http://www.w3.org/2000/svg">
<path d="M140.473 148C102.136 148 70.946 115.028 70.946 74.4999C70.946 33.972 102.136 1 140.473 1C178.81 1 210 33.972 210 74.4999C210 115.028 178.81 148 140.473 148ZM140.473 1.51219C102.403 1.51219 71.4306 34.2544 71.4306 74.4999C71.4306 114.745 102.403 147.488 140.473 147.488C178.543 147.488 209.516 114.745 209.516 74.4999C209.516 34.2544 178.543 1.51219 140.473 1.51219Z" fill="#C8D0DD"/>
<path d="M180.656 55.1374L171.785 40.1675C170.993 38.8236 169.585 38 168.081 38H112.86C111.356 38 109.948 38.8236 109.155 40.1675L100.284 55.1374C95.7053 62.8681 99.7649 73.6187 108.322 74.8469C108.937 74.9336 109.565 74.977 110.194 74.977C114.24 74.977 117.821 73.0985 120.282 70.1941C122.742 73.0985 126.337 74.977 130.369 74.977C134.415 74.977 137.996 73.0985 140.457 70.1941C142.917 73.0985 146.512 74.977 150.544 74.977C154.59 74.977 158.171 73.0985 160.632 70.1941C163.106 73.0985 166.687 74.977 170.719 74.977C171.362 74.977 171.977 74.9336 172.592 74.8469C181.176 73.6331 185.249 62.8825 180.656 55.1374ZM170.747 79.6154C169.38 79.6154 168.026 79.3986 166.714 79.0663V93.4871H114.226V79.0663C112.914 79.3842 111.561 79.6154 110.194 79.6154C109.374 79.6154 108.54 79.5576 107.734 79.442C106.968 79.3264 106.217 79.1385 105.492 78.9218V107.359C105.492 109.917 107.447 111.983 109.866 111.983H171.102C173.521 111.983 175.476 109.917 175.476 107.359V78.9218C174.738 79.153 174 79.3408 173.234 79.442C172.4 79.5576 171.58 79.6154 170.747 79.6154Z" fill="#E9F0FF"/>
<path d="M179.796 55.6472L179.796 55.6475C181.922 59.2322 182.048 63.5284 180.636 67.0712C179.227 70.6081 176.327 73.3087 172.452 73.8567C171.884 73.9368 171.315 73.977 170.719 73.977C167.01 73.977 163.697 72.2508 161.393 69.5457L160.63 68.6495L159.869 69.5477C157.579 72.2501 154.268 73.977 150.544 73.977C146.833 73.977 143.509 72.2497 141.22 69.5477L140.457 68.647L139.694 69.5477C137.404 72.2501 134.093 73.977 130.369 73.977C126.658 73.977 123.334 72.2497 121.045 69.5477L120.282 68.647L119.519 69.5477C117.229 72.2501 113.918 73.977 110.194 73.977C109.611 73.977 109.029 73.9368 108.462 73.8568C104.602 73.3021 101.711 70.5991 100.306 67.0615C98.8991 63.5177 99.0258 59.2245 101.145 55.6471L110.016 40.6773L110.017 40.6756C110.638 39.6226 111.726 39 112.86 39H168.081C169.215 39 170.303 39.6226 170.924 40.6756L170.925 40.6773L179.796 55.6472ZM166.714 94.4871H167.714V93.4871V80.313C168.7 80.5008 169.715 80.6154 170.747 80.6154C171.626 80.6154 172.491 80.5544 173.368 80.433C173.746 80.383 174.114 80.3141 174.476 80.2316V107.359C174.476 109.417 172.917 110.983 171.102 110.983H109.866C108.051 110.983 106.492 109.417 106.492 107.359V80.222C106.85 80.3037 107.214 80.3749 107.584 80.4308L107.592 80.4318C108.447 80.5544 109.328 80.6154 110.194 80.6154C111.229 80.6154 112.245 80.4928 113.226 80.3066V93.4871V94.4871H114.226H166.714Z" stroke="#206CFF" stroke-opacity="0.34" stroke-width="2"/>
</svg>
