<svg width="38" height="41" viewBox="0 0 38 41" fill="none" xmlns="http://www.w3.org/2000/svg">
<path d="M7.82172 37.6667V30.5767H6.51172L3.99172 36.3467L1.49172 30.5767H0.161719V37.6667H1.13172V32.1467L3.53172 37.6667H4.43172L6.85172 32.1467V37.6667H7.82172ZM10.1346 34.7667C10.1746 34.1467 10.6546 33.5367 11.4446 33.5367C12.2946 33.5367 12.7446 34.0767 12.7646 34.7667H10.1346ZM12.9046 36.0167C12.7246 36.5567 12.3346 36.9867 11.5546 36.9867C10.7446 36.9867 10.1246 36.3867 10.1046 35.5267H13.7246C13.7346 35.4667 13.7446 35.3467 13.7446 35.2267C13.7446 33.7267 12.9146 32.7067 11.4346 32.7067C10.2246 32.7067 9.13461 33.7367 9.13461 35.2467C9.13461 36.8767 10.2646 37.8167 11.5546 37.8167C12.6746 37.8167 13.4446 37.1467 13.7146 36.2967L12.9046 36.0167ZM15.8745 37.6667V34.7667C15.8745 34.0467 16.3245 33.5467 16.9945 33.5467C17.7145 33.5467 18.0145 34.0267 18.0145 34.6467V37.6667H18.9545V34.7567C18.9545 34.0667 19.4045 33.5467 20.0645 33.5467C20.7745 33.5467 21.0845 34.0167 21.0845 34.6467V37.6667H22.0145V34.5467C22.0145 33.2867 21.1945 32.7167 20.3545 32.7167C19.7445 32.7167 19.1245 32.9367 18.7445 33.6267C18.4845 33.0067 17.9045 32.7167 17.3045 32.7167C16.7445 32.7167 16.1445 32.9667 15.8445 33.4967V32.8567H14.9445V37.6667H15.8745ZM24.4488 37.6667V36.9667C24.7488 37.4867 25.2988 37.7967 26.0088 37.7967C27.4388 37.7967 28.2488 36.6667 28.2488 35.2367C28.2488 33.8367 27.4988 32.7167 26.0388 32.7167C25.2388 32.7167 24.6788 33.1067 24.4488 33.5367V30.4267H23.5188V37.6667H24.4488ZM27.2888 35.2367C27.2888 36.2767 26.7288 36.9567 25.8688 36.9567C25.0388 36.9567 24.4388 36.2767 24.4388 35.2367C24.4388 34.1967 25.0388 33.5467 25.8688 33.5467C26.7388 33.5467 27.2888 34.1967 27.2888 35.2367ZM30.0565 34.7667C30.0965 34.1467 30.5765 33.5367 31.3665 33.5367C32.2165 33.5367 32.6665 34.0767 32.6865 34.7667H30.0565ZM32.8265 36.0167C32.6465 36.5567 32.2565 36.9867 31.4765 36.9867C30.6665 36.9867 30.0465 36.3867 30.0265 35.5267H33.6465C33.6565 35.4667 33.6665 35.3467 33.6665 35.2267C33.6665 33.7267 32.8365 32.7067 31.3565 32.7067C30.1465 32.7067 29.0565 33.7367 29.0565 35.2467C29.0565 36.8767 30.1865 37.8167 31.4765 37.8167C32.5965 37.8167 33.3665 37.1467 33.6365 36.2967L32.8265 36.0167ZM37.5364 32.8067C37.4864 32.7967 37.3564 32.7767 37.2264 32.7767C36.7364 32.7767 36.1364 32.9567 35.7864 33.6967V32.8567H34.8664V37.6667H35.8064V35.2567C35.8064 34.1967 36.3364 33.7767 37.1264 33.7767C37.2564 33.7767 37.3964 33.7867 37.5364 33.8067V32.8067Z" fill="#878787"/>
<path d="M27.3334 22.5V20.1667C27.3334 18.929 26.8417 17.742 25.9665 16.8668C25.0913 15.9917 23.9044 15.5 22.6667 15.5H13.3334C12.0957 15.5 10.9087 15.9917 10.0335 16.8668C9.15835 17.742 8.66669 18.929 8.66669 20.1667V22.5" stroke="#878787" stroke-width="2" stroke-linecap="round" stroke-linejoin="round"/>
<path d="M18 10.8333C20.5773 10.8333 22.6666 8.744 22.6666 6.16667C22.6666 3.58934 20.5773 1.5 18 1.5C15.4227 1.5 13.3333 3.58934 13.3333 6.16667C13.3333 8.744 15.4227 10.8333 18 10.8333Z" stroke="#878787" stroke-width="2" stroke-linecap="round" stroke-linejoin="round"/>
</svg>
