<svg width="57" height="41" viewBox="0 0 57 41" fill="none" xmlns="http://www.w3.org/2000/svg">
<path d="M7.18551 40.1501V36.6801H3.79551V37.5601H6.25551C6.21551 38.2901 5.64551 39.4101 4.06551 39.4101C2.79551 39.4101 1.59551 38.4801 1.59551 36.6001C1.59551 34.7201 2.83551 33.8101 4.10551 33.8101C5.20551 33.8101 6.03551 34.4101 6.35551 35.4301L7.24551 35.0501C6.83551 33.7701 5.64551 32.9101 4.10551 32.9101C2.35551 32.9101 0.595508 34.2001 0.595508 36.6001C0.595508 39.0001 2.25551 40.3001 4.03551 40.3001C5.22551 40.3001 5.99551 39.7101 6.30551 39.1501L6.39551 40.1501H7.18551ZM9.20199 37.2501C9.24199 36.6301 9.72199 36.0201 10.512 36.0201C11.362 36.0201 11.812 36.5601 11.832 37.2501H9.20199ZM11.972 38.5001C11.792 39.0401 11.402 39.4701 10.622 39.4701C9.81199 39.4701 9.19199 38.8701 9.17199 38.0101H12.792C12.802 37.9501 12.812 37.8301 12.812 37.7101C12.812 36.2101 11.982 35.1901 10.502 35.1901C9.29199 35.1901 8.20199 36.2201 8.20199 37.7301C8.20199 39.3601 9.33199 40.3001 10.622 40.3001C11.742 40.3001 12.512 39.6301 12.782 38.7801L11.972 38.5001ZM15.2719 33.8201H14.4119V34.6001C14.4119 35.0201 14.1919 35.3401 13.6719 35.3401H13.4119V36.1901H14.3319V38.8301C14.3319 39.7001 14.8519 40.2001 15.6719 40.2001C15.9919 40.2001 16.2319 40.1401 16.3119 40.1101V39.3101C16.2319 39.3301 16.0619 39.3501 15.9419 39.3501C15.4519 39.3501 15.2719 39.1301 15.2719 38.6901V36.1901H16.3119V35.3401H15.2719V33.8201ZM20.9966 40.1501V37.2501C20.9966 36.5301 21.4466 36.0301 22.1166 36.0301C22.8366 36.0301 23.1366 36.5101 23.1366 37.1301V40.1501H24.0766V37.2401C24.0766 36.5501 24.5266 36.0301 25.1866 36.0301C25.8966 36.0301 26.2066 36.5001 26.2066 37.1301V40.1501H27.1366V37.0301C27.1366 35.7701 26.3166 35.2001 25.4766 35.2001C24.8666 35.2001 24.2466 35.4201 23.8666 36.1101C23.6066 35.4901 23.0266 35.2001 22.4266 35.2001C21.8666 35.2001 21.2666 35.4501 20.9666 35.9801V35.3401H20.0666V40.1501H20.9966ZM29.2508 37.2501C29.2908 36.6301 29.7708 36.0201 30.5608 36.0201C31.4108 36.0201 31.8608 36.5601 31.8808 37.2501H29.2508ZM32.0208 38.5001C31.8408 39.0401 31.4508 39.4701 30.6708 39.4701C29.8608 39.4701 29.2408 38.8701 29.2208 38.0101H32.8408C32.8508 37.9501 32.8608 37.8301 32.8608 37.7101C32.8608 36.2101 32.0308 35.1901 30.5508 35.1901C29.3408 35.1901 28.2508 36.2201 28.2508 37.7301C28.2508 39.3601 29.3808 40.3001 30.6708 40.3001C31.7908 40.3001 32.5608 39.6301 32.8308 38.7801L32.0208 38.5001ZM34.9907 40.1501V37.2501C34.9907 36.5301 35.4407 36.0301 36.1107 36.0301C36.8307 36.0301 37.1307 36.5101 37.1307 37.1301V40.1501H38.0707V37.2401C38.0707 36.5501 38.5207 36.0301 39.1807 36.0301C39.8907 36.0301 40.2007 36.5001 40.2007 37.1301V40.1501H41.1307V37.0301C41.1307 35.7701 40.3107 35.2001 39.4707 35.2001C38.8607 35.2001 38.2407 35.4201 37.8607 36.1101C37.6007 35.4901 37.0207 35.2001 36.4207 35.2001C35.8607 35.2001 35.2607 35.4501 34.9607 35.9801V35.3401H34.0607V40.1501H34.9907ZM43.565 40.1501V39.4501C43.865 39.9701 44.415 40.2801 45.125 40.2801C46.555 40.2801 47.365 39.1501 47.365 37.7201C47.365 36.3201 46.615 35.2001 45.155 35.2001C44.355 35.2001 43.795 35.5901 43.565 36.0201V32.9101H42.635V40.1501H43.565ZM46.405 37.7201C46.405 38.7601 45.845 39.4401 44.985 39.4401C44.155 39.4401 43.555 38.7601 43.555 37.7201C43.555 36.6801 44.155 36.0301 44.985 36.0301C45.855 36.0301 46.405 36.6801 46.405 37.7201ZM49.1727 37.2501C49.2127 36.6301 49.6927 36.0201 50.4827 36.0201C51.3327 36.0201 51.7827 36.5601 51.8027 37.2501H49.1727ZM51.9427 38.5001C51.7627 39.0401 51.3727 39.4701 50.5927 39.4701C49.7827 39.4701 49.1627 38.8701 49.1427 38.0101H52.7627C52.7727 37.9501 52.7827 37.8301 52.7827 37.7101C52.7827 36.2101 51.9527 35.1901 50.4727 35.1901C49.2627 35.1901 48.1727 36.2201 48.1727 37.7301C48.1727 39.3601 49.3027 40.3001 50.5927 40.3001C51.7127 40.3001 52.4827 39.6301 52.7527 38.7801L51.9427 38.5001ZM56.6526 35.2901C56.6026 35.2801 56.4726 35.2601 56.3426 35.2601C55.8526 35.2601 55.2526 35.4401 54.9026 36.1801V35.3401H53.9826V40.1501H54.9226V37.7401C54.9226 36.6801 55.4526 36.2601 56.2426 36.2601C56.3726 36.2601 56.5126 36.2701 56.6526 36.2901V35.2901Z" fill="#878787"/>
<line x1="29.1991" y1="15.8669" x2="25.3688" y2="12.6529" stroke="#878787" stroke-width="2"/>
<line x1="25.4921" y1="14.0618" x2="33.2055" y2="4.86927" stroke="#878787" stroke-width="2"/>
<line x1="32.3865" y1="19.8469" x2="40.0999" y2="10.6544" stroke="#878787" stroke-width="2"/>
<path d="M33.2055 4.86924C36.676 2.55964 41.7718 6.83557 40.0999 10.6543" stroke="#878787" stroke-width="2" stroke-linecap="round" stroke-linejoin="round"/>
<line x1="29.5953" y1="12.2833" x2="33.4255" y2="15.4972" stroke="#878787" stroke-width="2"/>
<line x1="26.4079" y1="8.30325" x2="18.6944" y2="17.4958" stroke="#878787" stroke-width="2"/>
<line x1="33.3023" y1="14.0883" x2="25.5888" y2="23.2809" stroke="#878787" stroke-width="2"/>
<path d="M25.5888 23.2809C22.1184 25.5905 17.0225 21.3146 18.6944 17.4958" stroke="#878787" stroke-width="2" stroke-linecap="round" stroke-linejoin="round"/>
</svg>
