<svg width="30" height="42" viewBox="0 0 30 42" fill="none" xmlns="http://www.w3.org/2000/svg">
<path d="M2.18273 37.7967V32.4467H3.65273C4.96273 32.4467 6.04273 33.3467 6.04273 35.1367C6.04273 36.9167 4.94273 37.7967 3.63273 37.7967H2.18273ZM3.66273 38.6667C5.46273 38.6667 7.05273 37.4567 7.05273 35.1367C7.05273 32.8067 5.48273 31.5767 3.68273 31.5767H1.20273V38.6667H3.66273ZM8.91 35.7667C8.95 35.1467 9.43 34.5367 10.22 34.5367C11.07 34.5367 11.52 35.0767 11.54 35.7667H8.91ZM11.68 37.0167C11.5 37.5567 11.11 37.9867 10.33 37.9867C9.52 37.9867 8.9 37.3867 8.88 36.5267H12.5C12.51 36.4667 12.52 36.3467 12.52 36.2267C12.52 34.7267 11.69 33.7067 10.21 33.7067C9 33.7067 7.91 34.7367 7.91 36.2467C7.91 37.8767 9.04 38.8167 10.33 38.8167C11.45 38.8167 12.22 38.1467 12.49 37.2967L11.68 37.0167ZM14.6499 40.5667V38.0167C14.9099 38.4467 15.4699 38.7967 16.2099 38.7967C17.6199 38.7967 18.4499 37.6867 18.4499 36.2567C18.4499 34.8567 17.6799 33.7467 16.2399 33.7467C15.4599 33.7467 14.8899 34.1267 14.6299 34.6067V33.8567H13.7199V40.5667H14.6499ZM17.4899 36.2567C17.4899 37.2467 16.9399 37.9567 16.0699 37.9567C15.2099 37.9567 14.6399 37.2467 14.6399 36.2567C14.6399 35.2967 15.2099 34.5767 16.0699 34.5767C16.9499 34.5767 17.4899 35.2967 17.4899 36.2567ZM19.3477 37.3767C19.3477 38.1367 19.9777 38.8167 20.9577 38.8167C21.8177 38.8167 22.2977 38.3567 22.5077 38.0167C22.5077 38.3667 22.5377 38.5467 22.5577 38.6667H23.4777C23.4577 38.5467 23.4177 38.2967 23.4177 37.8767V35.4667C23.4177 34.5267 22.8577 33.7067 21.4177 33.7067C20.3777 33.7067 19.5477 34.3467 19.4477 35.2667L20.3477 35.4767C20.4077 34.9167 20.7777 34.5067 21.4377 34.5067C22.1677 34.5067 22.4777 34.8967 22.4777 35.3667C22.4777 35.5367 22.3977 35.6867 22.1077 35.7267L20.8077 35.9167C19.9777 36.0367 19.3477 36.5167 19.3477 37.3767ZM21.0877 38.0267C20.6077 38.0267 20.3077 37.6867 20.3077 37.3267C20.3077 36.8967 20.6077 36.6667 21.0077 36.6067L22.4777 36.3867V36.6067C22.4777 37.6567 21.8577 38.0267 21.0877 38.0267ZM25.822 35.8867C25.822 35.1567 26.202 34.5667 26.942 34.5667C27.782 34.5667 28.062 35.1067 28.062 35.7767V38.6667H29.002V35.6167C29.002 34.5467 28.432 33.7167 27.282 33.7167C26.722 33.7167 26.152 33.9467 25.802 34.5467V33.8567H24.882V38.6667H25.822V35.8867Z" fill="#878787"/>
<path d="M4.5 9.16667L15 1L25.5 9.16667V22C25.5 22.6188 25.2542 23.2123 24.8166 23.6499C24.379 24.0875 23.7855 24.3333 23.1667 24.3333H6.83333C6.21449 24.3333 5.621 24.0875 5.18342 23.6499C4.74583 23.2123 4.5 22.6188 4.5 22V9.16667Z" stroke="#878787" stroke-width="2" stroke-linecap="round" stroke-linejoin="round"/>
<path d="M11.5 24.3334V12.6667H18.5V24.3334" stroke="#878787" stroke-width="2" stroke-linecap="round" stroke-linejoin="round"/>
</svg>
