<svg width="30" height="41" viewBox="0 0 30 41" fill="none" xmlns="http://www.w3.org/2000/svg">
<path d="M9.08148 37.6667H10.1415L7.32148 30.5767H6.19148L3.37148 37.6667H4.42148L5.17148 35.6867H8.31148L9.08148 37.6667ZM6.73148 31.5967L7.96148 34.7767H5.52148L6.73148 31.5967ZM15.3541 32.8567H14.0541L11.9741 34.9867V30.4267H11.0441V37.6667H11.9741V36.2167L12.6441 35.5467L14.2141 37.6667H15.3941L13.3041 34.8867L15.3541 32.8567ZM19.4192 37.0867C19.4192 37.2867 19.4392 37.5567 19.4592 37.6667H20.3592C20.3392 37.4967 20.3092 37.1567 20.3092 36.7767V32.8567H19.3692V35.7567C19.3692 36.4867 18.9892 36.9867 18.2292 36.9867C17.4392 36.9867 17.1392 36.4067 17.1392 35.7467V32.8567H16.1992V35.8867C16.1992 36.9767 16.8792 37.8167 17.9992 37.8167C18.5592 37.8167 19.1592 37.5867 19.4192 37.0867ZM22.8533 34.8867C22.8533 34.1567 23.2333 33.5667 23.9733 33.5667C24.8133 33.5667 25.0933 34.1067 25.0933 34.7767V37.6667H26.0333V34.6167C26.0333 33.5467 25.4633 32.7167 24.3133 32.7167C23.7533 32.7167 23.1833 32.9467 22.8333 33.5467V32.8567H21.9133V37.6667H22.8533V34.8867Z" fill="#878787"/>
<path d="M20 21V19C20 17.9391 19.5786 16.9217 18.8284 16.1716C18.0783 15.4214 17.0609 15 16 15H8C6.93913 15 5.92172 15.4214 5.17157 16.1716C4.42143 16.9217 4 17.9391 4 19V21" stroke="#878787" stroke-width="2" stroke-linecap="round" stroke-linejoin="round"/>
<path d="M12 11C14.2091 11 16 9.20914 16 7C16 4.79086 14.2091 3 12 3C9.79086 3 8 4.79086 8 7C8 9.20914 9.79086 11 12 11Z" stroke="#878787" stroke-width="2" stroke-linecap="round" stroke-linejoin="round"/>
<path d="M26 21V19C25.9993 18.1137 25.7044 17.2528 25.1614 16.5523C24.6184 15.8519 23.8581 15.3516 23 15.13" stroke="#878787" stroke-width="2" stroke-linecap="round" stroke-linejoin="round"/>
<path d="M19 3.13C19.8604 3.35031 20.623 3.85071 21.1676 4.55232C21.7122 5.25392 22.0078 6.11683 22.0078 7.005C22.0078 7.89318 21.7122 8.75608 21.1676 9.45769C20.623 10.1593 19.8604 10.6597 19 10.88" stroke="#878787" stroke-width="2" stroke-linecap="round" stroke-linejoin="round"/>
</svg>
