<svg width="295" height="233" viewBox="0 0 295 233" fill="none" xmlns="http://www.w3.org/2000/svg">
<path fill-rule="evenodd" clip-rule="evenodd" d="M211.525 52.7009C211.525 52.7009 162.913 91.0132 142.315 91.8371C121.717 92.661 60.747 85.6577 62.8068 76.1826C64.8666 66.7075 116.362 47.3454 134.9 49.8172C153.438 52.2889 223.471 25.5115 226.355 34.5746C229.239 43.6378 211.525 52.7009 211.525 52.7009Z" fill="#D6E7FE"/>
<path fill-rule="evenodd" clip-rule="evenodd" d="M256.326 147.478C256.326 147.478 229.935 147.478 192.601 196.398C155.267 245.318 108.921 235.663 90.898 221.502C72.8747 207.341 90.2543 192.536 56.1388 181.593C22.0234 170.651 -5.01152 159.064 11.0807 120.443C27.1729 81.8216 67.0816 89.5459 116.002 102.42C164.922 115.293 209.98 61.8673 231.866 53.4994C253.751 45.1314 296.235 65.0858 294.947 101.776C293.66 138.466 256.326 147.478 256.326 147.478Z" fill="#D6E7FE"/>
<path fill-rule="evenodd" clip-rule="evenodd" d="M285.798 73.2953C285.682 73.3163 285.567 73.3346 285.45 73.3567C263.894 77.4349 248.164 108.895 196.312 129.869C144.461 150.843 136.898 133.556 86.2007 122.295C33.4186 110.572 11.3435 120.275 6.54323 136.829C3.71165 162.709 27.414 172.38 56.1388 181.594C57.738 182.107 59.2238 182.628 60.6056 183.158C61.0662 183.334 61.5151 183.511 61.9528 183.69C61.953 183.69 61.9531 183.69 61.9534 183.69C62.8288 184.046 63.659 184.406 64.4471 184.769C64.4473 184.77 64.4474 184.769 64.4477 184.769C65.6299 185.314 66.7167 185.867 67.7174 186.427C68.3848 186.8 69.0136 187.176 69.6069 187.556C70.1999 187.935 70.7576 188.317 71.2819 188.702C71.282 188.702 71.2825 188.702 71.2825 188.702C71.8069 189.087 72.2979 189.475 72.7589 189.866C73.6808 190.648 74.4809 191.44 75.1809 192.243C75.181 192.243 75.1808 192.243 75.1809 192.243C75.5307 192.644 75.856 193.048 76.1583 193.454C76.4608 193.86 76.7407 194.268 77.0009 194.678C77.001 194.678 77.0008 194.679 77.0009 194.679C77.261 195.089 77.5014 195.502 77.7246 195.916C77.7247 195.916 77.7246 195.917 77.7246 195.917C77.9478 196.331 78.1544 196.748 78.3459 197.167C79.2083 199.051 79.7773 200.974 80.2946 202.923C80.2946 202.924 80.2945 202.924 80.2946 202.924C80.6394 204.223 80.9613 205.535 81.3318 206.854C81.6405 207.953 81.9831 209.058 82.4008 210.166C82.6514 210.831 82.9291 211.497 83.2428 212.164C83.2429 212.164 83.2428 212.164 83.2428 212.164C83.5565 212.83 83.9065 213.498 84.3011 214.166C84.6958 214.834 85.1354 215.502 85.629 216.17C85.9581 216.616 86.311 217.06 86.6906 217.506C86.6907 217.506 86.6905 217.506 86.6906 217.506C86.8804 217.728 87.0773 217.95 87.2806 218.172C87.2807 218.172 87.2805 218.172 87.2806 218.172C87.484 218.395 87.6945 218.617 87.9122 218.839C88.1299 219.061 88.3548 219.283 88.5875 219.505C88.5876 219.505 88.5881 219.505 88.5881 219.505C89.2863 220.172 90.0532 220.837 90.898 221.501C91.1796 221.722 91.4681 221.942 91.7634 222.161C92.354 222.599 92.9717 223.031 93.6153 223.457C93.9371 223.67 94.2655 223.881 94.6001 224.09C95.6041 224.717 96.6651 225.328 97.7794 225.915C98.1509 226.111 98.5279 226.304 98.911 226.494C98.9112 226.494 98.9113 226.494 98.9116 226.494C99.6779 226.875 100.467 227.245 101.278 227.603C101.684 227.781 102.095 227.957 102.511 228.129C102.512 228.129 102.512 228.129 102.512 228.129C102.928 228.301 103.35 228.47 103.777 228.635C103.777 228.635 103.777 228.635 103.777 228.635C104.204 228.8 104.636 228.962 105.073 229.119C105.511 229.277 105.953 229.431 106.401 229.581C107.295 229.882 108.21 230.165 109.142 230.432C109.609 230.565 110.08 230.694 110.556 230.818C111.031 230.943 111.511 231.062 111.995 231.177C111.995 231.177 111.995 231.177 111.996 231.177C112.964 231.407 113.951 231.617 114.953 231.807C115.454 231.901 115.96 231.991 116.469 232.075C117.996 232.327 119.559 232.531 121.153 232.68C121.154 232.68 121.154 232.68 121.154 232.68C122.217 232.779 123.294 232.854 124.383 232.903C126.018 232.977 127.682 232.993 129.37 232.945C129.933 232.929 130.499 232.906 131.067 232.876C133.34 232.754 135.656 232.516 138.005 232.149C138.592 232.057 139.181 231.956 139.772 231.848C154.847 229.084 171.177 220.91 186.401 203.906C186.699 203.573 186.997 203.236 187.295 202.896C187.593 202.556 187.89 202.212 188.187 201.865C188.483 201.518 188.78 201.167 189.075 200.813C190.258 199.397 191.434 197.926 192.601 196.397C194.934 193.339 197.225 190.473 199.469 187.786C199.726 187.478 199.98 187.181 200.235 186.878C201.096 185.858 201.953 184.856 202.799 183.888C203.898 182.632 204.984 181.42 206.058 180.249C206.595 179.664 207.128 179.089 207.659 178.525C208.189 177.96 208.716 177.406 209.241 176.862C209.765 176.318 210.285 175.784 210.803 175.26C214.942 171.066 218.869 167.505 222.554 164.482C223.475 163.726 224.381 163.004 225.271 162.314C231.058 157.828 236.184 154.699 240.521 152.515C241.188 152.179 241.836 151.866 242.465 151.573C243.724 150.988 244.906 150.486 246.007 150.056C247.108 149.626 248.129 149.268 249.066 148.97C250.47 148.522 251.686 148.208 252.699 147.989C253.374 147.843 253.96 147.738 254.452 147.663C255.681 147.477 256.326 147.477 256.326 147.477C256.326 147.477 256.909 147.336 257.933 147.018C258.444 146.859 259.066 146.655 259.78 146.403C260.494 146.151 261.299 145.85 262.179 145.495C263.939 144.786 265.996 143.863 268.207 142.69C268.759 142.397 269.321 142.089 269.891 141.763C270.745 141.276 271.616 140.752 272.495 140.189C273.082 139.814 273.672 139.422 274.264 139.013C278.113 136.35 282.037 132.942 285.419 128.633C285.419 128.633 285.419 128.632 285.419 128.632C285.679 128.301 285.936 127.964 286.19 127.622C286.19 127.622 286.19 127.622 286.19 127.622C286.95 126.595 287.679 125.52 288.369 124.394C289.75 122.142 290.975 119.689 291.983 117.017C292.32 116.127 292.632 115.212 292.918 114.273C293.061 113.803 293.198 113.327 293.327 112.844C293.586 111.88 293.818 110.891 294.02 109.876C294.02 109.876 294.02 109.876 294.02 109.876C294.121 109.368 294.215 108.855 294.301 108.334C294.301 108.334 294.301 108.334 294.301 108.334C294.473 107.293 294.614 106.227 294.723 105.134C294.723 105.134 294.723 105.134 294.723 105.134C294.777 104.587 294.823 104.034 294.861 103.474C294.861 103.474 294.86 103.474 294.861 103.474C294.898 102.914 294.927 102.348 294.947 101.774C294.958 101.456 294.965 101.139 294.97 100.823C294.973 100.714 294.973 100.605 294.973 100.495C294.976 100.277 294.976 100.059 294.973 99.8417C294.973 99.7387 294.97 99.6361 294.969 99.5334C294.966 99.3196 294.962 99.1064 294.956 98.8939C294.953 98.7753 294.949 98.6565 294.945 98.5383C294.937 98.3091 294.927 98.081 294.915 97.8533C294.911 97.7776 294.908 97.7017 294.904 97.6262C294.887 97.3095 294.866 96.9935 294.842 96.6795C294.839 96.647 294.836 96.6147 294.833 96.5822C294.811 96.2994 294.786 96.0179 294.758 95.7373C294.751 95.6643 294.742 95.5917 294.735 95.5189C294.71 95.2825 294.684 95.047 294.656 94.8122C294.646 94.7328 294.637 94.6536 294.627 94.5744C294.593 94.3044 294.556 94.035 294.517 93.7671C294.513 93.7391 294.51 93.7109 294.505 93.6829C294.412 93.046 294.305 92.415 294.184 91.7906C294.184 91.7891 294.184 91.7875 294.184 91.786C294.184 91.7811 294.181 91.7762 294.181 91.7712C294.122 91.4671 294.06 91.1649 293.995 90.8638C293.992 90.8558 293.992 90.8478 293.99 90.8399C293.987 90.8296 293.985 90.8194 293.983 90.8092C293.933 90.5786 293.88 90.3495 293.826 90.1207C293.734 89.7266 293.637 89.3347 293.534 88.9459C293.496 88.8015 293.455 88.6588 293.415 88.5152C293.336 88.2271 293.253 87.9406 293.168 87.6555C293.12 87.4921 293.072 87.328 293.022 87.1656C292.911 86.8116 292.796 86.4608 292.677 86.1114C292.613 85.9224 292.547 85.7345 292.481 85.547C292.389 85.2903 292.295 85.0353 292.199 84.7812C292.095 84.5043 291.988 84.2289 291.878 83.9551C291.803 83.7685 291.728 83.5826 291.65 83.3975C291.523 83.0917 291.392 82.788 291.258 82.486C291.167 82.2819 291.077 82.0779 290.984 81.8756C290.882 81.655 290.777 81.4358 290.672 81.2173C290.598 81.0643 290.523 80.9123 290.448 80.7604C290.256 80.3751 290.06 79.9931 289.858 79.6146C289.812 79.5276 289.766 79.4406 289.719 79.354C289.307 78.5929 288.875 77.8455 288.422 77.1123C288.39 77.0593 288.357 77.0065 288.324 76.9536C288.022 76.4688 287.712 75.9899 287.393 75.5176C286.882 74.7601 286.35 74.0186 285.798 73.2936L285.798 73.2953Z" fill="url(#paint0_linear)"/>
<path fill-rule="evenodd" clip-rule="evenodd" d="M255.556 127.711C207.727 127.618 175.32 180.31 127.565 175.312C93.3789 171.734 43.7063 164.705 13.9724 160.553C22.8595 170.145 38.5588 175.955 56.1386 181.594C90.254 192.536 72.8745 207.341 90.8977 221.502C108.921 235.663 155.266 245.319 192.6 196.399C229.934 147.479 256.325 147.479 256.325 147.479C256.325 147.479 269.481 144.303 280.443 134.047C276.124 131.079 270.345 128.977 262.728 128.121C260.298 127.848 257.908 127.716 255.556 127.711Z" fill="url(#paint1_linear)"/>
<path fill-rule="evenodd" clip-rule="evenodd" d="M174.255 135.57L176.026 198.491L179.888 198.008C179.888 198.008 183.589 146.513 183.589 147.318C183.589 148.122 186.325 198.33 186.325 198.33C186.325 198.33 191.152 199.456 191.152 198.008C191.152 196.56 194.532 141.042 192.762 135.731C190.991 130.421 174.255 135.57 174.255 135.57Z" fill="#535353"/>
<path fill-rule="evenodd" clip-rule="evenodd" d="M149.792 95.4221C149.792 96.2461 148.968 101.602 145.466 102.631C141.965 103.661 139.081 100.572 138.875 97.07C138.669 93.5683 141.965 88.2129 144.024 88.2129C146.084 88.2129 149.174 90.4787 149.586 92.5384C149.998 94.5982 149.792 95.4221 149.792 95.4221Z" fill="#80AAE1"/>
<path fill-rule="evenodd" clip-rule="evenodd" d="M147.015 102.037C147.015 102.037 145.559 105.824 144.976 106.698C144.394 107.572 143.811 107.28 142.937 106.989C142.063 106.698 141.189 100.289 141.189 100.289L147.015 102.037Z" fill="#80AAE1"/>
<path fill-rule="evenodd" clip-rule="evenodd" d="M126.042 78.1501C126.77 80.3349 137.839 102.037 140.461 103.348C143.083 104.658 149.054 103.056 151.093 99.7063C153.132 96.3564 160.852 75.2371 161.58 74.6545C162.308 74.0719 166.532 74.3632 166.532 74.3632C166.532 74.3632 161.435 86.8891 156.919 99.852C152.404 112.815 153.132 140.488 153.132 140.488C154.304 142.696 158.119 198.037 158.842 204.246L151.332 203.967C152.155 201.392 147.595 169.356 147.305 160.913C146.941 150.281 145.244 148.467 144.436 161.13C143.873 169.959 143.595 185.412 143.348 193.712L142.951 207.061L135.579 208.093L135.785 187.907C135.844 182.183 135.226 151.821 137.331 141.783C137.428 141.322 137.624 140.918 137.639 140.532C137.798 136.451 136.822 116.768 133.782 106.232C128.822 89.0376 119.789 79.6096 118.277 77.0898C115.805 72.9702 125.074 75.03 125.486 76.4719C125.898 77.9137 126.042 78.1501 126.042 78.1501Z" fill="#80AAE1"/>
<path fill-rule="evenodd" clip-rule="evenodd" d="M188.706 95.4679C188.365 95.9231 189.275 102.637 178.807 102.637C168.338 102.637 162.876 72.1411 162.876 72.1411C162.876 72.1411 155.138 72.9377 155.935 75.3272C156.731 77.7168 173.933 116.581 173.611 127.363C173.29 138.144 170.554 136.535 174.416 137.501C178.278 138.466 193.727 139.11 194.049 136.696C194.37 134.282 193.405 111.592 195.98 99.0403C198.554 86.4884 200.324 68.4651 200.324 67.0168C200.324 65.5685 193.888 66.695 193.888 66.695L188.706 95.4679Z" fill="#F6F8FA"/>
<path fill-rule="evenodd" clip-rule="evenodd" d="M209.819 143.294C209.498 143.938 208.693 154.237 211.107 168.398C213.521 182.559 211.911 192.536 213.842 193.985C215.773 195.433 216.417 194.146 216.256 192.054C216.095 189.962 217.704 147.961 216.739 145.064C215.773 142.168 209.819 143.294 209.819 143.294Z" fill="#4B4B4B"/>
<path fill-rule="evenodd" clip-rule="evenodd" d="M216.014 193.501L213.401 193.415C212.991 193.402 214.803 201.587 213.918 202.714C213.033 203.84 208.37 205.893 208.773 207.019C209.175 208.146 210.302 207.824 212.715 207.743C215.129 207.663 216.417 208.628 216.819 206.456C217.221 204.283 216.738 193.743 216.738 193.743L216.014 193.501Z" fill="#A06D55"/>
<path fill-rule="evenodd" clip-rule="evenodd" d="M217.543 144.259C217.543 144.259 214.647 145.868 214.969 164.696C215.29 183.524 214.968 196.719 216.9 197.363C218.831 198.007 220.279 196.398 220.279 189.317C220.279 182.237 221.888 166.466 224.141 160.834C226.394 155.202 226.716 151.662 225.267 146.995C223.819 142.328 217.543 144.259 217.543 144.259Z" fill="#535353"/>
<path fill-rule="evenodd" clip-rule="evenodd" d="M195.459 67.6349C195.459 67.6349 193.811 60.8376 194.429 60.8376C195.047 60.8376 198.96 60.3227 199.578 62.3825C200.196 64.4423 198.857 65.9871 198.651 66.708C198.445 67.429 195.459 67.6349 195.459 67.6349Z" fill="#FFE5D3"/>
<path fill-rule="evenodd" clip-rule="evenodd" d="M194.634 63.8241C194.634 63.8241 192.987 63.5151 193.089 64.0301C193.192 64.5451 193.604 65.575 194.84 65.472C196.076 65.369 194.634 63.8241 194.634 63.8241Z" fill="#FFE5D3"/>
<path fill-rule="evenodd" clip-rule="evenodd" d="M161.504 72.7834C161.504 72.7834 159.835 65.9912 159.287 66.2759C158.738 66.5606 155.027 67.9064 155.427 70.0193C155.828 72.1321 157.728 72.8865 158.243 73.4315C158.758 73.9765 161.504 72.7834 161.504 72.7834Z" fill="#FFE5D3"/>
<path fill-rule="evenodd" clip-rule="evenodd" d="M160.479 69.0216C160.479 69.0216 161.799 67.9882 161.945 68.4927C162.091 68.9973 162.2 70.1012 161.055 70.5791C159.911 71.057 160.479 69.0216 160.479 69.0216Z" fill="#FFE5D3"/>
<path fill-rule="evenodd" clip-rule="evenodd" d="M198.287 66.2789C198.066 66.276 197.834 66.2812 197.6 66.2897C197.544 66.2918 197.486 66.2951 197.43 66.2977C197.28 66.3046 197.13 66.3137 196.981 66.3239C196.638 66.3474 196.297 66.3764 195.974 66.4107C195.907 66.4178 195.846 66.4256 195.78 66.4329C195.553 66.4586 195.346 66.4848 195.146 66.5111C194.936 66.5387 194.756 66.5643 194.591 66.5887C194.266 66.638 193.887 66.6965 193.887 66.6965L188.706 95.5514C188.557 95.7511 188.647 97.1521 187.919 98.665C187.867 98.7731 187.811 98.882 187.75 98.9908C187.05 100.246 185.737 101.52 183.233 102.212C184.184 107.981 187.282 127.442 187.658 138.521C187.662 138.521 187.666 138.521 187.669 138.521C190.006 138.425 192.029 138.179 193.141 137.718C193.165 137.709 193.191 137.7 193.213 137.69C193.275 137.663 193.329 137.634 193.385 137.605C193.431 137.581 193.478 137.557 193.52 137.532C193.662 137.448 193.779 137.359 193.865 137.263C193.871 137.256 193.878 137.25 193.883 137.243C193.925 137.194 193.958 137.144 193.984 137.092C193.994 137.073 194.003 137.054 194.011 137.034C194.015 137.023 194.021 137.011 194.024 136.999C194.035 136.966 194.044 136.932 194.048 136.897C194.169 135.99 194.108 132.222 194.122 127.204C194.128 124.695 194.153 121.873 194.229 118.94C194.229 118.94 194.229 118.939 194.229 118.939C194.229 118.909 194.231 118.879 194.231 118.849C194.281 116.922 194.352 114.948 194.455 112.983C194.716 107.994 195.175 103.068 195.979 99.134C196.301 97.5606 196.61 95.9015 196.905 94.1998C197.2 92.498 197.48 90.7535 197.744 89.0098C198.008 87.2662 198.256 85.5232 198.485 83.8239C198.944 80.4255 199.33 77.2022 199.628 74.4997C200.001 71.122 200.236 68.5575 200.304 67.4811C200.304 67.4808 200.304 67.4808 200.304 67.4805C200.317 67.2653 200.324 67.1097 200.324 67.0189C200.324 66.9767 200.317 66.9376 200.306 66.8996C200.303 66.8915 200.301 66.8837 200.299 66.8757C200.289 66.8473 200.276 66.82 200.26 66.7941C200.255 66.7845 200.249 66.7748 200.243 66.7656C200.221 66.7339 200.196 66.7035 200.165 66.6754C200.134 66.6473 200.098 66.6214 200.06 66.5967C200.048 66.5892 200.035 66.5827 200.023 66.5756C199.999 66.5621 199.974 66.5497 199.948 66.5373C199.882 66.5054 199.811 66.4753 199.73 66.45C199.646 66.4238 199.553 66.4018 199.456 66.3821C199.436 66.3782 199.416 66.3744 199.396 66.3707C199.343 66.3608 199.283 66.3538 199.226 66.3456C199.128 66.3316 199.026 66.3194 198.919 66.3102C198.868 66.3058 198.818 66.3011 198.765 66.2977C198.612 66.2878 198.453 66.2809 198.287 66.2789V66.2789ZM162.876 72.158C162.876 72.158 155.138 72.9568 155.935 75.3532C156.433 76.851 163.339 92.637 168.37 106.906C168.37 106.906 168.37 106.906 168.37 106.906C168.873 108.333 169.357 109.745 169.815 111.125C169.815 111.125 169.815 111.125 169.815 111.126C170.272 112.506 170.702 113.856 171.097 115.159C171.097 115.159 171.097 115.159 171.097 115.159C172.084 118.416 172.851 121.381 173.268 123.807C173.268 123.807 173.268 123.807 173.268 123.807C173.309 124.05 173.348 124.287 173.382 124.518C173.52 125.444 173.6 126.28 173.614 127.01C173.617 127.192 173.617 127.368 173.611 127.537C173.591 128.213 173.561 128.84 173.524 129.422C173.524 129.422 173.524 129.423 173.524 129.423C173.506 129.714 173.486 129.994 173.464 130.263C173.464 130.263 173.464 130.263 173.464 130.263C173.355 131.609 173.209 132.686 173.058 133.551C173.058 133.551 173.058 133.551 173.058 133.552C172.997 133.897 172.936 134.209 172.877 134.491C172.877 134.491 172.877 134.492 172.877 134.492C172.817 134.774 172.76 135.025 172.705 135.25C172.705 135.25 172.706 135.25 172.705 135.251C172.435 136.376 172.259 136.839 172.452 137.095C172.452 137.095 172.452 137.095 172.452 137.095C172.491 137.147 172.545 137.189 172.615 137.228C172.897 137.382 173.45 137.462 174.415 137.704C174.562 137.741 174.727 137.777 174.906 137.813C174.934 137.818 174.964 137.824 174.993 137.829C175.116 137.853 175.25 137.876 175.386 137.899C175.666 137.947 175.967 137.993 176.296 138.038C176.379 138.049 176.47 138.06 176.555 138.07C176.77 138.098 177.001 138.124 177.233 138.15C177.666 138.199 178.124 138.244 178.605 138.286C178.695 138.293 178.779 138.302 178.87 138.31C179.473 138.359 180.103 138.404 180.753 138.441C180.757 138.441 180.76 138.441 180.763 138.441C181.34 135.964 182.048 130.227 179.082 122.373C175.885 113.911 177.499 105.913 178.621 102.732C168.274 102.375 162.875 72.1582 162.875 72.1582L162.876 72.158Z" fill="#66A6FB"/>
<path fill-rule="evenodd" clip-rule="evenodd" d="M219.323 110.398C218.61 109.933 188.187 92.9143 184.974 91.0128C181.76 89.1113 179.353 90.2957 179.063 91.6209C178.773 92.9462 198.121 103.71 208.505 110.753C218.89 117.796 218.008 115.735 219.136 113.964C220.264 112.194 219.323 110.398 219.323 110.398Z" fill="url(#paint2_linear)"/>
<path fill-rule="evenodd" clip-rule="evenodd" d="M222.775 52.4831C223.531 52.0425 225.671 49.6506 226.112 51.5389C226.552 53.4273 226.741 53.8049 225.167 53.9308C223.594 54.0567 222.775 52.4831 222.775 52.4831Z" fill="white"/>
<path fill-rule="evenodd" clip-rule="evenodd" d="M183.814 86.6805C184.124 86.2158 181.594 83.3244 179.786 83.376C177.979 83.4277 178.134 85.906 176.327 85.8027C174.52 85.6995 172.351 86.0092 172.919 87.9712C173.487 89.9332 173.952 89.0039 172.919 90.811C171.887 92.6181 171.422 92.1018 172.248 93.4442C173.074 94.7866 174.726 93.2377 174.985 95.5095C175.243 97.7812 173.436 97.7812 177.308 98.8139C181.18 99.8465 184.846 98.5557 185.621 97.2133C186.395 95.8709 187.428 96.4388 187.531 94.0121C187.635 91.5855 186.963 92.5148 186.344 91.0691C185.724 89.6235 186.912 89.3137 186.808 88.1261C186.705 86.9386 183.814 86.6805 183.814 86.6805Z" fill="#855B47"/>
<path fill-rule="evenodd" clip-rule="evenodd" d="M183.404 96.7425C183.404 96.7425 183.433 102.579 182.676 104.458C181.965 106.221 181.485 107.353 180.347 106.556C179.209 105.305 179.333 104.856 178.593 102.296C177.866 99.7788 177.214 97.2887 179.035 96.1508C180.855 95.0129 183.404 96.7425 183.404 96.7425Z" fill="#FFE5D3"/>
<path fill-rule="evenodd" clip-rule="evenodd" d="M181.029 100.374C176.536 100.661 175.943 99.1172 175.723 96.8371C175.517 94.6986 175.484 89.4277 177.874 87.9936C180.264 86.5596 183.802 87.7546 184.901 90.0013C186.762 94.4091 183.619 100.063 181.029 100.374Z" fill="#FFE5D3"/>
<path fill-rule="evenodd" clip-rule="evenodd" d="M184.278 88.2294C183.968 88.5391 182.729 90.5528 181.18 89.9848C179.631 89.4169 179.734 90.0365 178.237 90.9658C176.74 91.8952 176.791 92.4632 175.914 91.5854C175.036 90.7077 174.261 90.8626 174.778 89.3136C175.294 87.7647 176.223 87.4033 177.049 87.0935C177.876 86.7837 178.015 86.4732 179.011 85.9059C180.491 85.0633 184.622 87.5402 184.278 88.2294Z" fill="#855B47"/>
<path fill-rule="evenodd" clip-rule="evenodd" d="M185.569 92.4574C185.569 92.4574 186.292 91.2699 186.602 92.1476C186.911 93.0254 186.602 93.3868 186.24 93.9547C185.879 94.5226 185.053 94.9357 185.053 94.6259C185.053 94.3161 185.569 92.4574 185.569 92.4574Z" fill="#FFE5D3"/>
<path fill-rule="evenodd" clip-rule="evenodd" d="M175.584 93.3747C175.584 93.3747 175.11 92.0679 174.633 92.8673C174.156 93.6667 174.389 94.0822 174.63 94.7103C174.872 95.3384 175.582 95.9019 175.662 95.6026C175.741 95.3061 175.719 93.4291 175.584 93.3747H175.584Z" fill="#FFE5D3"/>
<path fill-rule="evenodd" clip-rule="evenodd" d="M176.428 198.168C174.899 199.536 168.945 205.973 167.336 206.938C165.727 207.904 169.428 210.076 173.531 209.352C177.635 208.628 179.164 205.812 180.532 205.57C181.899 205.329 182.141 204.444 181.658 201.467C181.175 198.49 181.095 197.927 180.451 197.766C179.807 197.605 176.428 198.168 176.428 198.168Z" fill="#3287FA"/>
<path fill-rule="evenodd" clip-rule="evenodd" d="M190.991 198.249C190.91 199.536 195.175 204.445 196.865 206.456C198.554 208.468 199.198 209.514 198.232 210.962C197.267 212.41 193.083 213.215 190.83 212.169C188.577 211.123 185.841 207.18 185.359 205.33C184.876 203.479 185.439 198.008 186.324 197.927C187.209 197.847 190.991 198.249 190.991 198.249Z" fill="#3287FA"/>
<path fill-rule="evenodd" clip-rule="evenodd" d="M223.981 91.194C223.981 91.194 218.824 92.9276 218.141 96.1137C217.458 99.2997 214.566 106.04 216.578 108.534C218.589 111.029 225.778 114.302 230.364 112.853C234.95 111.405 230.417 107.167 230.256 103.304C230.095 99.4423 229.637 97.3694 228.325 94.1319C227.444 91.9595 224.341 91.194 223.981 91.194Z" fill="#E66D56"/>
<path fill-rule="evenodd" clip-rule="evenodd" d="M217.785 108.776C220.279 111.512 225.187 108.937 227.118 105.316C229.049 101.696 230.095 99.121 227.923 96.7877C225.75 94.4543 220.923 96.3854 220.118 96.9486C217.858 100.185 216.124 106.667 217.785 108.776Z" fill="#FFF0E0"/>
<path fill-rule="evenodd" clip-rule="evenodd" d="M225.347 96.9693C225.347 96.9693 229.557 97.5382 228.305 99.3589C227.053 101.179 223.355 104.422 225.29 106.584C227.224 108.746 228.248 105.276 228.362 106.471C228.589 109.202 224.778 109.827 225.347 111.648C225.915 113.469 230.694 116.655 234.336 111.534C237.977 106.414 233.994 106.528 234.108 100.497C234.222 94.4659 232.287 94.0108 230.808 93.5556C229.329 93.1005 227.555 91.2577 222.957 91.0523C221.294 90.978 217.149 93.2903 216.752 93.9889C214.318 98.2755 225.341 96.9741 225.347 96.9693Z" fill="#FF8A74"/>
<path fill-rule="evenodd" clip-rule="evenodd" d="M219.068 104.383C219.142 103.948 196.432 94.7566 192.744 92.75C189.963 91.7784 186.424 99.099 187.72 99.3578C191.279 100.28 218.676 104.989 218.676 104.989C218.964 104.855 219.076 104.645 219.068 104.383Z" fill="#FFBB55"/>
<path fill-rule="evenodd" clip-rule="evenodd" d="M198.828 95.428C198.828 95.428 198.589 95.5086 198.277 95.6257L198.277 95.6263C196.734 95.9438 196.913 97.5564 197.196 97.9629C200.391 98.9022 217.449 104.169 219.052 104.398C219.062 104.364 219.069 104.328 219.074 104.291C218.405 103.88 214.554 102.806 212.951 101.926C211.18 100.954 198.828 95.428 198.828 95.428L198.828 95.428Z" fill="#FFCA7A"/>
<path d="M197.926 95.1354L189.955 99.8403C190.406 99.9306 191.051 100.051 191.593 100.155L199.179 95.678C198.756 95.4953 198.323 95.3087 197.926 95.1354ZM202.653 97.1721L196.152 101.01C196.7 101.11 197.236 101.209 197.809 101.313L203.914 97.7087C203.493 97.5295 203.067 97.3491 202.653 97.1721ZM206.508 98.812L201.227 101.929C201.783 102.028 202.334 102.127 202.894 102.226L207.77 99.3487C207.346 99.1686 206.936 98.9939 206.508 98.812ZM211.317 100.859L207.595 103.057C208.192 103.162 208.696 103.25 209.268 103.35L212.574 101.399C212.15 101.216 211.765 101.05 211.317 100.859ZM216.362 103.045L214.339 104.239C215.355 104.416 215.322 104.409 216.018 104.53L217.591 103.601C217.235 103.436 216.828 103.251 216.362 103.045Z" fill="#FF5E03"/>
<path fill-rule="evenodd" clip-rule="evenodd" d="M228.574 99.0919C228.574 99.0919 224.127 101.033 219.927 99.3524C215.727 97.6716 216.49 95.1285 220.035 94.5126C223.581 93.8967 230.532 94.8073 230.586 96.5876C230.639 98.3678 228.574 99.0919 228.574 99.0919Z" fill="#FF8A74"/>
<path fill-rule="evenodd" clip-rule="evenodd" d="M229.898 114.698C229.898 114.698 222.388 110.829 218.974 110.602C218.614 110.578 217.052 111.014 216.68 111.104C213.53 111.87 211.296 115.998 209.871 118.339C208.278 120.957 213.399 132.108 210.895 137.683C208.392 143.259 206.002 143.828 209.985 144.966C213.967 146.104 227.281 148.607 227.053 146.331C226.826 144.056 222.843 134.952 222.843 133.246C222.843 131.539 230.239 120.501 230.581 117.998C230.922 115.495 229.898 114.698 229.898 114.698Z" fill="url(#paint3_linear)"/>
<path fill-rule="evenodd" clip-rule="evenodd" d="M223.738 107.409L222.773 111.754C222.773 111.754 221.807 113.524 219.715 114.007C217.624 114.489 215.725 114.138 216.899 112.317C218.126 110.414 218.926 109.103 219.072 108.133C219.217 107.165 223.738 107.409 223.738 107.409Z" fill="#FFF0E0"/>
<path fill-rule="evenodd" clip-rule="evenodd" d="M222.779 111.724C221.934 112.36 220.109 113.595 218.589 113.685C217.869 113.727 217.261 113.505 216.771 113.201C216.794 114.415 217.974 114.408 219.715 114.006C221.808 113.523 222.773 111.754 222.773 111.754L222.78 111.724H222.779Z" fill="#FFD3A3"/>
<path fill-rule="evenodd" clip-rule="evenodd" d="M209.926 105.075C209.793 104.09 208.33 101.793 209.527 99.9053C210.724 98.018 213.451 98.9207 213.385 100.726C213.318 102.531 212.853 104.911 212.321 105.239C211.789 105.567 209.926 105.075 209.926 105.075Z" fill="#FFF0E0"/>
<path fill-rule="evenodd" clip-rule="evenodd" d="M229.671 115.438C229.671 115.438 222.957 117.999 218.861 115.04C214.764 112.082 212.897 106.813 212.897 105.447C212.897 104.082 209.71 104.082 209.483 105.447C209.255 106.813 208.733 115.723 216.13 119.592C223.526 123.46 228.817 121.754 229.842 119.136C230.866 116.519 229.671 115.438 229.671 115.438Z" fill="url(#paint4_linear)"/>
<path fill-rule="evenodd" clip-rule="evenodd" d="M8.42836 154.043C9.25228 151.16 -1.45869 140.449 42.2091 127.678C85.8769 114.907 87.9367 154.043 129.957 155.279C171.977 156.515 176.92 130.15 202.874 126.854C228.827 123.558 244.894 159.399 264.668 146.628C284.442 133.857 288.561 140.037 288.561 140.037L280.322 151.572C280.322 151.572 273.319 150.748 258.9 154.043C244.482 157.339 208.641 129.326 198.342 133.033C188.043 136.741 175.684 157.751 145.611 161.459C115.538 165.166 97.4057 143.291 92.6743 139.419C86.6587 134.496 79.0839 122.751 54.5679 117.791C29.8614 112.792 1.47422 138.103 0.546367 146.651C-0.344862 154.862 2.82001 155.706 2.30148 155.878L8.42836 154.043Z" fill="white"/>
<path fill-rule="evenodd" clip-rule="evenodd" d="M193.575 92.0606C193.575 92.0606 192.297 89.5738 191.243 88.1953C190.189 86.8167 188.244 87.4742 187.484 87.8362C186.725 88.1981 187.703 90.3841 188.015 91.1388C188.328 91.8935 191.942 93.4729 192.656 93.3863C193.37 93.2997 193.575 92.0606 193.575 92.0606Z" fill="#FFF0E0"/>
<path fill-rule="evenodd" clip-rule="evenodd" d="M213.435 194.714C213.464 194.941 213.515 195.296 213.552 195.564C214.339 195.619 215.598 195.677 216.814 195.601C216.799 195.202 216.797 195.158 216.785 194.874C216.03 194.887 215.145 194.869 214.188 194.762C213.887 194.729 213.642 194.715 213.435 194.714H213.435Z" fill="#535353"/>
<path fill-rule="evenodd" clip-rule="evenodd" d="M215.84 195.006C215.84 195.006 218.173 195.77 219.541 195.127C220.909 194.483 220.346 199.954 220.748 202.046C221.15 204.138 222.599 204.702 220.265 206.794C217.932 208.886 216.162 209.771 214.392 209.61C212.622 209.449 212.38 209.127 212.863 208.242C213.346 207.357 216.966 205.506 216.806 201.725C216.645 197.943 215.84 195.006 215.84 195.006Z" fill="#A06D55"/>
<path fill-rule="evenodd" clip-rule="evenodd" d="M123.194 94.2186C123.194 94.2186 121.849 94.3887 121.834 98.7218C121.83 100.163 121.449 101.828 120.374 101.76C118.437 101.637 116.597 102.921 114.835 102.709C113.518 102.551 112.451 97.4071 113.062 96.5171C113.673 95.6271 123.194 94.2186 123.194 94.2186Z" fill="#D4A07D"/>
<path fill-rule="evenodd" clip-rule="evenodd" d="M116.009 100.869C114.015 100.895 114.848 101.886 116.823 102.014C117.344 102.047 117.847 102.052 118.319 102.042C119.2 101.699 119.567 102.338 120.823 101.671C120.391 101.491 119.333 101.153 117.042 100.921C116.637 100.881 116.294 100.865 116.009 100.869Z" fill="#C67251"/>
<path fill-rule="evenodd" clip-rule="evenodd" d="M114.529 100.085C114.398 100.477 112.997 102.767 113.481 103.415C113.965 104.063 118.012 105.266 118.551 104.664C119.091 104.061 119.424 101.44 119.039 101.138C118.653 100.836 114.529 100.085 114.529 100.085Z" fill="#D4A07D"/>
<path fill-rule="evenodd" clip-rule="evenodd" d="M107.461 143.601C107.12 144.202 104.617 142.9 105.186 154.615C105.755 166.331 98.0169 214.594 100.975 214.994C103.934 215.395 106.21 215.795 107.348 213.592C108.486 211.39 110.079 198.172 112.81 189.761C115.54 181.35 114.858 165.329 114.858 166.13C114.858 166.932 116.451 179.748 117.816 188.56C119.182 197.371 117.589 216.196 118.499 216.196C119.409 216.196 125.554 216.596 126.692 213.192C127.83 209.787 125.554 143.901 125.554 143.901L107.461 143.601Z" fill="#3C3C3C"/>
<path fill-rule="evenodd" clip-rule="evenodd" d="M119.864 102.741C109.886 103.546 108.921 94.8563 105.863 87.4539C102.806 80.0515 103.61 64.4421 103.61 64.4421L98.461 65.2467C98.461 65.2467 99.4265 88.5803 102.162 100.971C104.898 113.362 108.921 123.661 107.634 133.316C106.346 142.972 104.576 143.294 106.024 143.937C107.473 144.581 127.749 151.018 126.461 142.489C125.174 133.96 127.91 112.075 130.002 107.086C132.094 102.098 143.036 84.2355 143.841 76.8331C144.646 69.4307 138.852 73.6146 138.852 73.6146C138.37 79.6317 128.014 101.34 119.864 102.741Z" fill="url(#paint5_linear)"/>
<path fill-rule="evenodd" clip-rule="evenodd" d="M111.466 90.6964C109.052 93.8538 112.376 100.697 113.356 100.8C116.162 101.095 117.128 101.643 120.113 99.8187C122.546 98.3316 124.077 94.7626 123.042 91.9538C127.142 85.4814 111.684 87.2128 112.318 89.9399C112.411 90.337 111.696 90.4271 111.466 90.6964Z" fill="#3D3D3D"/>
<path fill-rule="evenodd" clip-rule="evenodd" d="M123.976 76.0061C123.952 75.7774 123.23 71.5386 123.133 71.5059C123.036 71.4733 121.02 70.9394 119.514 71.3935C118.008 71.8476 117.845 72.0355 118.458 73.0807C119.072 74.1259 120.301 76.3714 120.301 76.3714L123.976 76.0061Z" fill="#80AAE1"/>
<path fill-rule="evenodd" clip-rule="evenodd" d="M162.922 74.9588C162.922 74.704 162.995 73.8301 162.995 73.8301C162.995 73.8301 161.939 72.1552 162.157 70.9172C162.376 69.6792 163.359 69.6792 164.488 69.133C165.616 68.5868 166.09 67.7858 167.219 68.5868C168.347 69.3879 168.602 70.3346 167.947 71.3905C167.291 72.4464 166.235 72.8106 165.944 73.648C165.653 74.4855 165.689 75.0317 165.252 75.1773C164.815 75.3229 162.958 75.1045 162.922 74.9588Z" fill="#80AAE1"/>
<path fill-rule="evenodd" clip-rule="evenodd" d="M153.154 10.2959C153.154 10.2959 152.53 8.78269 152.441 6.73544C152.352 4.68821 150.661 2.72997 147.724 5.66731C144.786 8.60465 147.368 8.9607 148.436 10.4739C149.504 11.987 150.572 13.2332 151.907 12.4321C153.243 11.631 153.154 10.2959 153.154 10.2959Z" fill="#FFF0E0"/>
<path fill-rule="evenodd" clip-rule="evenodd" d="M153.936 8.47656L147.39 12.3789C147.39 12.3789 150.034 26.2257 155.95 33.275C161.866 40.3243 170.552 43.9749 169.293 44.7302C168.035 45.4855 155.824 55.0524 148.901 54.9265C141.977 54.8006 153.181 63.2346 155.95 64.6193C158.719 66.004 167.405 64.4934 175.084 59.2064C182.762 53.9194 184.525 52.6606 184.525 52.6606C184.525 52.6606 188.135 55.3357 206.471 51.2412C224.808 47.1467 226.744 46.1702 226.744 45.2801C226.744 44.39 225.52 40.9159 225.52 40.9159C225.52 40.9159 196.324 54.2676 176.92 41.806C157.516 29.3445 153.936 8.47656 153.936 8.47656Z" fill="#3287FA"/>
<path fill-rule="evenodd" clip-rule="evenodd" d="M149.027 55.8074C149.027 55.8074 120.2 43.7229 116.424 44.9817C112.647 46.2405 92.203 58.295 85.0794 63.9897C81.8439 66.5762 81.7983 66.6077 82.2659 67.2676C82.7241 67.9143 83.6477 69.2144 85.2052 69.2767C88.3523 69.4026 114.158 53.4157 116.801 53.2898C119.445 53.164 129.263 66.0038 142.858 64.9968C156.454 63.9897 149.027 55.8074 149.027 55.8074Z" fill="#3287FA"/>
<path fill-rule="evenodd" clip-rule="evenodd" d="M152.3 56.8145C152.3 56.8145 136.69 52.5345 134.424 53.6675C132.158 54.8004 132.788 63.2344 135.305 64.8708C137.823 66.5072 149.782 69.0249 154.44 65.3743C159.097 61.7238 152.3 56.8145 152.3 56.8145Z" fill="#3287FA"/>
<path fill-rule="evenodd" clip-rule="evenodd" d="M101.973 75.1851C101.706 75.5411 99.3025 75.1851 99.7476 76.2532C100.193 77.3214 100.727 77.4994 101.795 77.2324C102.863 76.9653 101.973 75.1851 101.973 75.1851Z" fill="white"/>
<path fill-rule="evenodd" clip-rule="evenodd" d="M134.802 53.5415C132.763 52.8949 112.898 70.1576 106.73 72.2976C100.562 74.4375 101.443 75.8222 102.576 77.081C103.709 78.3398 134.298 68.8988 138.956 63.2342C143.613 57.5697 134.802 53.5415 134.802 53.5415Z" fill="#3287FA"/>
<path fill-rule="evenodd" clip-rule="evenodd" d="M135.843 53.4773C135.2 53.4687 134.707 53.5257 134.424 53.6673C133.818 53.9706 133.53 54.463 133.319 55.5425C134.285 54.9473 134.9 54.9106 135.28 54.853C137.684 54.4889 149.554 57.5475 149.554 57.5475C149.554 57.5475 149.758 56.9514 149.882 56.178C146.153 55.2225 139.082 53.5206 135.843 53.4773Z" fill="#98C4FD"/>
<path fill-rule="evenodd" clip-rule="evenodd" d="M177.616 41.8013C176.081 42.1692 173.098 42.959 169.406 44.2879C169.393 44.3472 169.359 44.3994 169.29 44.4413C168.01 45.2149 155.595 55.0144 148.556 54.8854C141.516 54.7565 152.907 63.3954 155.723 64.8138C158.539 66.2321 167.37 64.6848 175.177 59.2694C181.727 54.7258 183.597 53.4001 184.173 52.99C184.588 51.7379 185.028 50.4311 185.48 49.1476C186.172 47.1846 187.294 46.3287 188.259 45.9628C187.508 45.8042 186.762 45.6168 186.019 45.4116C184.363 46.231 176.301 48.8197 175.596 48.6944C174.832 48.5585 179.238 43.0814 179.341 42.7851C178.759 42.4771 178.183 42.1506 177.616 41.8013Z" fill="white"/>
<path fill-rule="evenodd" clip-rule="evenodd" d="M188.962 41.4892C188.836 41.8039 187.829 43.9439 186.192 44.5733C184.556 45.2027 180.591 42.9368 179.772 42.1815C179.647 41.4262 179.127 40.073 180.685 38.9401C182.621 37.5326 188.962 41.4892 188.962 41.4892Z" fill="#494949"/>
<path fill-rule="evenodd" clip-rule="evenodd" d="M179.867 41.7405C179.867 41.8664 178.892 44.4469 180.591 45.4854C182.29 46.5239 183.329 45.7372 184.304 44.9819C185.28 44.2266 186.318 44.0378 185.248 42.9993C184.178 41.9608 180.843 41.2999 180.402 41.2999C179.962 41.2999 179.867 41.7405 179.867 41.7405Z" fill="#FFE4C9"/>
<path fill-rule="evenodd" clip-rule="evenodd" d="M179.664 38.6122C179.246 41.3985 179.176 43.4184 180.918 43.9757C182.659 44.5329 186.142 44.5329 188.162 42.4433C190.182 40.3536 193.038 36.9405 191.575 33.9454C190.112 30.9502 186.142 30.9502 184.609 31.0895C181.23 30.9491 180.102 36.0657 179.664 38.6122Z" fill="#FFF0E0"/>
<path fill-rule="evenodd" clip-rule="evenodd" d="M82.7789 68.6361C81.9607 68.6361 73.7498 65.7409 70.6657 65.1115C67.5817 64.4821 63.8053 64.6823 68.6516 69.1511C73.498 73.6198 77.8409 75.9486 81.3026 75.5081C84.7643 75.0675 85.2163 71.1767 84.9646 70.1696C84.7128 69.1626 82.7789 68.6361 82.7789 68.6361Z" fill="#A06D55"/>
<path fill-rule="evenodd" clip-rule="evenodd" d="M82.4353 67.5145C82.4353 67.5145 81.2394 68.5216 82.3094 69.4028C83.3794 70.284 85.1418 69.5916 85.1418 69.151C85.1418 68.7104 82.4353 67.5145 82.4353 67.5145Z" fill="white"/>
<path fill-rule="evenodd" clip-rule="evenodd" d="M100.638 75.0961C100.638 75.0961 98.8573 75.2741 97.2552 75.8972C95.653 76.5203 89.0661 81.2378 90.4903 82.662C91.9145 84.0861 93.1606 85.0652 95.5639 84.6202C97.9672 84.1751 101.943 77.9818 102.151 77.5884C102.425 77.0702 100.878 75.032 100.638 75.0961Z" fill="#A06D55"/>
<path fill-rule="evenodd" clip-rule="evenodd" d="M225.373 41.9609C225.373 41.9609 228.331 39.4433 229.401 40.9539C230.471 42.4644 230.219 43.7233 229.275 44.6045C228.331 45.4856 227.765 45.1709 226.946 44.6045C226.128 44.038 225.625 44.8562 225.499 43.9121C225.373 42.968 225.373 41.9609 225.373 41.9609Z" fill="#FFF0E0"/>
<path fill-rule="evenodd" clip-rule="evenodd" d="M190.005 35.0413C189.56 35.1304 182.884 34.8633 180.658 33.9733C178.433 33.0832 179.412 33.7062 181.281 32.1931C183.151 30.68 182.706 28.7218 188.046 30.2349C193.387 31.748 190.005 35.0413 190.005 35.0413Z" fill="#494949"/>
<path fill-rule="evenodd" clip-rule="evenodd" d="M188.678 34.4083C190.745 35.8324 188.823 38.9957 188.553 40.8911C188.333 42.4306 189.889 43.0759 190.981 43.0759C191.045 43.0759 191.012 43.0413 190.8 42.9351C190.313 42.6916 190.574 42.0718 190.756 41.7093C191.399 40.4227 192.362 39.8495 192.77 38.6253C193.041 37.8129 192.326 36.7936 192.014 36.1706C191.449 35.0394 192.944 34.4563 191.7 33.2125C190.833 32.3454 188.678 33.2718 188.678 34.4083Z" fill="#494949"/>
<path fill-rule="evenodd" clip-rule="evenodd" d="M189.016 40.1055C189.016 40.1055 190.243 39.6334 190.306 40.3257C190.369 41.018 189.866 41.6789 188.953 41.9306C188.04 42.1824 188.135 42.3397 187.914 42.0565C187.694 41.7733 189.016 40.1055 189.016 40.1055Z" fill="#FFF0E0"/>
<path fill-rule="evenodd" clip-rule="evenodd" d="M184.505 45.151C184.505 45.151 183.687 45.2769 181.421 45.7804C179.155 46.284 178.525 46.3469 178.525 46.8505C178.525 47.354 179.029 47.5428 178.588 48.1093C178.148 48.6758 186.362 45.8434 185.984 45.4972C185.606 45.151 184.505 45.151 184.505 45.151Z" fill="#494949"/>
<path fill-rule="evenodd" clip-rule="evenodd" d="M179.427 42.9996C179.427 43.1569 178.703 46.0836 178.451 46.3354C178.199 46.5871 177.255 46.3354 177.098 46.8703C176.94 47.4053 176.311 47.0277 176.437 46.1151C176.563 45.2024 178.042 42.5905 178.357 42.5905C178.671 42.5905 179.427 42.9996 179.427 42.9996Z" fill="#494949"/>
<path fill-rule="evenodd" clip-rule="evenodd" d="M178.671 49.1989C178.892 49.4821 181.818 50.4892 182.038 50.8983C182.259 51.3074 182.133 51.5592 181.629 51.2445C181.126 50.9298 178.388 49.8283 178.231 49.545C178.074 49.2618 178.671 49.1989 178.671 49.1989Z" fill="#494949"/>
<path fill-rule="evenodd" clip-rule="evenodd" d="M134.693 53.5241C132.145 53.4305 112.802 70.191 106.731 72.2975C104.428 73.0963 103.108 73.7901 102.417 74.4111C102.462 74.4239 102.51 74.4322 102.561 74.4322C104.003 74.4322 109.256 71.4455 114.096 68.9738C118.266 66.8447 130.784 56.9612 135.713 54.027C135.173 53.7153 134.802 53.5417 134.802 53.5417C134.77 53.5316 134.733 53.5256 134.693 53.5241Z" fill="#98C4FD"/>
<path fill-rule="evenodd" clip-rule="evenodd" d="M103.231 65.0792C103.231 64.8132 103.008 63.6159 102.562 62.1526C102.116 60.6893 100.722 60.4897 99.1051 60.8888C97.4883 61.2879 97.0981 62.6847 97.9343 64.2145C98.7706 65.7444 103.231 65.0792 103.231 65.0792Z" fill="#D4A07D"/>
<path fill-rule="evenodd" clip-rule="evenodd" d="M126.545 212.597C127.565 213.544 134.338 216.457 135.721 217.914C137.105 219.37 136.45 222.211 135.794 222.793C135.139 223.376 124.215 223.084 120.647 222.575C117.078 222.065 116.714 220.972 117.224 217.914C117.734 214.855 119.044 212.889 120.719 212.597C122.394 212.306 126.545 212.597 126.545 212.597Z" fill="white"/>
<path fill-rule="evenodd" clip-rule="evenodd" d="M100.547 213.981C100.547 213.981 106.847 213.18 107.356 214.491C107.866 215.802 111.325 220.026 108.849 221.118C106.373 222.21 101.931 222.138 100.401 220.972C98.8721 219.807 100.547 213.981 100.547 213.981Z" fill="white"/>
<path fill-rule="evenodd" clip-rule="evenodd" d="M216.227 195.979C216.168 195.98 216.121 195.984 216.07 195.987C216.122 196.229 216.178 196.504 216.237 196.823C217.164 196.9 219.054 197.003 220.425 196.712C220.431 196.711 220.435 196.71 220.44 196.709C220.417 196.485 220.39 196.273 220.356 196.085C219.599 196.152 218.329 196.207 216.926 196.029C216.645 195.994 216.415 195.979 216.227 195.979H216.227Z" fill="#535353"/>
<path fill-rule="evenodd" clip-rule="evenodd" d="M215.84 195.007C215.84 195.007 216.645 197.944 216.806 201.725C216.967 205.507 213.346 207.357 212.863 208.243C212.77 208.412 212.705 208.561 212.671 208.691C215.025 207.279 216.774 205.371 217.495 202.487C218.048 200.277 217.045 196.8 216.502 195.181C216.11 195.092 215.84 195.007 215.84 195.007Z" fill="#BE9785"/>
<path fill-rule="evenodd" clip-rule="evenodd" d="M183.468 98.6942C183.057 98.9155 182.576 99.0336 182.016 98.9746C179.352 98.6942 177.389 98.7406 176.969 99.4883C176.933 99.5526 176.911 99.6109 176.895 99.6664C177.52 100.139 178.497 100.405 180.025 100.405C180.425 100.381 180.906 100.336 181.465 100.272C182.148 100.042 182.849 99.4795 183.468 98.6942Z" fill="#FFC59C"/>
<path fill-rule="evenodd" clip-rule="evenodd" d="M121.739 97.067C121.996 96.861 122.666 96.4491 122.614 97.2215C122.563 97.9939 122.048 98.7148 121.533 99.0752C121.018 99.4357 121.327 98.7663 121.378 98.1998C121.43 97.6334 121.739 97.067 121.739 97.067Z" fill="#D4A07D"/>
<path fill-rule="evenodd" clip-rule="evenodd" d="M139.727 73.3566C139.727 72.8469 138.926 71.1719 139.217 70.2252C139.509 69.2785 141.111 68.6231 142.932 69.8611C144.752 71.0991 144.971 71.6089 144.315 73.3566C143.66 75.1044 143.296 74.7403 142.349 75.1044C141.402 75.4686 139.727 73.3566 139.727 73.3566Z" fill="#D4A07D"/>
<path fill-rule="evenodd" clip-rule="evenodd" d="M158.117 204.235C159.2 206.063 160.09 207.028 162.236 208.206C164.383 209.384 165.034 208.759 165.034 210.948C165.034 213.137 162.255 212.875 159.632 212.895C157.009 212.915 155.239 211.13 153.211 209.653C151.184 208.176 152.119 205.49 152.046 204.327C151.972 203.164 158.117 204.235 158.117 204.235Z" fill="#80AAE1"/>
<path fill-rule="evenodd" clip-rule="evenodd" d="M136.453 207.294C135.37 209.122 134.48 210.088 132.334 211.265C130.187 212.443 129.536 211.818 129.536 214.007C129.536 216.196 132.314 215.934 134.938 215.954C137.561 215.974 139.331 214.189 141.358 212.712C143.386 211.235 142.451 208.549 142.524 207.386C142.598 206.223 136.453 207.294 136.453 207.294Z" fill="#80AAE1"/>
<path d="M192.479 93.0217C190.327 93.6772 188.149 97.8667 188.266 99.2158C188.896 98.996 189.547 98.589 190.15 98.0371C190.752 97.4853 191.284 96.809 191.691 96.0788C192.274 95.0247 192.557 93.9291 192.479 93.0217Z" fill="#FF7E55"/>
<path fill-rule="evenodd" clip-rule="evenodd" d="M218.454 27.0486L215.906 27.6625C215.906 27.6625 216.433 26.1616 215.201 23.9437C213.968 21.7258 213.007 22.2926 213.007 22.2926L216.02 21.288C216.02 21.288 217.738 23.3035 218.113 25.1245C218.487 26.9456 218.454 27.0486 218.454 27.0486Z" fill="#C4FEB9"/>
<path fill-rule="evenodd" clip-rule="evenodd" d="M192.552 2.5387L190.456 3.93605C190.456 3.93605 191.859 4.54332 192.62 6.85995C193.38 9.17657 192.353 9.48475 192.353 9.48475L195.028 8.01427C195.028 8.01427 194.727 5.48739 193.687 4.03479C192.646 2.58219 192.552 2.5387 192.552 2.5387Z" fill="#FEF3B9"/>
<path fill-rule="evenodd" clip-rule="evenodd" d="M207.683 36.4536L210.097 37.452C210.097 37.452 208.793 38.3533 208.487 40.864C208.181 43.3748 209.288 43.4809 209.288 43.4809L206.269 42.5251C206.269 42.5251 206.065 39.8932 206.83 38.2051C207.595 36.517 207.683 36.4536 207.683 36.4536Z" fill="#98C4FD"/>
<path fill-rule="evenodd" clip-rule="evenodd" d="M181.816 16.7299L184.482 15.105C184.482 15.105 184.431 16.9988 186.637 19.064C188.842 21.1292 189.725 20.1361 189.725 20.1361L186.675 22.3736C186.675 22.3736 183.993 20.7147 182.904 18.7869C181.816 16.859 181.816 16.7299 181.816 16.7299Z" fill="#FEB9B9"/>
<path fill-rule="evenodd" clip-rule="evenodd" d="M106.435 18.0647L106.205 15.4013C106.205 15.4013 107.638 16.1621 110.063 15.2578C112.488 14.3535 112.063 13.2977 112.063 13.2977L112.616 16.4899C112.616 16.4899 110.321 17.9144 108.427 18.0144C106.534 18.1144 106.435 18.0647 106.435 18.0647Z" fill="#FEB9FB"/>
<path fill-rule="evenodd" clip-rule="evenodd" d="M101.138 28.7222L101.284 31.1769C101.284 31.1769 99.9848 30.4418 97.7328 31.2133C95.4808 31.9849 95.8454 32.9661 95.8454 32.9661L95.4157 30.0173C95.4157 30.0173 97.561 28.7643 99.3047 28.7191C101.048 28.674 101.138 28.7222 101.138 28.7222Z" fill="#FEB9B9"/>
<path fill-rule="evenodd" clip-rule="evenodd" d="M85.2197 31.323L88.268 33.1069C88.268 33.1069 86.3541 34.0721 85.4794 37.3774C84.6048 40.6826 86.0678 41.0297 86.0678 41.0297L82.2027 39.191C82.2027 39.191 82.4171 35.6291 83.7539 33.5104C85.0908 31.3916 85.2197 31.323 85.2197 31.323Z" fill="#98C4FD"/>
<path fill-rule="evenodd" clip-rule="evenodd" d="M136.232 2.58643L139.093 0.785034C139.093 0.785034 139.068 2.83689 141.489 5.03919C143.91 7.24149 144.851 6.15219 144.851 6.15219L141.582 8.62309C141.582 8.62309 138.652 6.86827 137.443 4.79728C136.233 2.72628 136.232 2.58643 136.232 2.58643Z" fill="#C4FEB9"/>
<path fill-rule="evenodd" clip-rule="evenodd" d="M243.275 28.4123L243.053 24.8793C243.053 24.8793 244.927 25.931 248.164 24.8093C251.402 23.6875 250.872 22.2767 250.872 22.2767L251.506 26.5197C251.506 26.5197 248.424 28.3341 245.914 28.4076C243.404 28.4811 243.275 28.4123 243.275 28.4123Z" fill="#FEB9FB"/>
<path fill-rule="evenodd" clip-rule="evenodd" d="M240.464 33.9564L240.105 36.045C240.105 36.045 241.288 35.5391 243.143 36.4143C244.998 37.2894 244.593 38.0952 244.593 38.0952L245.241 35.6104C245.241 35.6104 243.523 34.3329 242.034 34.1283C240.545 33.9237 240.464 33.9564 240.464 33.9564Z" fill="#FEF3B9"/>
<path fill-rule="evenodd" clip-rule="evenodd" d="M243.934 50.314L246.944 51.5408C246.944 51.5408 245.327 52.6702 244.962 55.7954C244.597 58.9206 245.975 59.0457 245.975 59.0457L242.214 57.8755C242.214 57.8755 241.944 54.6028 242.885 52.4981C243.826 50.3933 243.934 50.314 243.934 50.314Z" fill="#FEB9B9"/>
<path fill-rule="evenodd" clip-rule="evenodd" d="M261.802 47.7828L263.106 49.5064C263.106 49.5064 261.798 49.6027 260.528 51.2652C259.258 52.9278 260.003 53.4673 260.003 53.4673L258.25 51.5211C258.25 51.5211 259.207 49.5585 260.46 48.675C261.713 47.7914 261.802 47.7828 261.802 47.7828Z" fill="#C4FEB9"/>
<path fill-rule="evenodd" clip-rule="evenodd" d="M121.566 29.5632L118.819 31.9727C118.819 31.9727 120.953 32.5779 122.489 35.7636C124.025 38.9493 122.607 39.5885 122.607 39.5885L126.173 36.9634C126.173 36.9634 125.257 33.3876 123.484 31.4977C121.71 29.6077 121.566 29.5632 121.566 29.5632Z" fill="#FEF3B9"/>
<path fill-rule="evenodd" clip-rule="evenodd" d="M170.876 38.8213L172.934 39.997C172.934 39.997 171.657 40.6585 171.093 42.8833C170.53 45.108 171.514 45.3306 171.514 45.3306L168.907 44.1239C168.907 44.1239 169.025 41.7316 169.907 40.3C170.79 38.8683 170.876 38.8213 170.876 38.8213Z" fill="#FEF3B9" fill-opacity="0.988235"/>
<defs>
<linearGradient id="paint0_linear" x1="10.878" y1="136.239" x2="293.228" y2="135.074" gradientUnits="userSpaceOnUse">
<stop stop-color="#8BBBFC"/>
<stop offset="1" stop-color="#8BBBFC" stop-opacity="0"/>
</linearGradient>
<linearGradient id="paint1_linear" x1="129.085" y1="150.701" x2="133.045" y2="210.638" gradientUnits="userSpaceOnUse">
<stop stop-color="#F6F8FA"/>
<stop offset="1" stop-color="#D6E7FE" stop-opacity="0"/>
</linearGradient>
<linearGradient id="paint2_linear" x1="177.432" y1="90.1359" x2="242.859" y2="153.312" gradientUnits="userSpaceOnUse">
<stop stop-color="#FFE788"/>
<stop offset="0.400284" stop-color="#FFB352"/>
<stop offset="1" stop-color="#FFE788" stop-opacity="0"/>
</linearGradient>
<linearGradient id="paint3_linear" x1="222.183" y1="118.307" x2="205.708" y2="177.848" gradientUnits="userSpaceOnUse">
<stop stop-color="#FFE788"/>
<stop offset="0.482747" stop-color="#FFB352"/>
<stop offset="1" stop-color="#FFE788" stop-opacity="0"/>
</linearGradient>
<linearGradient id="paint4_linear" x1="205.334" y1="110.004" x2="235.406" y2="123.522" gradientUnits="userSpaceOnUse">
<stop stop-color="#FFE788"/>
<stop offset="0.482747" stop-color="#FFB352"/>
<stop offset="1" stop-color="#FFE788" stop-opacity="0"/>
</linearGradient>
<linearGradient id="paint5_linear" x1="116.587" y1="108.128" x2="117.758" y2="199.583" gradientUnits="userSpaceOnUse">
<stop stop-color="#FFE788"/>
<stop offset="0.424216" stop-color="#FFB352"/>
<stop offset="1" stop-color="#FFE788" stop-opacity="0"/>
</linearGradient>
</defs>
</svg>
