<svg width="296" height="203" viewBox="0 0 296 203" fill="none" xmlns="http://www.w3.org/2000/svg">
<path fill-rule="evenodd" clip-rule="evenodd" d="M197.214 103.607C198.478 105.151 213.504 114.982 215.189 117.79C216.874 120.599 213.363 124.531 212.24 124.25C211.116 123.969 190.894 109.786 190.192 107.258C189.49 104.73 197.214 103.607 197.214 103.607Z" fill="#F1F1F1"/>
<path fill-rule="evenodd" clip-rule="evenodd" d="M235.832 162.588C208.308 172.699 229.653 194.044 163.37 201.346C97.0867 208.649 26.8715 181.686 21.816 155.847C16.7605 130.008 43.1614 130.008 62.2599 130.008C81.3585 130.008 129.667 152.477 167.864 140.119C206.061 127.761 276.098 107.041 285.409 131.042C323.749 156.764 246.466 158.886 235.832 162.588Z" fill="#77AFFB"/>
<path fill-rule="evenodd" clip-rule="evenodd" d="M116.68 158.356C106.75 155.576 40.0208 138.894 37.2404 118.239C34.46 97.5852 111.119 132.936 144.881 128.169C178.643 123.403 201.68 82.4917 234.648 82.4917C267.615 82.4917 270.395 102.749 254.11 122.211C237.825 141.674 141.703 161.931 130.582 161.931C119.46 161.931 116.68 158.356 116.68 158.356Z" fill="#B4D4FF"/>
<path fill-rule="evenodd" clip-rule="evenodd" d="M161.823 58.606C161.823 58.606 161.677 60.4282 162.552 61.7403C163.427 63.0523 165.176 73.5485 161.677 84.6278C158.178 95.7072 157.304 99.2059 158.47 104.017C159.636 108.827 154.826 112.035 145.496 112.618C136.166 113.201 113.861 115.388 110.654 111.451C107.447 107.515 108.759 101.538 112.841 98.7686C116.923 95.9987 124.212 98.3312 126.836 88.2723C129.46 78.2135 125.524 71.6533 128.877 66.1137C132.23 60.574 142.507 54.8157 151.327 54.9615C160.147 55.1072 161.823 58.606 161.823 58.606Z" fill="#F9BD9C"/>
<path fill-rule="evenodd" clip-rule="evenodd" d="M170.295 175.069C170.295 175.069 169.433 177.489 170.362 178.971C171.284 180.44 170.057 180.293 171.232 181.683C172.489 183.172 175.444 183.628 175.722 181.411C175.997 179.216 175.586 176.857 174.636 175.313C173.687 173.768 170.295 175.069 170.295 175.069Z" fill="#FFF7F1"/>
<path fill-rule="evenodd" clip-rule="evenodd" d="M155.127 100.846C155.127 100.846 150.521 118.305 160.387 147.995C170.252 177.685 168.989 175.182 168.989 175.182C168.989 175.182 176.587 176.816 176.246 176.037C175.904 175.259 165.078 132.557 163.373 120.09C161.669 107.624 162.69 108.023 161.812 103.739C160.197 95.8495 155.28 99.5304 155.127 100.846Z" fill="#D6E7FE"/>
<path fill-rule="evenodd" clip-rule="evenodd" d="M97.7894 82.8229C97.7894 82.8229 97.3681 96.585 97.649 97.4276C97.9299 98.2702 88.2401 107.539 84.1676 108.1C80.0951 108.662 85.4315 100.798 85.5719 98.1298C85.7123 95.4616 85.0102 87.5975 90.487 85.2102C95.9638 82.8229 97.7894 82.8229 97.7894 82.8229Z" fill="#FDECDF"/>
<path fill-rule="evenodd" clip-rule="evenodd" d="M83.8185 100.51C83.8185 100.51 69.3155 107.569 66.3635 108.724C63.4116 109.879 64.3975 109.346 56.9534 102.415C49.5094 95.4846 48.3951 92.809 47.625 89.7287C46.855 86.6484 44.4424 86.4824 42.7739 83.6588C41.1054 80.8352 37.5118 82.3754 36.1 84.0439C34.6882 85.7124 35.4582 86.7391 34.4315 88.2793C33.4047 89.8194 35.3039 91.7822 38.2558 93.8357C41.2078 95.8893 42.7479 94.3491 43.7747 96.531C44.8014 98.7129 54.299 117.965 59.1762 120.147C64.0533 122.329 70.7273 120.788 76.8879 115.911C83.0484 111.034 83.8185 100.51 83.8185 100.51Z" fill="#FBD3B4"/>
<path fill-rule="evenodd" clip-rule="evenodd" d="M66.2168 108.232C65.4187 108.644 68.9506 120.95 71.1175 120.12C72.166 119.719 90.5389 110.5 91.265 107.687C91.991 104.874 85.0937 100.79 83.0063 100.699C80.919 100.608 66.2168 108.232 66.2168 108.232Z" fill="#4D8BDF"/>
<path fill-rule="evenodd" clip-rule="evenodd" d="M76.5413 175.256C69.0208 175.295 62.1891 175.746 61.6678 177.223C61.2427 178.428 60.9462 182.68 60.7378 187.706C70.6966 191.742 82.0747 195.182 94.3016 197.732C95.4897 193.773 96.8233 189.522 97.6147 185.961C99.2034 178.812 97.0187 175.833 97.0187 175.833C97.0187 175.833 86.2105 175.205 76.5413 175.256Z" fill="#6B92C7"/>
<path fill-rule="evenodd" clip-rule="evenodd" d="M97.8818 95.3624C97.8818 95.3624 110.428 107.679 109.024 122.705C107.62 137.731 100.793 177.025 97.6152 177.422C94.4376 177.819 69.2155 178.614 65.0449 179.607C60.8744 180.6 58.4912 180.6 60.08 172.457C61.6688 164.314 72.9889 141.078 73.3861 130.354C73.7833 119.63 74.7589 111.892 78.5505 104.59C82.3421 97.2873 97.8818 95.3624 97.8818 95.3624Z" fill="#D6E7FE"/>
<path fill-rule="evenodd" clip-rule="evenodd" d="M101.885 125.985C104.732 127.883 88.7665 154.841 83.9113 152.796C81.07 151.599 79.3435 145.448 81.5281 138.298C83.7127 131.148 93.4441 124.595 97.416 125.786C101.388 126.978 101.885 125.985 101.885 125.985Z" fill="#A1C5F7"/>
<path fill-rule="evenodd" clip-rule="evenodd" d="M96.2088 95.6271C95.2728 95.7931 94.0147 96.0457 92.5747 96.4066L92.0317 96.8658C92.8743 98.551 93.7164 105.573 94.2781 109.224C94.8067 112.66 87.3596 170.976 86.4524 178.055C88.0964 177.975 89.8644 177.886 91.2745 177.815C92.829 165.898 99.3052 114.289 99.0534 109.504C98.8454 105.554 97.1022 98.8513 96.2088 95.6271Z" fill="white"/>
<path fill-rule="evenodd" clip-rule="evenodd" d="M96.158 125.649C95.164 125.689 93.9857 126.02 92.7343 126.576C91.939 133.671 90.9461 141.958 89.9734 149.91C91.8045 148.266 93.7395 146.117 95.4929 143.878C96.2509 137.553 96.9837 131.299 97.5872 125.845C97.53 125.825 97.4749 125.804 97.4159 125.786C97.0435 125.675 96.6206 125.63 96.158 125.649Z" fill="#F3F3F3"/>
<path fill-rule="evenodd" clip-rule="evenodd" d="M75.6693 76.7323C75.6693 76.7323 64.945 78.2218 65.1436 71.4694C65.3422 64.7171 75.6693 53.2976 84.0105 52.6025C92.3517 51.9074 99.0047 52.7018 101.487 55.085C103.97 57.4682 107.942 68.0932 105.062 74.2498C102.182 80.4064 99.4019 86.563 99.0047 88.4497C98.6075 90.3363 98.111 91.0314 96.7208 91.5279C95.3306 92.0244 80.7336 87.1588 78.0525 82.6903C75.3714 78.2218 75.6693 76.7323 75.6693 76.7323Z" fill="#C17F7F"/>
<path fill-rule="evenodd" clip-rule="evenodd" d="M121.363 164.836C120.272 164.838 119.65 164.845 119.65 164.845C119.65 164.845 114.29 169.306 113.053 182.691C111.816 196.076 113.053 199.129 113.053 199.129C113.053 199.129 119.539 200.79 127.424 202.15C136.253 202.681 145.238 202.708 154.21 202.138C161.401 199.446 159.441 197.016 159.441 197.016C159.441 197.016 163.151 175.646 161.296 170.01C159.672 165.079 129.005 164.823 121.363 164.836Z" fill="#D6E7FE"/>
<path fill-rule="evenodd" clip-rule="evenodd" d="M157.485 98.5028C157.485 98.5028 137.234 93.173 122.316 97.5635C107.949 101.792 129.707 134.678 127.315 146.255C127.163 146.991 128.102 144.266 127.737 144.782C124.665 149.126 117.712 161.648 116.366 165.191C127.915 171.119 147.791 171.313 160.493 171.129C166.689 170.757 159.737 154.034 159.226 143.033C158.643 130.495 166.634 136.341 166.051 127.594C165.468 118.848 163.798 114.89 162.78 112.205C161.415 108.604 160.011 101.524 157.485 98.5028Z" fill="#6B92C7"/>
<path fill-rule="evenodd" clip-rule="evenodd" d="M121.538 121.875C124.722 132.378 129.142 143.431 129.377 150.033C137.083 152.024 141.949 153.811 149.282 146.669C151.737 144.277 158.703 136.623 160.542 135.443C161.696 132.178 163.307 129.428 164.544 126.698C159.339 122.112 140.064 134.238 125.65 124.04C124.492 123.221 122.89 122.911 121.538 121.875Z" fill="url(#paint0_linear)"/>
<path fill-rule="evenodd" clip-rule="evenodd" d="M120.434 98.3239C124.006 102.605 122.641 109.731 122.515 115.932C122.309 125.21 123.163 141.802 129.348 143.658C135.533 145.513 145.429 140.153 147.285 142.008C149.14 143.864 150.79 146.75 149.965 147.781C149.14 148.812 124.813 155.409 120.896 153.966C116.979 152.523 108.938 126.546 110.381 114.382C111.824 102.218 112.443 104.074 114.298 102.218C116.154 100.363 120.434 98.3239 120.434 98.3239Z" fill="#D6E7FE"/>
<path fill-rule="evenodd" clip-rule="evenodd" d="M168.821 137.945C167.8 137.945 127.856 137.362 131.938 138.382C136.02 139.402 140.102 140.277 143.892 140.131C147.682 139.985 168.821 137.945 168.821 137.945Z" fill="white"/>
<path fill-rule="evenodd" clip-rule="evenodd" d="M147.697 142.627C147.697 142.627 151.614 139.122 153.469 138.71C155.325 138.297 163.159 136.648 163.159 138.916C163.159 141.184 156.15 145.307 153.469 146.132C150.789 146.956 148.315 147.575 148.315 146.338C148.315 145.101 147.697 142.627 147.697 142.627Z" fill="#FFF7F1"/>
<path fill-rule="evenodd" clip-rule="evenodd" d="M147.173 89.6084C147.173 89.9931 147.301 98.7753 145.955 101.275C144.609 103.775 142.493 105.314 140.89 104.416C139.288 103.519 137.814 100.122 138.134 96.7881C138.455 93.4547 139.929 89.352 140.955 88.9674C141.98 88.5828 147.173 89.6084 147.173 89.6084Z" fill="#FFF7F1"/>
<path fill-rule="evenodd" clip-rule="evenodd" d="M185.471 83.47L187.399 97.6735C192.609 100.402 196.102 101.435 197.803 100.573C199.543 99.6913 195.975 97.375 197.312 91.7589C193.325 86.9677 186.091 83.5717 185.471 83.47Z" fill="#F8D4B8"/>
<path fill-rule="evenodd" clip-rule="evenodd" d="M202.386 151.01C194.196 151.187 189.392 155.826 185.558 161.745C185.558 161.745 183.311 166.519 185.277 173.541C186.508 177.936 189.816 188.424 192.211 195.954C211.441 190.102 215.029 181.903 220.207 174.548C219.915 173.083 219.601 171.662 219.261 170.361C216.685 160.511 215.877 153.832 215.877 153.832C210.529 151.771 206.108 150.929 202.386 151.01Z" fill="#6B92C7"/>
<path fill-rule="evenodd" clip-rule="evenodd" d="M74.5776 63.0288C74.5776 63.0288 71.7973 90.8325 79.5426 94.2087C87.2879 97.5849 96.8207 86.0662 98.8067 81.1012C100.793 76.1363 103.176 65.6106 94.0403 62.8302C84.9048 60.0498 74.5776 63.0288 74.5776 63.0288Z" fill="#FDECDF"/>
<path fill-rule="evenodd" clip-rule="evenodd" d="M98.5083 75.1434C98.5083 75.1434 96.1251 76.8315 93.7419 77.9238C91.3587 79.0161 96.423 66.0079 91.2594 64.4191C86.0958 62.8303 83.3154 63.3268 77.7547 67.5967C72.1939 71.8665 72.5911 70.675 70.3072 68.0932C68.0233 65.5114 77.3575 47.8361 93.5433 52.9004C109.729 57.9647 98.5083 75.1434 98.5083 75.1434Z" fill="#C08080"/>
<path fill-rule="evenodd" clip-rule="evenodd" d="M98.2829 72.8088C98.406 72.0466 101.644 69.6158 102.568 71.8845C103.493 74.1533 102.484 75.4977 101.476 76.7581C100.468 78.0186 97.8084 79.6661 96.8001 78.8258C95.7918 77.9855 98.2829 72.8088 98.2829 72.8088Z" fill="#FDECDF"/>
<path fill-rule="evenodd" clip-rule="evenodd" d="M143.574 95.7055C137.607 94.9826 133.781 89.7267 133.059 79.5215C132.424 70.5385 138.626 60.5543 146.666 62.2036C166.065 66.8788 152.19 95.9761 143.574 95.7055Z" fill="#FFF7F1"/>
<path fill-rule="evenodd" clip-rule="evenodd" d="M161.824 61.157C161.095 63.4895 155.847 78.9423 139.228 79.5255C108.96 74.4447 142.412 51.1363 154.414 54.9592C164.035 58.1664 161.824 61.157 161.824 61.157Z" fill="#F9BD9C"/>
<path fill-rule="evenodd" clip-rule="evenodd" d="M131.8 138.143C131.8 138.143 143.316 141.905 155.995 139.122C168.675 136.339 159.449 139.998 153.934 140.462C148.419 140.926 142.388 140.616 139.038 140.049C135.688 139.483 131.756 138.394 131.674 138.355C131.497 138.271 131.702 138.147 131.8 138.143Z" fill="#77AFFB"/>
<path fill-rule="evenodd" clip-rule="evenodd" d="M207.001 69.5081C207.001 69.5081 208.523 78.3895 208.523 81.4345C208.523 84.4796 204.463 91.3309 202.18 92.0922C199.896 92.8534 189.492 89.5546 187.716 86.0021C185.939 82.4495 185.178 69.7618 188.984 67.4781C192.791 65.1943 195.836 64.9405 199.135 65.448C202.433 65.9555 207.001 69.5081 207.001 69.5081Z" fill="#F8D4B8"/>
<path fill-rule="evenodd" clip-rule="evenodd" d="M189.643 72.9928C189.554 73.8002 189.464 78.8243 189.284 80.2597C189.105 81.6952 189.666 85.6299 188.028 87.1814C182.63 88.4705 179.192 79.4599 179.064 78.8435C178.346 75.3446 176.931 63.5449 181.879 60.1193C186.828 56.6936 196.09 55.8055 201.926 60.2461C207.762 64.6868 207.382 71.1576 207.382 71.1576L189.643 72.9928Z" fill="#444444"/>
<path fill-rule="evenodd" clip-rule="evenodd" d="M207.503 70.3204C207.503 70.3204 208.58 63.1432 202.838 59.3752C197.096 55.6072 197.096 56.3249 197.096 56.3249C197.096 56.3249 190.457 53.8129 184.177 57.4015C181.973 58.6612 179.965 60.5322 178.956 62.9829C177.183 67.2874 178.486 72.2455 178.569 76.3211C188.188 72.7937 197.219 71.2666 207.503 70.3204Z" fill="#AED4FF"/>
<path fill-rule="evenodd" clip-rule="evenodd" d="M189.938 75.4243C189.938 75.4243 188.144 72.973 186.515 74.6498C184.885 76.3267 186.855 79.8406 188.898 80.189C190.94 80.5375 190.492 77.3299 190.254 76.7079C190.015 76.0858 189.938 75.4243 189.938 75.4243Z" fill="#F8D4B8"/>
<path fill-rule="evenodd" clip-rule="evenodd" d="M207.398 66.7089C200.163 68.9588 181.919 74.4981 178.438 74.1714C178.501 74.9062 178.554 75.6294 178.568 76.3209C187.898 72.8664 197.664 71.6136 207.504 70.3207C207.504 70.3207 207.518 70.2229 207.534 70.0442C207.548 69.8828 207.563 69.637 207.571 69.3561C207.572 69.328 207.574 69.3115 207.575 69.2824C207.575 69.2804 207.575 69.2781 207.575 69.2762C207.59 68.6315 207.564 67.7344 207.4 66.7181C207.4 66.715 207.399 66.712 207.398 66.7089L207.398 66.7089Z" fill="#1884FF"/>
<path fill-rule="evenodd" clip-rule="evenodd" d="M193.709 55.5878C191.314 57.3047 189.921 60.9058 190.01 61.6832C190.077 62.2679 190.519 68.1146 191.013 72.4442C194.261 71.8075 198.635 71.2574 202.102 70.8729C204.07 70.6192 205.909 70.4132 207.513 70.2424C207.57 69.8208 208.402 63.0266 202.839 59.3754C200.057 57.043 196.763 55.6379 193.709 55.5878Z" fill="#3A96FF"/>
<path fill-rule="evenodd" clip-rule="evenodd" d="M146.862 94.6098C146.709 95.0714 146.291 96.563 144.191 97.3593C142.092 98.1556 138.336 95.3149 138.528 94.1504C138.855 92.1707 146.702 93.3182 146.862 94.6098V94.6098Z" fill="#FFD6C9"/>
<path fill-rule="evenodd" clip-rule="evenodd" d="M189.591 72.4507C190.584 72.6493 216.476 67.8945 217.469 68.4903C218.462 69.0861 218.562 69.9798 217.569 70.1783C216.576 70.3769 192.843 73.2566 190.956 73.5545C189.07 73.8524 189.591 72.4507 189.591 72.4507Z" fill="#0077FF"/>
<path fill-rule="evenodd" clip-rule="evenodd" d="M28.0057 135.021C28.0057 135.021 23.9344 134.822 23.2393 135.716C22.5442 136.61 28.105 162.924 28.105 162.924C28.105 162.924 32.8714 162.825 32.8714 162.428C32.8714 162.03 28.0057 135.021 28.0057 135.021Z" fill="#D6F1FE"/>
<path fill-rule="evenodd" clip-rule="evenodd" d="M77.1589 128.368C77.1589 128.368 68.2496 132.648 65.0603 133.967C56.8655 137.356 48.0506 140.109 40.6167 140.681C30.2895 141.475 24.133 139.489 22.7428 144.454C21.3526 149.419 23.14 154.583 23.14 154.583C23.079 154.766 31.0932 155.548 34.0629 153.192C34.6442 152.731 35.8562 152.051 36.8901 151.902C40.4624 151.386 44.7622 150.356 56.2457 149.926C66.3303 149.548 69.0186 149.492 73.839 147.99C75.7406 147.398 84.1216 143.281 85.3014 142.27C89.472 138.695 77.1589 128.368 77.1589 128.368Z" fill="#FDECDF"/>
<path fill-rule="evenodd" clip-rule="evenodd" d="M97.4162 110.097C97.4162 110.097 94.4372 104.735 85.8974 115.062C77.3577 125.389 74.7759 126.581 74.7759 126.581C74.7759 126.581 77.987 134.445 80.3367 137.702C82.2109 140.301 84.0366 143.374 85.329 144.442C86.7339 145.603 86.504 145.022 88.4792 143.66C93.6394 140.102 102.58 132.34 102.381 124.595C102.183 116.849 97.4162 110.097 97.4162 110.097Z" fill="#3287FA"/>
<path fill-rule="evenodd" clip-rule="evenodd" d="M28.1049 159.548C27.7452 159.924 19.7685 156.716 19.0686 156.768C16.9308 156.925 18.1749 159.151 22.842 160.541C27.5091 161.931 29.1972 163.023 29.0979 162.229C28.9986 161.435 28.1049 159.548 28.1049 159.548Z" fill="#D6F1FE"/>
<path fill-rule="evenodd" clip-rule="evenodd" d="M21.055 162.726C20.7571 160.442 13.4089 134.723 11.9194 132.439C10.4299 130.156 2.28738 124.198 0.202092 125.389C-1.88319 126.581 12.8131 172.854 14.6998 172.656C16.5865 172.457 17.4802 170.372 19.2676 167.194C21.055 164.017 21.055 162.726 21.055 162.726Z" fill="#D6F1FE"/>
<path fill-rule="evenodd" clip-rule="evenodd" d="M28.6013 169.081C28.6013 169.577 29.5943 172.059 28.1048 172.059C26.6153 172.059 17.579 168.882 17.579 168.088C17.579 167.293 17.1818 165.704 19.6643 166.102C22.1468 166.499 28.6013 169.081 28.6013 169.081Z" fill="#D6F1FE"/>
<path d="M22.8421 174.283C24.3168 174.283 25.5123 173.087 25.5123 171.613C25.5123 170.138 24.3168 168.943 22.8421 168.943C21.3674 168.943 20.1719 170.138 20.1719 171.613C20.1719 173.087 21.3674 174.283 22.8421 174.283Z" fill="#D6F1FE"/>
<path fill-rule="evenodd" clip-rule="evenodd" d="M0.937814 125.234C0.646316 125.229 0.397586 125.277 0.20209 125.389C-1.8832 126.58 12.8133 172.854 14.7 172.656C16.2091 172.497 17.1009 171.094 18.3049 168.928C16.6008 166.565 16.0757 167.205 14.5843 163.22C9.92111 150.76 4.96337 134.102 5.25847 126.969C3.59015 125.97 1.98668 125.252 0.937814 125.234Z" fill="#D6F1FE"/>
<path fill-rule="evenodd" clip-rule="evenodd" d="M26.8145 141.475C26.8145 141.475 27.8074 139.291 30.0913 139.489C32.3752 139.688 34.1626 141.277 34.1626 141.277C34.1626 141.277 32.5738 142.369 30.0913 142.171C27.6088 141.972 26.8145 141.475 26.8145 141.475Z" fill="#FDECDF"/>
<path fill-rule="evenodd" clip-rule="evenodd" d="M268.23 134.624C249.742 134.512 215.781 137.305 215.781 137.305C215.781 137.305 215.899 145.208 217.809 168.65C218.415 176.085 218.887 181.261 219.384 184.888C222.771 182.259 228.076 179.835 234.167 177.517C234.659 177.326 235.16 177.137 235.67 176.949C235.772 176.912 235.869 176.874 235.971 176.836C235.972 176.837 235.973 176.837 235.975 176.838C256.463 169.398 291.349 164.564 288.469 154.781C287.277 151.008 283.305 139.489 279.73 135.915C278.836 135.021 274.393 134.661 268.23 134.624V134.624Z" fill="#C7E3FD"/>
<path fill-rule="evenodd" clip-rule="evenodd" d="M268.655 134.507C250.019 134.395 215.787 137.21 215.787 137.21C215.787 137.21 214.661 140.673 215.108 149.238C228.017 147.649 269.211 146.641 285.493 146.343C283.805 142.162 282.221 137.783 280.246 135.808C279.345 134.908 274.867 134.545 268.655 134.507Z" fill="#88C0FF"/>
<path fill-rule="evenodd" clip-rule="evenodd" d="M222.492 142.226C222.492 142.226 247.207 139.698 247.348 141.102C247.488 142.506 246.786 143.489 246.224 143.489C245.663 143.489 222.351 145.034 222.07 144.472C221.789 143.911 222.492 142.226 222.492 142.226Z" fill="#AED4FF"/>
<path d="M254.011 185.366C263.06 185.366 270.396 178.03 270.396 168.981C270.396 159.933 263.06 152.597 254.011 152.597C244.963 152.597 237.627 159.933 237.627 168.981C237.627 178.03 244.963 185.366 254.011 185.366Z" fill="#8FC4FF"/>
<path fill-rule="evenodd" clip-rule="evenodd" d="M200.502 101.638C197.7 98.5862 189.984 95.5201 185.277 97.1467C181.217 98.5501 173.481 109.785 175.447 124.39C177.413 138.995 179.379 139.557 181.064 150.229C182.75 160.902 183.873 163.149 185.558 163.43C187.243 163.711 218.138 164.273 217.857 159.498C217.576 154.723 212.1 124.671 210.976 119.896C209.853 115.122 200.502 101.638 200.502 101.638Z" fill="#3287FA"/>
<path fill-rule="evenodd" clip-rule="evenodd" d="M213.211 120.154C214.268 118.713 213.884 116.215 218.303 118.233C222.722 120.25 224.97 126.62 224.682 129.406C224.394 132.192 222.28 132.288 221.416 131.039C220.551 129.79 213.211 120.154 213.211 120.154Z" fill="#F8D4B8"/>
<path fill-rule="evenodd" clip-rule="evenodd" d="M192.786 102.648C191.502 101.776 188.168 99.2332 182.681 102.956C177.195 106.678 178.034 119.874 201.15 130.727C224.265 141.581 225.739 142.711 226.041 134.63C226.343 126.549 192.786 102.648 192.786 102.648Z" fill="white"/>
<path fill-rule="evenodd" clip-rule="evenodd" d="M186.471 97.2874C186.471 97.2874 185.348 96.3746 185.909 95.8129C186.471 95.2511 192.159 95.532 196.021 97.6385C199.882 99.7449 199.882 99.8152 199.953 100.517C200.023 101.219 200.585 101.781 200.023 101.781C199.461 101.781 194.125 97.5683 190.825 97.5683C187.524 97.5683 186.471 97.2874 186.471 97.2874Z" fill="#F1F8FF"/>
<path fill-rule="evenodd" clip-rule="evenodd" d="M189.549 114.176C187.693 114.176 156.975 116.032 156.975 116.032L142.131 140.359C142.131 140.359 156.15 140.153 166.458 138.091C176.766 136.029 189.549 114.176 189.549 114.176Z" fill="#77AFFB"/>
<path d="M38.7925 75.2034L35.106 72.8035L33.9435 74.5891L37.6301 76.9891L38.7925 75.2034Z" fill="#C2E6F8"/>
<path fill-rule="evenodd" clip-rule="evenodd" d="M52.2533 81.0897C52.437 80.6294 50.808 75.2327 44.0579 74.5946C38.6594 74.0843 38.712 73.8981 38.712 73.8981L31.8555 83.005C31.8555 83.005 37.1954 80.6819 39.0138 79.314C40.8322 77.9461 46.8663 86.5138 49.0675 85.627C51.2686 84.7402 52.2533 81.0897 52.2533 81.0897Z" fill="#C2E6F8"/>
<path fill-rule="evenodd" clip-rule="evenodd" d="M48.7686 84.2147C51.9842 85.9035 44.0412 87.0224 40.953 91.8071C40.7883 92.0621 40.2717 94.0968 39.9655 95.7208C39.6809 97.2304 38.3163 99.7729 38.206 99.9801C35.0886 105.838 32.9783 108.554 30.5158 110.198C28.0533 111.843 25.8819 109.466 19.4929 105.578C14.2449 102.384 14.6453 99.31 17.0709 96.1137C19.409 93.0327 26.7911 93.9134 37.5175 87.155C43.2271 83.5575 40.8234 80.0418 43.2368 81.3094L48.7686 84.2147Z" fill="#D6F1FE"/>
<path fill-rule="evenodd" clip-rule="evenodd" d="M46.6687 88.3027C46.6687 88.3027 45.5353 85.2804 43.8352 85.2804C42.1352 85.2804 40.0573 87.5471 40.4351 88.9638C40.8129 90.3806 44.7797 90.0028 45.8187 89.625C46.8576 89.2472 46.6687 88.3027 46.6687 88.3027Z" fill="#FBD3B4"/>
<path fill-rule="evenodd" clip-rule="evenodd" d="M41.5931 82.4648C41.5931 82.4648 41.9138 82.4785 42.3438 83.0687C42.7738 83.659 39.5457 89.0722 37.5095 89.4935C35.4732 89.9148 34.1523 89.097 34.1523 89.097C34.1523 89.097 36.6142 85.1753 38.3696 84.0519C40.125 82.9284 41.5931 82.4648 41.5931 82.4648Z" fill="#FBD3B4"/>
<g clip-path="url(#clip0)">
<path d="M134.702 21.5322L139.317 26.1443L136.428 29.0316C134.589 27.7529 133.675 23.8618 134.702 21.5322ZM143.087 25.3258C140.709 23.0502 138.38 20.7164 136.1 18.3244C134.884 17.0325 134.219 15.3179 134.245 13.5439C134.272 11.7699 134.987 10.0758 136.241 8.82059C138.517 6.53025 140.798 4.25456 143.084 1.99354C144.376 0.711612 146.124 -0.00512236 147.944 0.000768449C149.764 0.00665926 151.507 0.734694 152.791 2.02496L157.89 7.11619C157.957 7.18059 158.018 7.25285 158.092 7.31569L155.169 10.2391L154.907 9.99404L149.88 4.95937C149.629 4.69599 149.328 4.48589 148.995 4.34165C148.661 4.1974 148.302 4.122 147.939 4.11994C147.576 4.11789 147.216 4.18923 146.88 4.3297C146.545 4.47016 146.242 4.67685 145.989 4.93737L139.213 11.7126C138.958 11.964 138.755 12.2635 138.616 12.5938C138.478 12.9241 138.406 13.2786 138.404 13.6369C138.411 14.0855 138.522 14.5264 138.73 14.9241C138.938 15.3219 139.236 15.6654 139.6 15.9273L142.528 18.8004C143.764 20.0665 144.961 21.3625 146.224 22.5595C146.729 22.9914 147.378 23.2168 148.042 23.1906C148.706 23.1644 149.335 22.8885 149.804 22.4181C150.433 21.8008 151.052 21.174 151.677 20.5488L153.405 18.8208L156.297 21.8055L156.284 21.7945C156.206 21.8683 156.127 21.9406 156.042 22.0176L152.891 25.1688C152.242 25.8413 151.467 26.3789 150.609 26.7504C149.751 27.1219 148.829 27.3201 147.894 27.3334C146.091 27.3163 144.366 26.5954 143.087 25.3243V25.3258Z" fill="url(#paint1_linear)"/>
<path d="M147.924 37.7012C146.159 37.7041 144.461 37.0215 143.189 35.7973C141.922 34.5783 140.666 33.3091 139.452 32.0822C138.962 31.5889 138.406 31.0281 137.859 30.4783C137.838 30.4566 137.819 30.4335 137.801 30.4092L137.778 30.3794L140.695 27.4701L140.901 27.6617L145.927 32.6886C146.187 32.96 146.498 33.1774 146.843 33.3281C147.187 33.4788 147.558 33.5599 147.933 33.5667C148.662 33.556 149.357 33.2566 149.866 32.7341C152.139 30.4862 154.409 28.2163 156.62 25.9793C156.879 25.7308 157.087 25.4333 157.23 25.104C157.373 24.7747 157.449 24.4203 157.454 24.0613C157.438 23.6244 157.328 23.1962 157.131 22.8058C156.934 22.4155 156.656 22.0721 156.314 21.7992L153.422 18.8145C153.313 18.7397 153.208 18.6589 153.108 18.5726L149.952 15.4214C149.692 15.1431 149.379 14.9196 149.031 14.7642C148.683 14.6088 148.308 14.5246 147.927 14.5166C147.546 14.5246 147.169 14.6087 146.821 14.7641C146.472 14.9195 146.158 15.143 145.897 15.4214C144.847 16.4708 143.777 17.5343 142.647 18.6637C142.592 18.7218 142.541 18.7815 142.53 18.7941L139.603 15.9225C139.72 15.7687 139.845 15.6208 139.977 15.4795L140.616 14.8355C141.46 13.9856 142.333 13.1075 143.208 12.2671C144.339 11.1637 145.832 10.5093 147.41 10.426C147.599 10.4103 147.79 10.4025 147.979 10.4025C148.894 10.4024 149.799 10.5878 150.641 10.9474C151.482 11.307 152.242 11.8335 152.874 12.4949L159.537 19.1428C160.774 20.361 161.503 22.0022 161.578 23.7362C161.654 25.4703 161.07 27.1686 159.944 28.4896C159.84 28.6201 159.726 28.7429 159.603 28.8572L152.808 35.6497C152.172 36.3001 151.412 36.8166 150.573 37.1689C149.734 37.5213 148.834 37.7023 147.924 37.7012ZM161.168 16.155L156.57 11.5539L159.456 8.66663C160.326 9.49495 160.962 10.538 161.3 11.6906C161.697 13.1589 161.65 14.7118 161.165 16.1534L161.168 16.155Z" fill="url(#paint2_linear)"/>
</g>
<defs>
<linearGradient id="paint0_linear" x1="141.058" y1="122.936" x2="141.794" y2="134.592" gradientUnits="userSpaceOnUse">
<stop stop-color="#5A85C0"/>
<stop offset="1" stop-color="#4D7CBC" stop-opacity="0"/>
</linearGradient>
<linearGradient id="paint1_linear" x1="146.168" y1="0.000732422" x2="146.168" y2="29.0316" gradientUnits="userSpaceOnUse">
<stop stop-color="#206CFF"/>
<stop offset="1" stop-color="#206CFF" stop-opacity="0.55"/>
</linearGradient>
<linearGradient id="paint2_linear" x1="149.681" y1="8.66663" x2="149.681" y2="37.7012" gradientUnits="userSpaceOnUse">
<stop stop-color="#206CFF"/>
<stop offset="1" stop-color="#206CFF" stop-opacity="0.55"/>
</linearGradient>
<clipPath id="clip0">
<rect width="37.7012" height="37.7012" fill="white" transform="translate(129.532)"/>
</clipPath>
</defs>
</svg>
