<svg width="296" height="226" viewBox="0 0 296 226" fill="none" xmlns="http://www.w3.org/2000/svg">
<path fill-rule="evenodd" clip-rule="evenodd" d="M296 60.8084C296 60.8084 242.673 -16.7021 170.123 3.76067C97.5726 24.2234 91.9918 45.3063 61.6076 39.7255C31.2234 34.1448 10.7606 31.6644 0.839251 67.6293C-9.08212 103.594 72.7692 128.397 46.1055 163.742C19.4418 199.087 -5.3616 189.166 15.1012 218.31C35.564 247.454 144.079 173.043 183.144 191.646C222.21 210.249 211.668 225.131 219.109 220.17C226.55 215.209 296 60.8084 296 60.8084Z" fill="#F6F8FA"/>
<path fill-rule="evenodd" clip-rule="evenodd" d="M218.157 25.9861C216.103 25.9693 213.987 26.0265 211.809 26.1635C142.093 30.5482 171.47 53.7873 150.862 59.0489C130.254 64.3105 126.076 54.3978 120.607 69.1331C111.807 92.8422 161.699 104.989 154.369 125.256C146.864 146.008 121.046 153.318 111.838 177.434C107.907 187.73 105.341 196.981 104.537 204.414C135.241 193.311 165.933 183.449 183.145 191.646C222.21 210.248 211.668 225.13 219.109 220.169C224.623 216.494 264.082 130.98 284.207 86.8149C279.278 63.5873 263.838 26.3591 218.157 25.9861Z" fill="white"/>
<path fill-rule="evenodd" clip-rule="evenodd" d="M119.783 8.96789C119.975 13.9249 86.1253 32.8397 63.2366 31.9589C40.6224 31.0888 47.9005 22.9092 20.8037 28.9573C-10.2474 35.8881 107.52 2.44479 119.783 8.96789Z" fill="#F6F8FA"/>
<path fill-rule="evenodd" clip-rule="evenodd" d="M119.908 102.576C119.144 102.13 114.536 97.497 110.606 96.8216C109.197 96.5795 102.39 92.1847 99.0064 86.5438C95.623 80.9029 99.4701 74.6316 103.406 73.1185C107.343 71.6054 110.734 79.0137 112.83 79.5754C113.307 79.7033 113.831 79.6177 114.351 79.4395C115.385 79.0853 115.861 76.9649 116.45 76.7163C117.104 76.441 118.371 77.9706 118.598 78.9685C119.56 83.1874 118.112 84.1202 117.755 86.3516C117.398 88.5829 123.301 92.01 123.301 92.01C123.301 92.01 124.451 94.0035 122.634 98.0905C120.817 102.177 119.908 102.576 119.908 102.576Z" fill="#FFEDD6"/>
<path fill-rule="evenodd" clip-rule="evenodd" d="M121.805 89.2032L114.221 101.935C114.221 101.935 160.681 129.791 180.454 136.855C200.227 143.918 202.243 144.78 202.243 144.78L230.231 201.154C239.099 183.837 251.674 157.288 263.496 131.843C262.451 130.65 261.429 129.41 260.47 128.124C257.606 124.283 261.063 124.725 265.979 126.497C269.411 119.091 272.695 111.961 275.818 105.155C266.076 102.7 252.759 99.361 248.074 98.3215C241.106 96.7753 227.436 95.6798 215.562 100.763C203.687 105.847 178.89 109.153 154.472 103.252C130.054 97.3512 121.805 89.2032 121.805 89.2032Z" fill="#3287FA"/>
<path fill-rule="evenodd" clip-rule="evenodd" d="M208.76 102.717C208.76 102.717 218.893 119.958 223.092 121.65C227.291 123.343 226.886 114.269 226.886 114.269C226.886 114.269 228.507 128.548 227.97 128.858C227.433 129.169 208.548 120.023 208.548 120.023L208.76 102.717Z" fill="#305CCF"/>
<path fill-rule="evenodd" clip-rule="evenodd" d="M15.7962 102.45C35.1508 122.388 63.3698 140.856 46.1051 163.741C19.4415 199.086 -5.36194 189.165 15.1008 218.309C35.5635 247.453 144.078 173.043 183.144 191.645C222.209 210.247 211.667 225.129 219.108 220.168C222.66 217.8 240.342 181.366 257.854 143.943C210.441 147.731 138.302 151.332 135.953 138.41C132.445 119.118 138.146 127.887 94.2996 121.31C57.0278 115.72 26.7387 107.28 15.7962 102.45Z" fill="#D6E7FE"/>
<path fill-rule="evenodd" clip-rule="evenodd" d="M235.455 97.0134C235.029 97.0137 234.599 97.0178 234.165 97.0269C233.949 97.0272 233.743 97.0367 233.531 97.0397C230.758 97.1263 227.846 97.4075 224.912 97.9568C224.516 98.0349 224.123 98.1143 223.735 98.199C223.722 98.2016 223.71 98.2038 223.697 98.2067C223.687 98.2084 223.678 98.2121 223.668 98.2143C223.231 98.3104 222.799 98.4097 222.37 98.5127C222.896 100.446 228.072 127.287 224.035 125.761C220.857 124.56 212.502 109.083 208.589 103.265C208.559 103.22 208.528 103.185 208.498 103.149C207.799 103.337 207.082 103.52 206.343 103.696L206.341 103.697C204.006 105.997 200.692 111.729 199.061 118.162C195.073 133.89 202.468 144.836 202.468 144.836C202.468 144.836 202.371 145.02 202.367 145.029L230.231 201.153C239.1 183.836 251.674 157.288 263.497 131.842C262.911 131.173 262.329 130.493 261.765 129.792C261.324 129.244 260.891 128.687 260.471 128.123C260.284 127.873 260.135 127.648 260.001 127.434C259.965 127.377 259.931 127.322 259.899 127.267C259.78 127.065 259.677 126.873 259.606 126.704C259.606 126.702 259.606 126.702 259.602 126.701C259.602 126.7 259.602 126.698 259.602 126.698C259.551 126.578 259.517 126.468 259.489 126.363C259.483 126.343 259.479 126.324 259.474 126.305C259.454 126.216 259.443 126.133 259.439 126.056C259.439 126.044 259.434 126.032 259.434 126.021C259.43 125.839 259.473 125.689 259.558 125.57C259.558 125.567 259.562 125.565 259.563 125.564C259.606 125.504 259.66 125.453 259.723 125.408V125.383C249.267 108.524 248.218 103.72 248.622 98.4259C248.476 98.3926 248.2 98.3253 248.071 98.2967C247.636 98.2001 247.172 98.105 246.687 98.0136C246.231 97.9275 245.75 97.8431 245.253 97.7638C245.244 97.7625 245.235 97.7616 245.226 97.7594C244.81 97.6936 244.374 97.6328 243.932 97.5733C243.837 97.5604 243.748 97.5459 243.652 97.5333C243.647 97.5329 243.641 97.5316 243.636 97.5307C241.563 97.2623 239.224 97.072 236.721 97.0241H236.717C236.301 97.0163 235.88 97.0127 235.455 97.0131L235.455 97.0134Z" fill="url(#paint0_linear)"/>
<path d="M220.253 85.0405C221.079 84.5636 221.05 82.9665 220.188 81.4731C219.326 79.9798 217.957 79.1559 217.131 79.6328C216.305 80.1097 216.334 81.7068 217.197 83.2001C218.059 84.6934 219.427 85.5174 220.253 85.0405Z" fill="#FFE6C5"/>
<path d="M198.024 97.3682C198.85 96.8912 198.821 95.294 197.959 93.8005C197.097 92.3071 195.728 91.4831 194.902 91.9601C194.076 92.437 194.105 94.0343 194.968 95.5277C195.83 97.0211 197.198 97.8451 198.024 97.3682Z" fill="#FFE6C5"/>
<path d="M211.068 94.313C218.186 90.2035 221.05 81.8381 217.465 75.6285C213.88 69.4188 205.203 67.7164 198.085 71.8259C190.967 75.9354 188.103 84.3008 191.688 90.5104C195.274 96.72 203.95 98.4225 211.068 94.313Z" fill="#3A3A3A"/>
<path fill-rule="evenodd" clip-rule="evenodd" d="M216.948 90.0799C218.11 92.0937 220.899 98.7342 220.899 98.7342C222.179 110.623 215.458 109.89 211.512 104.301C209.81 101.891 208.607 97.7722 207.491 94.981C207.491 94.981 211.757 90.3914 216.948 90.0799Z" fill="#FFEDD6"/>
<path fill-rule="evenodd" clip-rule="evenodd" d="M219.684 95.916C218.994 95.9727 216.037 96.2148 214.667 96.2637C213.953 96.2893 211.396 97.4476 208.869 98.6735C209.63 100.728 210.472 102.829 211.511 104.301C211.583 104.403 211.663 104.491 211.737 104.59C214.109 103.888 216.57 102.648 217.736 101.744C219.705 100.217 219.962 97.9937 220.048 96.7588C219.905 96.4273 219.863 96.3273 219.684 95.916Z" fill="#FCBB88"/>
<path d="M197.883 72.7437L198.633 72.3108C204.202 69.0956 211.273 70.9905 214.489 76.5593L219.745 85.6631C222.585 90.583 219.267 99.3419 217.205 100.532L215.945 101.26L214.129 102.308C211.589 103.774 202.227 103.482 198.891 97.7031L193.635 88.5993C190.42 83.0305 192.314 75.9589 197.883 72.7437Z" fill="#FFEDD6"/>
<path d="M197.931 72.7152C195.136 74.3289 193.268 76.9153 192.506 79.7944C193.468 77.6378 195.088 75.7489 197.299 74.4725L198.049 74.0397C203.617 70.8245 210.69 72.7187 213.905 78.2876L219.161 87.3915C220.74 90.1265 220.413 94.0458 219.459 97.1938C220.841 93.8814 221.683 88.9112 219.791 85.6348L214.536 76.5318C211.321 70.963 204.249 69.0672 198.68 72.2824L197.931 72.7152Z" fill="#FCBB88"/>
<path d="M197.624 72.76C192.055 75.9751 190.16 83.0462 193.376 88.6148L198.632 97.7185C201.753 103.125 210.147 103.728 213.296 102.582C209.482 103.05 203.031 101.929 200.379 97.3354L195.123 88.2317C191.908 82.663 193.803 75.5919 199.371 72.3768L200.121 71.944C200.937 71.4727 201.788 71.1239 202.652 70.8677C201.188 71.0636 199.736 71.5406 198.374 72.3272L197.624 72.76Z" fill="white"/>
<path fill-rule="evenodd" clip-rule="evenodd" d="M211.709 72.0154C210.894 72.3075 207.325 71.8619 202.116 78.8073C196.907 85.7527 194.124 86.8227 190.433 84.9259C186.742 83.0291 183.364 73.6126 191.613 69.2976C199.862 64.9825 206.168 64.7429 208.33 66.6273C210.492 68.5117 211.709 72.0154 211.709 72.0154Z" fill="#3A3A3A"/>
<path fill-rule="evenodd" clip-rule="evenodd" d="M259.336 124.775C259.338 124.777 259.338 124.779 259.34 124.781C259.34 124.779 259.34 124.777 259.341 124.775H259.336H259.336ZM259.34 124.781C259.269 125.099 259.325 125.61 259.47 126.268C259.455 126.193 259.443 126.12 259.439 126.054C259.439 126.043 259.435 126.031 259.435 126.019C259.43 125.838 259.473 125.689 259.558 125.57C259.558 125.567 259.563 125.565 259.563 125.564C259.606 125.504 259.66 125.453 259.724 125.408V125.407C259.588 125.188 259.472 124.995 259.34 124.781L259.34 124.781ZM259.47 126.268C259.472 126.281 259.472 126.292 259.475 126.305C259.479 126.324 259.484 126.344 259.489 126.364C259.481 126.33 259.477 126.301 259.47 126.268V126.268ZM259.489 126.364C259.915 128.219 261.041 131.252 262.21 134.613C262.642 133.684 263.067 132.767 263.498 131.841C262.912 131.172 262.33 130.492 261.765 129.791C261.324 129.243 260.892 128.687 260.471 128.123C260.285 127.873 260.135 127.648 260.001 127.434C259.965 127.377 259.931 127.321 259.899 127.267C259.78 127.065 259.678 126.873 259.607 126.704C259.606 126.702 259.607 126.702 259.602 126.701C259.602 126.7 259.602 126.698 259.602 126.697C259.552 126.577 259.517 126.469 259.489 126.364L259.489 126.364Z" fill="#A5C4EC"/>
<path fill-rule="evenodd" clip-rule="evenodd" d="M208.495 103.149C207.796 103.337 207.081 103.52 206.342 103.696L206.34 103.697C204.005 105.997 200.691 111.729 199.06 118.162C195.073 133.89 202.466 144.836 202.466 144.836C202.466 144.836 202.371 145.02 202.366 145.029L230.231 201.153C235.455 190.952 241.979 177.508 248.879 162.984C242.448 166.916 235.931 176.024 233.449 176.173C229.988 176.381 232.537 170.255 238.04 162.424C243.543 154.593 234.001 162.249 227.792 158.316C221.583 154.383 233.749 148.792 239.044 137.501C244.339 126.21 223.777 137.722 232.582 120.109C238.762 107.746 229.978 105.798 223.609 104.951C225.079 113.374 226.936 126.859 224.033 125.761C220.855 124.56 212.501 109.083 208.588 103.265C208.558 103.22 208.526 103.185 208.495 103.149L208.495 103.149Z" fill="#D9E6F6"/>
<path fill-rule="evenodd" clip-rule="evenodd" d="M119.985 89.2209C119.667 89.456 119.11 90.1274 118.663 90.6756C116.952 92.7777 114.431 97.4189 113.845 99.3837C114.351 99.7268 114.828 100.073 115.282 100.422L121.291 90.1615C120.888 89.8901 120.45 89.5781 119.985 89.2209Z" fill="white"/>
<path fill-rule="evenodd" clip-rule="evenodd" d="M15.9545 102.611C35.3042 122.488 63.3235 140.918 46.1052 163.742C19.4415 199.087 -5.36198 189.166 15.1008 218.31C30.0852 239.651 92.2835 205.466 139.854 192.936C140.408 190.071 140.795 187.059 140.979 183.895C141.784 170.049 139.495 153.397 137.109 140.552C136.49 139.894 136.093 139.183 135.953 138.411C132.445 119.118 138.146 127.888 94.2998 121.311C57.5558 115.799 27.6371 107.526 16.3117 102.665L15.9545 102.611V102.611Z" fill="#EBF3FF"/>
<path fill-rule="evenodd" clip-rule="evenodd" d="M46.3448 134.403C52.3552 143.63 54.0435 153.219 46.105 163.742C19.4415 199.087 -5.36193 189.166 15.1008 218.311C30.0851 239.652 92.2832 205.467 139.854 192.936C140.407 190.072 140.794 187.06 140.978 183.895C141.771 170.263 139.563 153.928 137.217 141.167C113.678 138.645 59.4462 135.217 46.3448 134.403Z" fill="#BED8FF"/>
<path d="M112.324 172.427C111.465 184.726 101.844 194.75 88.9166 194.75C75.9889 194.75 65.5089 184.756 65.5089 172.427C65.5089 160.099 76.1228 151.961 88.9166 150.105C106.244 147.59 113.222 159.586 112.324 172.427Z" fill="#D6E7FE"/>
<path fill-rule="evenodd" clip-rule="evenodd" d="M43.8576 123.333C44.3271 124.897 46.1909 127.536 48.9263 128.946C50.0371 129.519 83.8747 133.226 83.6987 131.833C83.5226 130.44 83.0202 127.967 80.3781 127.542C77.736 127.117 43.8576 123.333 43.8576 123.333Z" fill="#BED8FF"/>
<path fill-rule="evenodd" clip-rule="evenodd" d="M236.721 97.0249C235.886 97.009 235.033 97.009 234.165 97.0275C233.949 97.0277 233.743 97.0365 233.531 97.0395C232.144 97.0828 230.723 97.175 229.282 97.3248C227.84 97.4747 226.379 97.6821 224.912 97.9567C224.516 98.0349 224.123 98.1142 223.736 98.1989C223.723 98.2015 223.71 98.2044 223.697 98.2073C223.687 98.209 223.678 98.2122 223.669 98.2145C223.231 98.3105 222.799 98.4101 222.37 98.513C222.428 98.7249 222.56 99.3413 222.711 100.081C224.285 99.5007 228.387 98.4074 238.453 97.633C240.686 97.4612 242.897 97.5362 244.972 97.7229C244.633 97.6718 244.29 97.6219 243.936 97.5742C243.841 97.5613 243.752 97.5473 243.656 97.5346C243.651 97.5342 243.645 97.5329 243.64 97.532C241.566 97.2635 239.226 97.0726 236.721 97.0248L236.721 97.0249ZM246.9 98.0572C247.489 98.1868 248.065 98.3378 248.62 98.5213C248.624 98.4896 248.624 98.4582 248.626 98.4265C248.479 98.3932 248.204 98.3257 248.075 98.297C247.705 98.215 247.306 98.1357 246.9 98.0572H246.9Z" fill="#D9E6F6"/>
<path fill-rule="evenodd" clip-rule="evenodd" d="M34.3107 78.1343C34.3107 78.1343 32.2393 80.3581 29.6559 78.8279C27.0725 77.2976 26.5668 72.8609 28.1231 71.9599C29.6794 71.0588 34.2038 71.7356 34.9569 74.172C35.71 76.6085 34.3107 78.1343 34.3107 78.1343Z" fill="#6DE799"/>
<path fill-rule="evenodd" clip-rule="evenodd" d="M29.7172 74.2267C29.9095 74.2505 31.5293 74.0993 35.5865 77.9205C39.6437 81.7417 43.9901 89.8552 43.9901 89.8552C43.9901 89.8552 43.2796 90.5484 42.8993 90.1499C42.5191 89.7514 34.8414 77.9455 29.7172 74.2267Z" fill="#4D786E"/>
<path fill-rule="evenodd" clip-rule="evenodd" d="M59.0239 85.5639C59.5465 84.9106 60.8827 82.5906 64.2698 83.7827C67.6568 84.9748 66.532 87.8179 65.8524 87.9547C65.1728 88.0916 67.2146 89.8905 63.7272 89.9562C58.8593 89.341 50.9611 85.1767 59.0239 85.5639Z" fill="#6DE799"/>
<path fill-rule="evenodd" clip-rule="evenodd" d="M43.2248 89.0965C43.657 88.7594 49.0005 83.4459 57.4492 85.2326C65.8978 87.0192 63.0221 86.2731 57.2339 86.0259C51.4457 85.7787 44.4418 89.6765 43.7927 89.5572C43.1436 89.4379 43.2248 89.0965 43.2248 89.0965Z" fill="#4D786E"/>
<path fill-rule="evenodd" clip-rule="evenodd" d="M50.0976 73.1125C49.8257 73.0789 45.2319 74.4989 44.9811 69.8289C44.7303 65.1589 48.0566 61.4835 52.5225 61.097C56.9884 60.7105 59.4671 63.8888 59.5793 66.5535C59.6916 69.2182 56.9765 72.4169 53.6938 73.0602C50.4111 73.7035 50.0976 73.1125 50.0976 73.1125Z" fill="#6DE799"/>
<path fill-rule="evenodd" clip-rule="evenodd" d="M51.2037 67.7269C50.675 68.8765 43.7935 88.3483 42.552 90.3486C41.3106 92.3488 42.4484 94.312 44.1754 89.2792C45.9024 84.2464 46.7435 82.8041 48.7883 76.5404C50.8332 70.2767 51.2037 67.7269 51.2037 67.7269Z" fill="#4D786E"/>
<path fill-rule="evenodd" clip-rule="evenodd" d="M47.8084 79.5104C47.9718 79.4525 52.0842 77.4618 52.8218 79.076C53.5594 80.6903 51.1735 82.9488 49.3074 82.5466C47.4342 82.1428 46.3105 80.3064 47.8084 79.5104Z" fill="#6DE799"/>
<path fill-rule="evenodd" clip-rule="evenodd" d="M46.492 79.3471C46.3477 79.2511 42.8441 76.3188 41.7354 77.7046C40.6267 79.0904 42.3905 81.8618 44.2984 81.9263C46.2137 81.9911 47.6584 80.507 46.492 79.3471Z" fill="#6DE799"/>
<path fill-rule="evenodd" clip-rule="evenodd" d="M54.9632 94.1889C57.1951 95.7904 47.5483 111.276 44.8836 111.388C42.2189 111.5 29.3527 108.363 28.6707 106.732C27.9888 105.101 26.676 88.9233 27.7358 88.3916C28.7957 87.86 29.5034 88.3895 29.5034 88.3895C34.1905 90.4154 49.1249 90.8519 54.9632 94.189V94.1889Z" fill="#FFD0B1"/>
<path d="M207.399 97.3823C208.793 99.429 212.088 99.5886 214.135 98.1943C216.182 96.7998 217.206 93.0988 215.811 91.0521C213.569 95.3715 210.153 96.8702 207.399 97.3823Z" fill="#953D2D"/>
<path fill-rule="evenodd" clip-rule="evenodd" d="M204.265 65.5068C203.99 65.5059 203.701 65.517 203.405 65.534C203.339 65.5379 203.272 65.5412 203.205 65.5459C202.916 65.5663 202.618 65.594 202.311 65.6318C202.252 65.6392 202.189 65.6492 202.129 65.6573C201.848 65.6946 201.559 65.7393 201.264 65.7915C201.202 65.8026 201.141 65.8121 201.077 65.8238C200.752 65.8844 200.417 65.9556 200.075 66.0346C199.983 66.0559 199.89 66.0783 199.797 66.1009C199.45 66.1853 199.098 66.276 198.736 66.3797C198.718 66.3848 198.7 66.3898 198.682 66.395C198.311 66.502 197.93 66.6233 197.543 66.7511C197.46 66.7788 197.376 66.8058 197.292 66.8344C196.901 66.9672 196.504 67.1092 196.099 67.2637C196.03 67.29 195.96 67.3191 195.89 67.3461C195.514 67.4923 195.132 67.6475 194.744 67.8127C194.68 67.84 194.617 67.8657 194.552 67.8935C194.131 68.0756 193.702 68.2714 193.268 68.4766C193.169 68.5236 193.068 68.572 192.968 68.6202C192.522 68.8352 192.072 69.0577 191.613 69.2976C184.009 73.2755 186.286 81.5844 189.58 84.3452C191.028 84.416 192.402 84.3347 193.074 83.7451C197.782 79.6122 196.454 71.8207 202.059 67.9742C204.184 66.5158 205.928 66.0391 207.277 66.0066C206.885 65.8477 206.436 65.7232 205.934 65.6386C205.933 65.6386 205.933 65.6386 205.932 65.6386C205.906 65.6342 205.876 65.6326 205.85 65.6284C205.622 65.5924 205.388 65.5616 205.14 65.5417C205.139 65.5417 205.139 65.5417 205.138 65.5417C204.86 65.5195 204.569 65.5079 204.265 65.5068H204.265Z" fill="#757575"/>
<path d="M267.612 122.265C270.2 123.248 273.41 121.064 274.782 117.387C276.153 113.709 275.166 109.931 272.577 108.947C269.989 107.964 266.779 110.148 265.408 113.825C264.036 117.503 265.023 121.281 267.612 122.265Z" fill="#FFEDD6"/>
<path d="M274.544 117.959C273.754 119.462 272.613 120.679 271.325 121.391C270.037 122.102 268.688 122.26 267.521 121.838C266.561 121.486 265.773 120.758 265.254 119.744C265.735 120.977 266.565 121.864 267.611 122.265C268.783 122.709 270.146 122.513 271.429 121.716C272.712 120.919 273.824 119.578 274.544 117.959Z" fill="#FFD49C"/>
<path fill-rule="evenodd" clip-rule="evenodd" d="M265.491 119.508C265.491 119.508 264.48 125.064 265.802 125.453C267.123 125.841 268.864 125.267 268.941 123.558C269.019 121.848 265.491 119.508 265.491 119.508Z" fill="#FFEDD6"/>
<path fill-rule="evenodd" clip-rule="evenodd" d="M268.937 123.601C268.881 123.751 268.949 124.236 268.1 124.725C267.455 125.096 267.136 125.384 266.047 125.513C267.317 125.765 268.837 125.174 268.937 123.601Z" fill="#FFD49C"/>
<path fill-rule="evenodd" clip-rule="evenodd" d="M213.27 100.293C213.84 99.4957 214.538 98.1972 215.916 97.8854C217.294 97.5736 214.559 99.5448 213.937 99.8908C213.316 100.237 213.27 100.293 213.27 100.293V100.293Z" fill="white"/>
<path d="M215.757 94.4917C214.958 94.4798 214.045 94.7425 213.176 95.2345C212.927 95.3754 212.685 95.5334 212.453 95.7062C211.841 96.164 211.314 96.7135 210.927 97.2991C210.54 97.8848 210.306 98.4855 210.249 99.0405C211.58 99.2387 213.036 98.9422 214.134 98.194C215.236 97.4434 216.037 96.0247 216.328 94.5554C216.148 94.517 215.957 94.4956 215.757 94.4917Z" fill="#EE5437"/>
<path d="M215.623 91.3898C213.455 95.3112 210.296 96.7842 207.667 97.3271C207.689 97.4374 207.731 97.5341 207.792 97.6161C208.401 98.4013 211.307 97.8071 213.502 96.1193C215.697 94.4316 216.351 92.2893 215.742 91.5037C215.708 91.4614 215.668 91.4234 215.623 91.3898Z" fill="white"/>
<path d="M209.388 78.845C208.691 79.1156 208.075 79.579 207.662 80.1431C207.249 80.7072 207.07 81.3306 207.161 81.8894C207.208 81.374 207.462 80.838 207.885 80.3627C208.307 79.8874 208.874 79.4987 209.5 79.2557C210.126 79.0135 210.776 78.9301 211.352 79.0183C211.928 79.1064 212.398 79.3612 212.691 79.744C212.488 79.2293 212.036 78.8511 211.424 78.6845C210.812 78.518 210.085 78.5753 209.388 78.845Z" fill="#222222"/>
<path d="M197.44 86.4945C197.942 85.9398 198.594 85.5295 199.269 85.3452C199.943 85.161 200.589 85.2162 201.079 85.5C200.581 85.3607 199.989 85.4069 199.394 85.6317C198.8 85.8565 198.234 86.2476 197.784 86.7455C197.334 87.2436 197.025 87.821 196.902 88.3902C196.779 88.9594 196.849 89.4893 197.102 89.8997C196.694 89.5265 196.502 88.9691 196.564 88.3383C196.627 87.7074 196.939 87.0493 197.44 86.4945Z" fill="#222222"/>
<path d="M211.244 85.1471C211.952 85.1471 212.526 84.573 212.526 83.865C212.526 83.1569 211.952 82.5829 211.244 82.5829C210.536 82.5829 209.962 83.1569 209.962 83.865C209.962 84.573 210.536 85.1471 211.244 85.1471Z" fill="#222222"/>
<path d="M201.464 90.9721C202.172 90.9721 202.745 90.3981 202.745 89.69C202.745 88.9819 202.172 88.4079 201.464 88.4079C200.756 88.4079 200.182 88.9819 200.182 89.69C200.182 90.3981 200.756 90.9721 201.464 90.9721Z" fill="#222222"/>
<path fill-rule="evenodd" clip-rule="evenodd" d="M211.866 91.5779C211.866 91.8103 211.343 92.9138 210.821 93.3784C210.298 93.8431 208.033 93.1461 209.021 93.6688C211.26 94.1164 211.422 94.0522 211.866 91.5779Z" fill="#FCBB88"/>
<path fill-rule="evenodd" clip-rule="evenodd" d="M206.347 86.9377L210.499 93.2169C210.183 93.1381 208.922 93.451 208.156 92.7139C207.333 91.9224 206.347 86.9377 206.347 86.9377Z" fill="white"/>
<path d="M211.399 83.4488C211.622 83.4488 211.802 83.2684 211.802 83.0457C211.802 82.8231 211.622 82.6426 211.399 82.6426C211.176 82.6426 210.995 82.8231 210.995 83.0457C210.995 83.2684 211.176 83.4488 211.399 83.4488Z" fill="white"/>
<path d="M201.572 89.2771C201.794 89.2771 201.975 89.0965 201.975 88.8738C201.975 88.651 201.794 88.4704 201.572 88.4704C201.349 88.4704 201.168 88.651 201.168 88.8738C201.168 89.0965 201.349 89.2771 201.572 89.2771Z" fill="white"/>
<path fill-rule="evenodd" clip-rule="evenodd" d="M208.171 103.232C207.575 103.39 206.961 103.544 206.336 103.693L206.334 103.694C203.998 105.994 200.684 111.726 199.053 118.159C195.066 133.887 202.244 144.794 202.244 144.794C202.244 144.794 202.364 145.017 202.36 145.026L230.235 201.153C230.618 200.406 231.021 199.606 231.418 198.825C220.405 173.782 195.77 140.555 201.077 117.502C202.665 111.235 205.848 105.643 208.171 103.232L208.171 103.232Z" fill="white"/>
<defs>
<linearGradient id="paint0_linear" x1="215.847" y1="127.16" x2="360.135" y2="254.688" gradientUnits="userSpaceOnUse">
<stop stop-color="#F6F8FA"/>
<stop offset="0.181643" stop-color="#D8E6F6"/>
<stop offset="0.48779" stop-color="#8FA9D3"/>
<stop offset="1" stop-color="#F6F8FA" stop-opacity="0"/>
</linearGradient>
</defs>
</svg>
