<svg width="28" height="38" viewBox="0 0 28 38" fill="none" xmlns="http://www.w3.org/2000/svg">
<path d="M0.701887 21.5322L5.31714 26.1443L2.42829 29.0316C0.588783 27.7529 -0.32547 23.8618 0.701887 21.5322ZM9.08725 25.3258C6.70894 23.0502 4.37984 20.7164 2.09997 18.3244C0.884003 17.0325 0.218751 15.3179 0.245141 13.5439C0.271531 11.7699 0.987491 10.0758 2.24135 8.82059C4.51704 6.53025 6.79796 4.25456 9.08411 1.99354C10.376 0.711612 12.1239 -0.00512236 13.9439 0.000768449C15.7638 0.00665926 17.507 0.734694 18.7906 2.02496L23.8897 7.11619C23.9572 7.18059 24.0185 7.25285 24.0923 7.31569L21.1689 10.2391L20.9066 9.99404L15.8797 4.95937C15.6294 4.69599 15.3285 4.48589 14.995 4.34165C14.6615 4.1974 14.3023 4.122 13.9389 4.11994C13.5755 4.11789 13.2155 4.18923 12.8804 4.3297C12.5453 4.47016 12.242 4.67685 11.9887 4.93737L5.21346 11.7126C4.95822 11.964 4.75532 12.2635 4.61646 12.5938C4.47761 12.9241 4.40555 13.2786 4.40446 13.6369C4.41094 14.0855 4.52245 14.5264 4.73005 14.9241C4.93765 15.3219 5.23556 15.6654 5.5999 15.9273L8.52802 18.8004C9.7643 20.0665 10.9613 21.3625 12.2243 22.5595C12.7291 22.9914 13.3783 23.2168 14.042 23.1906C14.7058 23.1644 15.3352 22.8885 15.8043 22.4181C16.4327 21.8008 17.0516 21.174 17.6768 20.5488L19.4048 18.8208L22.2968 21.8055L22.2842 21.7945C22.2057 21.8683 22.1271 21.9406 22.0423 22.0176L18.8911 25.1688C18.2422 25.8413 17.4665 26.3789 16.6089 26.7504C15.7513 27.1219 14.8287 27.3201 13.8942 27.3334C12.0911 27.3163 10.3662 26.5954 9.08725 25.3243V25.3258Z" fill="url(#paint0_linear)"/>
<path d="M13.9239 37.7012C12.1586 37.7041 10.4611 37.0215 9.18928 35.7973C7.92157 34.5783 6.66644 33.3091 5.45215 32.0822C4.96203 31.5889 4.40594 31.0281 3.85927 30.4783C3.83837 30.4566 3.81895 30.4335 3.80115 30.4092L3.77759 30.3794L6.69472 27.4701L6.9005 27.6617L11.9273 32.6886C12.1872 32.96 12.4983 33.1774 12.8426 33.3281C13.1869 33.4788 13.5576 33.5599 13.9333 33.5667C14.6622 33.556 15.3571 33.2566 15.8655 32.7341C18.1386 30.4862 20.4085 28.2163 22.6203 25.9793C22.8795 25.7308 23.0867 25.4333 23.2299 25.104C23.3731 24.7747 23.4494 24.4203 23.4545 24.0613C23.4381 23.6244 23.3278 23.1962 23.131 22.8058C22.9342 22.4155 22.6555 22.0721 22.314 21.7992L19.422 18.8145C19.3129 18.7397 19.2081 18.6589 19.1078 18.5726L15.9519 15.4214C15.6919 15.1431 15.3788 14.9196 15.031 14.7642C14.6833 14.6088 14.3079 14.5246 13.9271 14.5166C13.5455 14.5246 13.1695 14.6087 12.8209 14.7641C12.4724 14.9195 12.1584 15.143 11.8975 15.4214C10.8466 16.4708 9.77678 17.5343 8.64732 18.6637C8.59234 18.7218 8.5405 18.7815 8.52951 18.7941L5.60295 15.9225C5.72007 15.7687 5.84485 15.6208 5.97682 15.4795L6.61617 14.8355C7.45973 13.9856 8.33315 13.1075 9.20813 12.2671C10.3389 11.1637 11.8325 10.5093 13.4102 10.426C13.5987 10.4103 13.7904 10.4025 13.9789 10.4025C14.8938 10.4024 15.7993 10.5878 16.6406 10.9474C17.4819 11.307 18.2416 11.8335 18.8738 12.4949L25.5374 19.1428C26.7738 20.361 27.503 22.0022 27.5785 23.7362C27.654 25.4703 27.0701 27.1686 25.9443 28.4896C25.8396 28.6201 25.7257 28.7429 25.6034 28.8572L18.8078 35.6497C18.1717 36.3001 17.4119 36.8166 16.5731 37.1689C15.7344 37.5213 14.8337 37.7023 13.9239 37.7012ZM27.168 16.155L22.57 11.5539L25.4558 8.66663C26.3256 9.49495 26.9618 10.538 27.3 11.6906C27.6969 13.1589 27.6499 14.7118 27.1649 16.1534L27.168 16.155Z" fill="url(#paint1_linear)"/>
<defs>
<linearGradient id="paint0_linear" x1="12.1684" y1="0.000732422" x2="12.1684" y2="29.0316" gradientUnits="userSpaceOnUse">
<stop stop-color="#206CFF"/>
<stop offset="1" stop-color="#206CFF" stop-opacity="0.55"/>
</linearGradient>
<linearGradient id="paint1_linear" x1="15.6813" y1="8.66663" x2="15.6813" y2="37.7012" gradientUnits="userSpaceOnUse">
<stop stop-color="#206CFF"/>
<stop offset="1" stop-color="#206CFF" stop-opacity="0.55"/>
</linearGradient>
</defs>
</svg>
